G04*
G04 #@! TF.GenerationSoftware,Altium Limited,Altium Designer,20.2.6 (244)*
G04*
G04 Layer_Physical_Order=3*
G04 Layer_Color=16440176*
%FSLAX25Y25*%
%MOIN*%
G70*
G04*
G04 #@! TF.SameCoordinates,8D702C91-D224-4EEC-953A-651AC819B964*
G04*
G04*
G04 #@! TF.FilePolarity,Positive*
G04*
G01*
G75*
%ADD78C,0.02362*%
%ADD79C,0.05000*%
G36*
X18996Y122036D02*
X19386Y121646D01*
X19394Y121626D01*
Y111492D01*
X19333Y111468D01*
X18894Y111409D01*
X18519Y111969D01*
X17868Y112404D01*
X17100Y112557D01*
X16332Y112404D01*
X15681Y111969D01*
X15246Y111318D01*
X15093Y110550D01*
X15246Y109782D01*
X15681Y109131D01*
X16332Y108696D01*
X17100Y108543D01*
X17868Y108696D01*
X18519Y109131D01*
X18954Y109782D01*
X19033Y110176D01*
X19070Y110190D01*
X19553Y110229D01*
X19704Y110003D01*
X20047Y109774D01*
X20080Y109730D01*
X20080Y109730D01*
X22488Y108842D01*
X26679Y106910D01*
X30705Y104655D01*
X34541Y102092D01*
X38165Y99235D01*
X41553Y96103D01*
X44685Y92715D01*
X47428Y89235D01*
X47074Y88876D01*
X46304Y89467D01*
X45241Y89908D01*
X44100Y90058D01*
X42959Y89908D01*
X41896Y89467D01*
X40983Y88767D01*
X40283Y87854D01*
X39843Y86791D01*
X39692Y85650D01*
X39843Y84509D01*
X40283Y83446D01*
X40983Y82533D01*
X41896Y81833D01*
X42959Y81393D01*
X44100Y81242D01*
X45241Y81393D01*
X46304Y81833D01*
X47217Y82533D01*
X47917Y83446D01*
X48358Y84509D01*
X48508Y85650D01*
X48358Y86791D01*
X48163Y87262D01*
X48606Y87498D01*
X50105Y85255D01*
X52360Y81229D01*
X54291Y77038D01*
X55888Y72709D01*
X57141Y68268D01*
X58041Y63743D01*
X58583Y59161D01*
X58745Y55051D01*
X58676Y54683D01*
X58650Y54550D01*
X58650Y54550D01*
Y54550D01*
X58650Y54550D01*
X58676Y54417D01*
X58745Y54049D01*
X58583Y49939D01*
X58041Y45357D01*
X57141Y40832D01*
X55889Y36391D01*
X54291Y32062D01*
X52360Y27872D01*
X50105Y23846D01*
X47542Y20009D01*
X44685Y16386D01*
X41553Y12997D01*
X38165Y9865D01*
X34541Y7009D01*
X30705Y4445D01*
X26882Y2304D01*
X16782Y2350D01*
X16600Y2774D01*
X16600Y2851D01*
Y14979D01*
X-15000D01*
Y2994D01*
X-15384Y2495D01*
X-27319Y2549D01*
X-30704Y4445D01*
X-34541Y7008D01*
X-38164Y9865D01*
X-41553Y12997D01*
X-44685Y16386D01*
X-47541Y20009D01*
X-50105Y23846D01*
X-52360Y27872D01*
X-54291Y32062D01*
X-55347Y34923D01*
X-54940Y35265D01*
X-54041Y34892D01*
X-52900Y34742D01*
X-51759Y34892D01*
X-50696Y35333D01*
X-49783Y36033D01*
X-49083Y36946D01*
X-48642Y38009D01*
X-48492Y39150D01*
X-48642Y40291D01*
X-49083Y41354D01*
X-49783Y42267D01*
X-50696Y42967D01*
X-51759Y43408D01*
X-52900Y43558D01*
X-54041Y43408D01*
X-55104Y42967D01*
X-56017Y42267D01*
X-56717Y41354D01*
X-56729Y41325D01*
X-57249Y41376D01*
X-58041Y45357D01*
X-58583Y49939D01*
X-58636Y51273D01*
X-58145Y51515D01*
X-57668Y51196D01*
X-56900Y51043D01*
X-56132Y51196D01*
X-55481Y51631D01*
X-55046Y52282D01*
X-54893Y53050D01*
X-55046Y53818D01*
X-55481Y54469D01*
X-56132Y54904D01*
X-56900Y55057D01*
X-57668Y54904D01*
X-58262Y54507D01*
X-58348Y54514D01*
X-58465Y54550D01*
X-58758Y54712D01*
X-58583Y59161D01*
X-58041Y63743D01*
X-57141Y68268D01*
X-55888Y72709D01*
X-54291Y77038D01*
X-53282Y79228D01*
X-52803Y79072D01*
X-52907Y78550D01*
X-52754Y77782D01*
X-52319Y77131D01*
X-51668Y76696D01*
X-50900Y76543D01*
X-50132Y76696D01*
X-49481Y77131D01*
X-49046Y77782D01*
X-48893Y78550D01*
X-49046Y79318D01*
X-49481Y79969D01*
X-50132Y80404D01*
X-50900Y80557D01*
X-51668Y80404D01*
X-52319Y79969D01*
X-52546Y79629D01*
X-52984Y79874D01*
X-52360Y81229D01*
X-50105Y85255D01*
X-47541Y89091D01*
X-44685Y92715D01*
X-41553Y96103D01*
X-38164Y99235D01*
X-35809Y101092D01*
X-35355Y100813D01*
X-35407Y100550D01*
X-35254Y99782D01*
X-34819Y99131D01*
X-34168Y98696D01*
X-33400Y98543D01*
X-32632Y98696D01*
X-31981Y99131D01*
X-31546Y99782D01*
X-31393Y100550D01*
X-31546Y101318D01*
X-31981Y101969D01*
X-32632Y102404D01*
X-33049Y102487D01*
X-33154Y103018D01*
X-30704Y104655D01*
X-26678Y106910D01*
X-22488Y108842D01*
X-19966Y109772D01*
X-19966D01*
Y109772D01*
X-19497Y109840D01*
X-19325Y109799D01*
X-19250Y109757D01*
X-19222Y109734D01*
X-18819Y109131D01*
X-18168Y108696D01*
X-17400Y108543D01*
X-16632Y108696D01*
X-15981Y109131D01*
X-15546Y109782D01*
X-15393Y110550D01*
X-15546Y111318D01*
X-15981Y111969D01*
X-16632Y112404D01*
X-17400Y112557D01*
X-18168Y112404D01*
X-18794Y111986D01*
X-18935Y112016D01*
X-19294Y112159D01*
Y121626D01*
X-19286Y121646D01*
X-18896Y122036D01*
X-18876Y122044D01*
X18976D01*
X18996Y122036D01*
D02*
G37*
%LPC*%
G36*
X13900Y118556D02*
X13247Y118426D01*
X12694Y118056D01*
X12324Y117503D01*
X12194Y116850D01*
X12324Y116197D01*
X12694Y115644D01*
X13247Y115274D01*
X13900Y115144D01*
X14553Y115274D01*
X15106Y115644D01*
X15476Y116197D01*
X15606Y116850D01*
X15476Y117503D01*
X15106Y118056D01*
X14553Y118426D01*
X13900Y118556D01*
D02*
G37*
G36*
X-14250D02*
X-14902Y118426D01*
X-15456Y118056D01*
X-15826Y117503D01*
X-15956Y116850D01*
X-15826Y116197D01*
X-15456Y115644D01*
X-14902Y115274D01*
X-14250Y115144D01*
X-13597Y115274D01*
X-13043Y115644D01*
X-12673Y116197D01*
X-12543Y116850D01*
X-12673Y117503D01*
X-13043Y118056D01*
X-13597Y118426D01*
X-14250Y118556D01*
D02*
G37*
G36*
X-8300Y105075D02*
Y103450D01*
X-6676D01*
X-6745Y103801D01*
X-7227Y104523D01*
X-7949Y105005D01*
X-8300Y105075D01*
D02*
G37*
G36*
X-9300D02*
X-9651Y105005D01*
X-10372Y104523D01*
X-10854Y103801D01*
X-10924Y103450D01*
X-9300D01*
Y105075D01*
D02*
G37*
G36*
X18100Y107866D02*
X17242Y107753D01*
X16442Y107422D01*
X15755Y106895D01*
X15228Y106208D01*
X14897Y105408D01*
X14784Y104550D01*
X14897Y103692D01*
X15228Y102892D01*
X15755Y102206D01*
X16442Y101679D01*
X17242Y101347D01*
X18100Y101234D01*
X18958Y101347D01*
X19758Y101679D01*
X20445Y102206D01*
X20972Y102892D01*
X21303Y103692D01*
X21416Y104550D01*
X21303Y105408D01*
X20972Y106208D01*
X20445Y106895D01*
X19758Y107422D01*
X18958Y107753D01*
X18100Y107866D01*
D02*
G37*
G36*
X-6676Y102450D02*
X-8300D01*
Y100826D01*
X-7949Y100896D01*
X-7227Y101378D01*
X-6745Y102099D01*
X-6676Y102450D01*
D02*
G37*
G36*
X-9300D02*
X-10924D01*
X-10854Y102099D01*
X-10372Y101378D01*
X-9651Y100896D01*
X-9300Y100826D01*
Y102450D01*
D02*
G37*
G36*
X-20500Y107366D02*
X-21358Y107253D01*
X-22158Y106922D01*
X-22844Y106395D01*
X-23371Y105708D01*
X-23703Y104908D01*
X-23816Y104050D01*
X-23703Y103192D01*
X-23371Y102392D01*
X-22844Y101706D01*
X-22158Y101179D01*
X-21358Y100847D01*
X-20500Y100734D01*
X-19642Y100847D01*
X-18842Y101179D01*
X-18155Y101706D01*
X-17628Y102392D01*
X-17297Y103192D01*
X-17184Y104050D01*
X-17297Y104908D01*
X-17628Y105708D01*
X-18155Y106395D01*
X-18842Y106922D01*
X-19642Y107253D01*
X-20500Y107366D01*
D02*
G37*
G36*
X33600Y101557D02*
X32832Y101404D01*
X32181Y100969D01*
X31746Y100318D01*
X31593Y99550D01*
X31746Y98782D01*
X32181Y98131D01*
X32832Y97696D01*
X33600Y97543D01*
X34368Y97696D01*
X35019Y98131D01*
X35454Y98782D01*
X35607Y99550D01*
X35454Y100318D01*
X35019Y100969D01*
X34368Y101404D01*
X33600Y101557D01*
D02*
G37*
G36*
X-30176Y97817D02*
X-30844Y97729D01*
X-31466Y97471D01*
X-32001Y97061D01*
X-32411Y96526D01*
X-32669Y95904D01*
X-32757Y95236D01*
X-32669Y94568D01*
X-32411Y93945D01*
X-32001Y93411D01*
X-31466Y93001D01*
X-30844Y92743D01*
X-30176Y92655D01*
X-29507Y92743D01*
X-28885Y93001D01*
X-28350Y93411D01*
X-27940Y93945D01*
X-27682Y94568D01*
X-27594Y95236D01*
X-27682Y95904D01*
X-27940Y96526D01*
X-28350Y97061D01*
X-28885Y97471D01*
X-29507Y97729D01*
X-30176Y97817D01*
D02*
G37*
G36*
X-39918Y90376D02*
X-40686Y90223D01*
X-41337Y89788D01*
X-41772Y89136D01*
X-41925Y88368D01*
X-41772Y87600D01*
X-41337Y86949D01*
X-40686Y86514D01*
X-39918Y86361D01*
X-39150Y86514D01*
X-38499Y86949D01*
X-38064Y87600D01*
X-37911Y88368D01*
X-38064Y89136D01*
X-38499Y89788D01*
X-39150Y90223D01*
X-39918Y90376D01*
D02*
G37*
G36*
X19700Y89857D02*
X18932Y89704D01*
X18281Y89269D01*
X17846Y88618D01*
X17693Y87850D01*
X17846Y87082D01*
X18281Y86431D01*
X18932Y85996D01*
X19700Y85843D01*
X20468Y85996D01*
X21119Y86431D01*
X21554Y87082D01*
X21707Y87850D01*
X21554Y88618D01*
X21119Y89269D01*
X20468Y89704D01*
X19700Y89857D01*
D02*
G37*
G36*
X-29675Y87461D02*
Y85836D01*
X-28051D01*
X-28121Y86187D01*
X-28603Y86909D01*
X-29324Y87391D01*
X-29675Y87461D01*
D02*
G37*
G36*
X-30676D02*
X-31027Y87391D01*
X-31748Y86909D01*
X-32230Y86187D01*
X-32300Y85836D01*
X-30676D01*
Y87461D01*
D02*
G37*
G36*
X-28051Y84836D02*
X-29675D01*
Y83212D01*
X-29324Y83282D01*
X-28603Y83764D01*
X-28121Y84485D01*
X-28051Y84836D01*
D02*
G37*
G36*
X-30676D02*
X-32300D01*
X-32230Y84485D01*
X-31748Y83764D01*
X-31027Y83282D01*
X-30676Y83212D01*
Y84836D01*
D02*
G37*
G36*
X-2900Y79774D02*
Y78150D01*
X-1276D01*
X-1345Y78501D01*
X-1827Y79223D01*
X-2549Y79705D01*
X-2900Y79774D01*
D02*
G37*
G36*
X-3900D02*
X-4251Y79705D01*
X-4972Y79223D01*
X-5455Y78501D01*
X-5524Y78150D01*
X-3900D01*
Y79774D01*
D02*
G37*
G36*
X-1276Y77150D02*
X-2900D01*
Y75526D01*
X-2549Y75596D01*
X-1827Y76078D01*
X-1345Y76799D01*
X-1276Y77150D01*
D02*
G37*
G36*
X-3900D02*
X-5524D01*
X-5455Y76799D01*
X-4972Y76078D01*
X-4251Y75596D01*
X-3900Y75526D01*
Y77150D01*
D02*
G37*
G36*
X24400Y74975D02*
Y73350D01*
X26024D01*
X25955Y73701D01*
X25473Y74423D01*
X24751Y74905D01*
X24400Y74975D01*
D02*
G37*
G36*
X23400D02*
X23049Y74905D01*
X22328Y74423D01*
X21846Y73701D01*
X21776Y73350D01*
X23400D01*
Y74975D01*
D02*
G37*
G36*
X52100Y77057D02*
X51332Y76904D01*
X50681Y76469D01*
X50246Y75818D01*
X50093Y75050D01*
X50246Y74282D01*
X50681Y73631D01*
X51332Y73196D01*
X52100Y73043D01*
X52868Y73196D01*
X53519Y73631D01*
X53954Y74282D01*
X54107Y75050D01*
X53954Y75818D01*
X53519Y76469D01*
X52868Y76904D01*
X52100Y77057D01*
D02*
G37*
G36*
X47400Y73774D02*
Y72150D01*
X49024D01*
X48955Y72501D01*
X48473Y73223D01*
X47751Y73705D01*
X47400Y73774D01*
D02*
G37*
G36*
X46400D02*
X46049Y73705D01*
X45328Y73223D01*
X44846Y72501D01*
X44776Y72150D01*
X46400D01*
Y73774D01*
D02*
G37*
G36*
X26024Y72350D02*
X24400D01*
Y70726D01*
X24751Y70796D01*
X25473Y71278D01*
X25955Y71999D01*
X26024Y72350D01*
D02*
G37*
G36*
X23400D02*
X21776D01*
X21846Y71999D01*
X22328Y71278D01*
X23049Y70796D01*
X23400Y70726D01*
Y72350D01*
D02*
G37*
G36*
X49024Y71150D02*
X47400D01*
Y69526D01*
X47751Y69596D01*
X48473Y70078D01*
X48955Y70799D01*
X49024Y71150D01*
D02*
G37*
G36*
X46400D02*
X44776D01*
X44846Y70799D01*
X45328Y70078D01*
X46049Y69596D01*
X46400Y69526D01*
Y71150D01*
D02*
G37*
G36*
X-30176Y71045D02*
X-30844Y70957D01*
X-31466Y70700D01*
X-32001Y70289D01*
X-32411Y69755D01*
X-32669Y69132D01*
X-32757Y68464D01*
X-32669Y67796D01*
X-32411Y67174D01*
X-32001Y66639D01*
X-31466Y66229D01*
X-30844Y65971D01*
X-30176Y65883D01*
X-29507Y65971D01*
X-28885Y66229D01*
X-28350Y66639D01*
X-27940Y67174D01*
X-27682Y67796D01*
X-27594Y68464D01*
X-27682Y69132D01*
X-27940Y69755D01*
X-28350Y70289D01*
X-28885Y70700D01*
X-29507Y70957D01*
X-30176Y71045D01*
D02*
G37*
G36*
X-3200Y69457D02*
X-3968Y69304D01*
X-4619Y68869D01*
X-5054Y68218D01*
X-5207Y67450D01*
X-5054Y66682D01*
X-4619Y66031D01*
X-3968Y65596D01*
X-3200Y65443D01*
X-2432Y65596D01*
X-1781Y66031D01*
X-1346Y66682D01*
X-1193Y67450D01*
X-1346Y68218D01*
X-1781Y68869D01*
X-2432Y69304D01*
X-3200Y69457D01*
D02*
G37*
G36*
X53600Y68557D02*
X52832Y68404D01*
X52181Y67969D01*
X51746Y67318D01*
X51593Y66550D01*
X51746Y65782D01*
X52181Y65131D01*
X52832Y64696D01*
X53600Y64543D01*
X54368Y64696D01*
X55019Y65131D01*
X55454Y65782D01*
X55607Y66550D01*
X55454Y67318D01*
X55019Y67969D01*
X54368Y68404D01*
X53600Y68557D01*
D02*
G37*
G36*
X4558Y65051D02*
X3789Y64898D01*
X3138Y64463D01*
X2703Y63812D01*
X2550Y63044D01*
X2703Y62276D01*
X3138Y61625D01*
X3789Y61190D01*
X4558Y61037D01*
X5325Y61190D01*
X5977Y61625D01*
X6412Y62276D01*
X6565Y63044D01*
X6412Y63812D01*
X5977Y64463D01*
X5325Y64898D01*
X4558Y65051D01*
D02*
G37*
G36*
X18551Y63857D02*
X17783Y63704D01*
X17132Y63269D01*
X16696Y62618D01*
X16544Y61850D01*
X16696Y61082D01*
X17132Y60431D01*
X17783Y59996D01*
X18551Y59843D01*
X19319Y59996D01*
X19970Y60431D01*
X20405Y61082D01*
X20558Y61850D01*
X20405Y62618D01*
X19970Y63269D01*
X19319Y63704D01*
X18551Y63857D01*
D02*
G37*
G36*
X-6007Y63439D02*
X-6775Y63286D01*
X-7426Y62851D01*
X-7861Y62200D01*
X-8014Y61432D01*
X-7861Y60664D01*
X-7426Y60013D01*
X-6775Y59578D01*
X-6007Y59425D01*
X-5239Y59578D01*
X-4588Y60013D01*
X-4153Y60664D01*
X-4000Y61432D01*
X-4153Y62200D01*
X-4588Y62851D01*
X-5239Y63286D01*
X-6007Y63439D01*
D02*
G37*
G36*
X-13553Y63376D02*
X-14322Y63224D01*
X-14973Y62789D01*
X-15408Y62138D01*
X-15561Y61369D01*
X-15408Y60601D01*
X-14973Y59950D01*
X-14322Y59515D01*
X-13553Y59362D01*
X-12785Y59515D01*
X-12134Y59950D01*
X-11699Y60601D01*
X-11546Y61369D01*
X-11699Y62138D01*
X-12134Y62789D01*
X-12785Y63224D01*
X-13553Y63376D01*
D02*
G37*
G36*
X20034Y59457D02*
X19266Y59304D01*
X18615Y58869D01*
X18180Y58218D01*
X18027Y57450D01*
X18180Y56682D01*
X18615Y56031D01*
X19266Y55596D01*
X20034Y55443D01*
X20802Y55596D01*
X21454Y56031D01*
X21889Y56682D01*
X22041Y57450D01*
X21889Y58218D01*
X21454Y58869D01*
X20802Y59304D01*
X20034Y59457D01*
D02*
G37*
G36*
X55100Y58057D02*
X54332Y57904D01*
X53681Y57469D01*
X53246Y56818D01*
X53093Y56050D01*
X53246Y55282D01*
X53681Y54631D01*
X54332Y54196D01*
X55100Y54043D01*
X55868Y54196D01*
X56519Y54631D01*
X56954Y55282D01*
X57107Y56050D01*
X56954Y56818D01*
X56519Y57469D01*
X55868Y57904D01*
X55100Y58057D01*
D02*
G37*
G36*
X-49127Y56314D02*
Y53350D01*
X-46162D01*
X-46217Y53764D01*
X-46569Y54615D01*
X-47131Y55346D01*
X-47862Y55907D01*
X-48713Y56260D01*
X-49127Y56314D01*
D02*
G37*
G36*
X-50127D02*
X-50540Y56260D01*
X-51392Y55907D01*
X-52123Y55346D01*
X-52684Y54615D01*
X-53037Y53764D01*
X-53091Y53350D01*
X-50127D01*
Y56314D01*
D02*
G37*
G36*
X-22100Y51474D02*
Y49850D01*
X-20476D01*
X-20545Y50201D01*
X-21027Y50923D01*
X-21749Y51405D01*
X-22100Y51474D01*
D02*
G37*
G36*
X-23100D02*
X-23451Y51405D01*
X-24172Y50923D01*
X-24655Y50201D01*
X-24724Y49850D01*
X-23100D01*
Y51474D01*
D02*
G37*
G36*
X25785Y53816D02*
X25017Y53663D01*
X24366Y53228D01*
X23931Y52577D01*
X23778Y51809D01*
X23931Y51041D01*
X24366Y50389D01*
X25017Y49954D01*
X25785Y49801D01*
X26553Y49954D01*
X27204Y50389D01*
X27640Y51041D01*
X27792Y51809D01*
X27640Y52577D01*
X27204Y53228D01*
X26553Y53663D01*
X25785Y53816D01*
D02*
G37*
G36*
X-46162Y52350D02*
X-49127D01*
Y49386D01*
X-48713Y49440D01*
X-47862Y49793D01*
X-47131Y50354D01*
X-46569Y51085D01*
X-46217Y51936D01*
X-46162Y52350D01*
D02*
G37*
G36*
X-50127D02*
X-53091D01*
X-53037Y51936D01*
X-52684Y51085D01*
X-52123Y50354D01*
X-51392Y49793D01*
X-50540Y49440D01*
X-50127Y49386D01*
Y52350D01*
D02*
G37*
G36*
X-11200Y52857D02*
X-11968Y52704D01*
X-12619Y52269D01*
X-13054Y51618D01*
X-13207Y50850D01*
X-13054Y50082D01*
X-12619Y49431D01*
X-11968Y48996D01*
X-11200Y48843D01*
X-10432Y48996D01*
X-9781Y49431D01*
X-9346Y50082D01*
X-9193Y50850D01*
X-9346Y51618D01*
X-9781Y52269D01*
X-10432Y52704D01*
X-11200Y52857D01*
D02*
G37*
G36*
X-20476Y48850D02*
X-24724D01*
X-24655Y48499D01*
X-24172Y47778D01*
X-23833Y47551D01*
Y46949D01*
X-24172Y46723D01*
X-24655Y46001D01*
X-24724Y45650D01*
X-20476D01*
X-20545Y46001D01*
X-21027Y46723D01*
X-21367Y46949D01*
Y47551D01*
X-21027Y47778D01*
X-20545Y48499D01*
X-20476Y48850D01*
D02*
G37*
G36*
X54600Y48057D02*
X53832Y47904D01*
X53181Y47469D01*
X52746Y46818D01*
X52593Y46050D01*
X52746Y45282D01*
X53181Y44631D01*
X53832Y44196D01*
X54600Y44043D01*
X55368Y44196D01*
X56019Y44631D01*
X56454Y45282D01*
X56607Y46050D01*
X56454Y46818D01*
X56019Y47469D01*
X55368Y47904D01*
X54600Y48057D01*
D02*
G37*
G36*
X-20476Y44650D02*
X-24724D01*
X-24655Y44299D01*
X-24172Y43578D01*
X-23871Y43376D01*
X-23871Y42775D01*
X-23998Y42691D01*
X-24433Y42039D01*
X-24586Y41271D01*
X-24433Y40503D01*
X-23998Y39852D01*
X-23347Y39417D01*
X-22579Y39264D01*
X-21811Y39417D01*
X-21159Y39852D01*
X-20724Y40503D01*
X-20572Y41271D01*
X-20724Y42039D01*
X-21159Y42691D01*
X-21307Y42789D01*
X-21307Y43391D01*
X-21027Y43578D01*
X-20545Y44299D01*
X-20476Y44650D01*
D02*
G37*
G36*
X24900Y38274D02*
Y36650D01*
X26524D01*
X26455Y37001D01*
X25973Y37723D01*
X25251Y38205D01*
X24900Y38274D01*
D02*
G37*
G36*
X23900D02*
X23549Y38205D01*
X22828Y37723D01*
X22345Y37001D01*
X22276Y36650D01*
X23900D01*
Y38274D01*
D02*
G37*
G36*
X26524Y35650D02*
X24900D01*
Y34026D01*
X25251Y34095D01*
X25973Y34578D01*
X26455Y35299D01*
X26524Y35650D01*
D02*
G37*
G36*
X23900D02*
X22276D01*
X22345Y35299D01*
X22828Y34578D01*
X23549Y34095D01*
X23900Y34026D01*
Y35650D01*
D02*
G37*
G36*
X-21800Y35657D02*
X-22568Y35504D01*
X-23219Y35069D01*
X-23654Y34418D01*
X-23807Y33650D01*
X-23654Y32882D01*
X-23219Y32231D01*
X-22568Y31796D01*
X-21800Y31643D01*
X-21032Y31796D01*
X-20381Y32231D01*
X-19946Y32882D01*
X-19793Y33650D01*
X-19946Y34418D01*
X-20381Y35069D01*
X-21032Y35504D01*
X-21800Y35657D01*
D02*
G37*
G36*
X-36499Y32036D02*
Y30412D01*
X-34875D01*
X-34944Y30763D01*
X-35427Y31484D01*
X-36148Y31966D01*
X-36499Y32036D01*
D02*
G37*
G36*
X-37499D02*
X-37850Y31966D01*
X-38572Y31484D01*
X-39054Y30763D01*
X-39123Y30412D01*
X-37499D01*
Y32036D01*
D02*
G37*
G36*
X-34875Y29412D02*
X-36499D01*
Y27787D01*
X-36148Y27857D01*
X-35427Y28339D01*
X-34944Y29061D01*
X-34875Y29412D01*
D02*
G37*
G36*
X-37499D02*
X-39123D01*
X-39054Y29061D01*
X-38572Y28339D01*
X-37850Y27857D01*
X-37499Y27787D01*
Y29412D01*
D02*
G37*
G36*
X-42100Y30957D02*
X-42868Y30804D01*
X-43519Y30369D01*
X-43954Y29718D01*
X-44107Y28950D01*
X-43954Y28182D01*
X-43519Y27531D01*
X-42868Y27096D01*
X-42100Y26943D01*
X-41332Y27096D01*
X-40681Y27531D01*
X-40246Y28182D01*
X-40093Y28950D01*
X-40246Y29718D01*
X-40681Y30369D01*
X-41332Y30804D01*
X-42100Y30957D01*
D02*
G37*
G36*
X46200Y27775D02*
Y26150D01*
X47824D01*
X47755Y26501D01*
X47273Y27223D01*
X46551Y27705D01*
X46200Y27775D01*
D02*
G37*
G36*
X45200D02*
X44849Y27705D01*
X44128Y27223D01*
X43646Y26501D01*
X43576Y26150D01*
X45200D01*
Y27775D01*
D02*
G37*
G36*
X-21200Y27375D02*
Y25750D01*
X-19576D01*
X-19645Y26101D01*
X-20127Y26823D01*
X-20849Y27305D01*
X-21200Y27375D01*
D02*
G37*
G36*
X-22200D02*
X-22551Y27305D01*
X-23272Y26823D01*
X-23754Y26101D01*
X-23824Y25750D01*
X-22200D01*
Y27375D01*
D02*
G37*
G36*
X47824Y25150D02*
X46200D01*
Y23526D01*
X46551Y23596D01*
X47273Y24078D01*
X47755Y24799D01*
X47824Y25150D01*
D02*
G37*
G36*
X45200D02*
X43576D01*
X43646Y24799D01*
X44128Y24078D01*
X44849Y23596D01*
X45200Y23526D01*
Y25150D01*
D02*
G37*
G36*
X-19576Y24750D02*
X-21200D01*
Y23126D01*
X-20849Y23196D01*
X-20127Y23678D01*
X-19645Y24399D01*
X-19576Y24750D01*
D02*
G37*
G36*
X-22200D02*
X-23824D01*
X-23754Y24399D01*
X-23272Y23678D01*
X-22551Y23196D01*
X-22200Y23126D01*
Y24750D01*
D02*
G37*
G36*
X7700Y23957D02*
X6932Y23804D01*
X6281Y23369D01*
X5846Y22718D01*
X5693Y21950D01*
X5846Y21182D01*
X6281Y20531D01*
X6932Y20096D01*
X7700Y19943D01*
X8468Y20096D01*
X9119Y20531D01*
X9554Y21182D01*
X9707Y21950D01*
X9554Y22718D01*
X9119Y23369D01*
X8468Y23804D01*
X7700Y23957D01*
D02*
G37*
G36*
X32100Y20975D02*
Y19350D01*
X33724D01*
X33655Y19701D01*
X33173Y20423D01*
X32451Y20905D01*
X32100Y20975D01*
D02*
G37*
G36*
X31100D02*
X30749Y20905D01*
X30028Y20423D01*
X29546Y19701D01*
X29476Y19350D01*
X31100D01*
Y20975D01*
D02*
G37*
G36*
X33724Y18350D02*
X32100D01*
Y16726D01*
X32451Y16796D01*
X33173Y17278D01*
X33655Y17999D01*
X33724Y18350D01*
D02*
G37*
G36*
X31100D02*
X29476D01*
X29546Y17999D01*
X30028Y17278D01*
X30749Y16796D01*
X31100Y16726D01*
Y18350D01*
D02*
G37*
G36*
X-39500Y20457D02*
X-40268Y20304D01*
X-40919Y19869D01*
X-41354Y19218D01*
X-41507Y18450D01*
X-41354Y17682D01*
X-40919Y17031D01*
X-40268Y16596D01*
X-39500Y16443D01*
X-38732Y16596D01*
X-38081Y17031D01*
X-37646Y17682D01*
X-37493Y18450D01*
X-37646Y19218D01*
X-38081Y19869D01*
X-38732Y20304D01*
X-39500Y20457D01*
D02*
G37*
G36*
X-10500Y20157D02*
X-11268Y20004D01*
X-11919Y19569D01*
X-12354Y18918D01*
X-12507Y18150D01*
X-12354Y17382D01*
X-11919Y16731D01*
X-11268Y16296D01*
X-10500Y16143D01*
X-9732Y16296D01*
X-9081Y16731D01*
X-8646Y17382D01*
X-8493Y18150D01*
X-8646Y18918D01*
X-9081Y19569D01*
X-9732Y20004D01*
X-10500Y20157D01*
D02*
G37*
G36*
X41600Y19057D02*
X40832Y18904D01*
X40181Y18469D01*
X39746Y17818D01*
X39593Y17050D01*
X39746Y16282D01*
X40181Y15631D01*
X40832Y15196D01*
X41600Y15043D01*
X42368Y15196D01*
X43019Y15631D01*
X43454Y16282D01*
X43607Y17050D01*
X43454Y17818D01*
X43019Y18469D01*
X42368Y18904D01*
X41600Y19057D01*
D02*
G37*
G36*
X-36100Y16966D02*
X-36958Y16853D01*
X-37758Y16522D01*
X-38445Y15995D01*
X-38971Y15308D01*
X-39303Y14508D01*
X-39416Y13650D01*
X-39303Y12792D01*
X-38971Y11992D01*
X-38445Y11305D01*
X-37758Y10779D01*
X-36958Y10447D01*
X-36100Y10334D01*
X-35242Y10447D01*
X-34442Y10779D01*
X-33755Y11305D01*
X-33228Y11992D01*
X-32897Y12792D01*
X-32784Y13650D01*
X-32897Y14508D01*
X-33228Y15308D01*
X-33755Y15995D01*
X-34442Y16522D01*
X-35242Y16853D01*
X-36100Y16966D01*
D02*
G37*
%LPD*%
D78*
X46900Y71650D02*
D03*
X-3400Y77650D02*
D03*
X-8800Y102950D02*
D03*
X-30176Y85336D02*
D03*
X-36999Y29912D02*
D03*
X-22600Y49350D02*
D03*
Y45150D02*
D03*
X45700Y25650D02*
D03*
X-21700Y25250D02*
D03*
X23900Y72850D02*
D03*
X24400Y36150D02*
D03*
X31600Y18850D02*
D03*
D79*
X-49627Y52850D02*
D03*
M02*
