G04*
G04 #@! TF.GenerationSoftware,Altium Limited,Altium Designer,20.2.6 (244)*
G04*
G04 Layer_Physical_Order=4*
G04 Layer_Color=16711680*
%FSLAX25Y25*%
%MOIN*%
G70*
G04*
G04 #@! TF.SameCoordinates,8D702C91-D224-4EEC-953A-651AC819B964*
G04*
G04*
G04 #@! TF.FilePolarity,Positive*
G04*
G01*
G75*
%ADD11C,0.00787*%
%ADD28R,0.03591X0.03772*%
%ADD33R,0.02362X0.03150*%
%ADD40R,0.04134X0.03543*%
%ADD62C,0.03543*%
%ADD64C,0.00600*%
%ADD65C,0.00781*%
%ADD67C,0.06000*%
%ADD71C,0.01772*%
%ADD73C,0.01181*%
%ADD75C,0.01000*%
%ADD76C,0.07165*%
%ADD77C,0.01772*%
%ADD78C,0.02362*%
%ADD79C,0.05000*%
%ADD80R,0.03150X0.03150*%
%ADD81R,0.03543X0.04134*%
%ADD82R,0.03150X0.03543*%
G04:AMPARAMS|DCode=83|XSize=64.96mil|YSize=22.84mil|CornerRadius=2.85mil|HoleSize=0mil|Usage=FLASHONLY|Rotation=0.000|XOffset=0mil|YOffset=0mil|HoleType=Round|Shape=RoundedRectangle|*
%AMROUNDEDRECTD83*
21,1,0.06496,0.01713,0,0,0.0*
21,1,0.05925,0.02284,0,0,0.0*
1,1,0.00571,0.02963,-0.00856*
1,1,0.00571,-0.02963,-0.00856*
1,1,0.00571,-0.02963,0.00856*
1,1,0.00571,0.02963,0.00856*
%
%ADD83ROUNDEDRECTD83*%
%ADD84R,0.04758X0.03985*%
G04:AMPARAMS|DCode=85|XSize=14.17mil|YSize=43.31mil|CornerRadius=0.64mil|HoleSize=0mil|Usage=FLASHONLY|Rotation=90.000|XOffset=0mil|YOffset=0mil|HoleType=Round|Shape=RoundedRectangle|*
%AMROUNDEDRECTD85*
21,1,0.01417,0.04203,0,0,90.0*
21,1,0.01290,0.04331,0,0,90.0*
1,1,0.00128,0.02102,0.00645*
1,1,0.00128,0.02102,-0.00645*
1,1,0.00128,-0.02102,-0.00645*
1,1,0.00128,-0.02102,0.00645*
%
%ADD85ROUNDEDRECTD85*%
G04:AMPARAMS|DCode=86|XSize=14.17mil|YSize=43.31mil|CornerRadius=0.64mil|HoleSize=0mil|Usage=FLASHONLY|Rotation=0.000|XOffset=0mil|YOffset=0mil|HoleType=Round|Shape=RoundedRectangle|*
%AMROUNDEDRECTD86*
21,1,0.01417,0.04203,0,0,0.0*
21,1,0.01290,0.04331,0,0,0.0*
1,1,0.00128,0.00645,-0.02102*
1,1,0.00128,-0.00645,-0.02102*
1,1,0.00128,-0.00645,0.02102*
1,1,0.00128,0.00645,0.02102*
%
%ADD86ROUNDEDRECTD86*%
%ADD87R,0.04134X0.03740*%
G36*
X19092Y122356D02*
X19107Y122349D01*
X19303Y122218D01*
X19444Y122123D01*
X19694Y121767D01*
X19694Y121766D01*
X19784Y121303D01*
X19784Y110853D01*
X19846Y110542D01*
X20022Y110278D01*
X20286Y110102D01*
X20308Y110063D01*
X20306Y110058D01*
X22637Y109198D01*
X26854Y107254D01*
X30907Y104984D01*
X34768Y102404D01*
X38416Y99529D01*
X41826Y96376D01*
X44979Y92965D01*
X47854Y89318D01*
X50434Y85456D01*
X52704Y81404D01*
X54648Y77186D01*
X56256Y72829D01*
X57516Y68359D01*
X58422Y63804D01*
X58968Y59192D01*
X59131Y55050D01*
X59068Y54550D01*
X59068Y54549D01*
X59131Y54049D01*
X58968Y49909D01*
X58422Y45297D01*
X57516Y40742D01*
X56256Y36272D01*
X54648Y31914D01*
X52704Y27696D01*
X50434Y23644D01*
X47854Y19782D01*
X44979Y16135D01*
X41826Y12725D01*
X41542Y12462D01*
X38905Y10074D01*
X35719Y7560D01*
X32369Y5269D01*
X28871Y3211D01*
X27057Y2303D01*
X16782Y2350D01*
X16600Y2774D01*
X16600Y2851D01*
Y14979D01*
X-15000D01*
Y2994D01*
X-15384Y2495D01*
X-27500Y2550D01*
X-29401Y3539D01*
X-33052Y5784D01*
X-36532Y8287D01*
X-39822Y11035D01*
X-42905Y14013D01*
X-45765Y17205D01*
X-48388Y20595D01*
X-50545Y23841D01*
X-52704Y27696D01*
X-54648Y31914D01*
X-55778Y34977D01*
X-55375Y35273D01*
X-55211Y35147D01*
X-54096Y34685D01*
X-53400Y34594D01*
Y39150D01*
Y43707D01*
X-54096Y43615D01*
X-55211Y43153D01*
X-56168Y42419D01*
X-56903Y41461D01*
X-57070Y41059D01*
X-57590Y41110D01*
X-58422Y45297D01*
X-58968Y49909D01*
X-59027Y51408D01*
X-58533Y51568D01*
X-58472Y51478D01*
X-57751Y50995D01*
X-57400Y50926D01*
Y53050D01*
Y55174D01*
X-57751Y55105D01*
X-58472Y54623D01*
X-58643Y54367D01*
X-59149Y54510D01*
X-59151Y54550D01*
X-58968Y59191D01*
X-58422Y63803D01*
X-57516Y68358D01*
X-56256Y72829D01*
X-54648Y77186D01*
X-52704Y81404D01*
X-50434Y85456D01*
X-47854Y89318D01*
X-44978Y92965D01*
X-41826Y96376D01*
X-38415Y99528D01*
X-35950Y101472D01*
X-35496Y101193D01*
X-35524Y101050D01*
X-31276D01*
X-31345Y101401D01*
X-31827Y102123D01*
X-32549Y102605D01*
X-33334Y102761D01*
X-33432Y102963D01*
X-33484Y103262D01*
X-30906Y104984D01*
X-26854Y107254D01*
X-22636Y109198D01*
X-20207Y110094D01*
X-20207Y110094D01*
Y110094D01*
X-19743Y110130D01*
X-19614Y110095D01*
X-19520Y110028D01*
X-19455Y109699D01*
X-18972Y108978D01*
X-18251Y108496D01*
X-17797Y108405D01*
X-17692Y107875D01*
X-17771Y107821D01*
X-18745Y106847D01*
X-18842Y106922D01*
X-19642Y107253D01*
X-20500Y107366D01*
X-21358Y107253D01*
X-22158Y106922D01*
X-22844Y106395D01*
X-23371Y105708D01*
X-23703Y104908D01*
X-23816Y104050D01*
X-23703Y103192D01*
X-23371Y102392D01*
X-22844Y101706D01*
X-22158Y101179D01*
X-21358Y100847D01*
X-20500Y100734D01*
X-19642Y100847D01*
X-18842Y101179D01*
X-18155Y101706D01*
X-17628Y102392D01*
X-17297Y103192D01*
X-17184Y104050D01*
X-17193Y104115D01*
X-16072Y105235D01*
X-9770D01*
X-9672Y104735D01*
X-10219Y104369D01*
X-10654Y103718D01*
X-10807Y102950D01*
X-10654Y102182D01*
X-10219Y101531D01*
X-9568Y101096D01*
X-8800Y100943D01*
X-8032Y101096D01*
X-7381Y101531D01*
X-7109Y101937D01*
X-1713D01*
Y100096D01*
X-399D01*
X-28Y99596D01*
X-31Y99582D01*
Y99068D01*
X-31237D01*
X-31473Y99509D01*
X-31345Y99699D01*
X-31276Y100050D01*
X-35524D01*
X-35454Y99699D01*
X-34972Y98978D01*
X-34606Y98733D01*
X-34557Y98235D01*
X-48849Y83944D01*
X-49048Y83646D01*
X-49118Y83295D01*
Y80584D01*
X-49618Y80316D01*
X-50049Y80605D01*
X-50400Y80674D01*
Y78550D01*
Y76426D01*
X-50049Y76496D01*
X-49618Y76784D01*
X-49118Y76516D01*
Y68330D01*
X-49048Y67979D01*
X-48849Y67681D01*
X-47071Y65903D01*
Y64394D01*
X-46987Y63975D01*
X-46750Y63620D01*
X-46594Y63516D01*
Y62634D01*
X-53863Y55365D01*
X-54062Y55067D01*
X-54132Y54716D01*
Y48273D01*
X-54103Y48131D01*
X-54086Y47987D01*
X-54069Y47957D01*
X-54062Y47922D01*
X-53981Y47802D01*
X-53910Y47675D01*
X-50438Y43632D01*
X-50739Y43215D01*
X-51704Y43615D01*
X-52400Y43707D01*
Y39150D01*
Y34594D01*
X-51704Y34685D01*
X-50589Y35147D01*
X-49632Y35882D01*
X-48897Y36839D01*
X-48552Y37672D01*
X-48090Y37489D01*
X-48220Y36500D01*
X-48090Y35511D01*
X-47708Y34590D01*
X-47101Y33799D01*
X-46310Y33192D01*
X-45389Y32810D01*
X-44400Y32680D01*
X-43411Y32810D01*
X-42490Y33192D01*
X-41699Y33799D01*
X-41092Y34590D01*
X-40710Y35511D01*
X-40580Y36500D01*
X-40710Y37489D01*
X-41092Y38410D01*
X-41699Y39201D01*
X-42490Y39808D01*
X-43411Y40190D01*
X-44400Y40320D01*
X-45096Y40228D01*
X-52297Y48613D01*
Y50145D01*
X-51797Y50371D01*
X-51285Y49979D01*
X-50485Y49647D01*
X-49627Y49534D01*
X-48768Y49647D01*
X-47969Y49979D01*
X-47282Y50506D01*
X-46755Y51192D01*
X-46424Y51992D01*
X-46311Y52850D01*
X-46424Y53708D01*
X-46557Y54030D01*
X-46540Y54057D01*
X-46161Y54380D01*
X-45389Y54060D01*
X-44400Y53930D01*
X-43411Y54060D01*
X-42490Y54442D01*
X-41699Y55049D01*
X-41092Y55840D01*
X-40710Y56761D01*
X-40580Y57750D01*
X-40710Y58739D01*
X-41092Y59660D01*
X-41135Y59717D01*
X-37651Y63201D01*
X-37452Y63499D01*
X-37382Y63850D01*
Y67642D01*
X-37452Y67993D01*
X-37651Y68291D01*
X-38230Y68871D01*
X-38039Y69332D01*
X-33300D01*
X-33112Y69370D01*
X-32965Y69291D01*
X-32758Y69096D01*
X-32688Y68983D01*
X-32757Y68464D01*
X-32669Y67796D01*
X-32411Y67174D01*
X-32001Y66639D01*
X-31466Y66229D01*
X-30844Y65971D01*
X-30176Y65883D01*
X-29507Y65971D01*
X-28885Y66229D01*
X-28350Y66639D01*
X-28118Y66943D01*
X-27618Y66773D01*
Y66124D01*
X-42150Y49775D01*
X-42390Y49958D01*
X-43311Y50340D01*
X-44300Y50470D01*
X-45289Y50340D01*
X-46210Y49958D01*
X-47001Y49351D01*
X-47608Y48560D01*
X-47990Y47639D01*
X-48120Y46650D01*
X-47990Y45661D01*
X-47608Y44740D01*
X-47001Y43949D01*
X-46210Y43342D01*
X-45289Y42960D01*
X-44300Y42830D01*
X-43311Y42960D01*
X-42390Y43342D01*
X-41599Y43949D01*
X-40992Y44740D01*
X-40610Y45661D01*
X-40480Y46650D01*
X-40610Y47639D01*
X-40923Y48393D01*
X-26697Y64397D01*
X-26230Y64219D01*
Y61255D01*
X-34157Y53328D01*
X-34710Y53099D01*
X-35501Y52491D01*
X-36108Y51700D01*
X-36490Y50779D01*
X-36620Y49790D01*
X-36490Y48802D01*
X-36108Y47880D01*
X-35501Y47089D01*
X-34710Y46482D01*
X-33789Y46100D01*
X-32800Y45970D01*
X-31811Y46100D01*
X-30890Y46482D01*
X-30099Y47089D01*
X-29492Y47880D01*
X-29110Y48802D01*
X-28980Y49790D01*
X-29110Y50779D01*
X-29492Y51700D01*
X-30099Y52491D01*
X-30890Y53099D01*
X-31111Y53190D01*
X-31209Y53681D01*
X-26889Y58000D01*
X-26769Y57950D01*
X-24353D01*
Y60606D01*
X-24425Y60722D01*
X-24395Y60874D01*
Y64957D01*
X-19304Y70048D01*
X-18842Y69857D01*
Y69394D01*
X-18759Y68975D01*
X-18522Y68620D01*
X-18167Y68383D01*
X-17748Y68300D01*
X-15907D01*
Y67200D01*
X-17748D01*
X-18167Y67117D01*
X-18522Y66880D01*
X-18759Y66525D01*
X-18842Y66106D01*
Y64394D01*
X-18759Y63975D01*
X-18522Y63620D01*
X-18462Y63580D01*
Y62428D01*
X-18567Y62323D01*
X-18787Y61994D01*
X-18864Y61607D01*
Y60009D01*
X-20309D01*
Y54891D01*
X-19036D01*
X-18992Y54391D01*
X-22121Y51262D01*
X-22600Y51357D01*
X-23368Y51204D01*
X-24019Y50769D01*
X-24454Y50118D01*
X-24607Y49350D01*
X-24512Y48871D01*
X-30516Y42867D01*
X-30611Y42726D01*
X-30713Y42590D01*
X-31912Y40103D01*
X-32800Y40220D01*
X-33789Y40090D01*
X-34710Y39708D01*
X-35501Y39101D01*
X-36108Y38310D01*
X-36490Y37389D01*
X-36620Y36400D01*
X-36490Y35411D01*
X-36108Y34490D01*
X-35501Y33699D01*
X-34710Y33092D01*
X-33789Y32710D01*
X-32800Y32580D01*
X-31811Y32710D01*
X-30890Y33092D01*
X-30099Y33699D01*
X-29492Y34490D01*
X-29110Y35411D01*
X-28980Y36400D01*
X-29110Y37389D01*
X-29492Y38310D01*
X-30099Y39101D01*
X-30133Y39127D01*
X-28962Y41555D01*
X-25055Y45463D01*
X-24594Y45216D01*
X-24607Y45150D01*
X-24454Y44382D01*
X-24019Y43731D01*
X-23680Y43504D01*
Y42903D01*
X-23998Y42691D01*
X-24433Y42039D01*
X-24586Y41271D01*
X-24433Y40503D01*
X-23998Y39852D01*
X-23347Y39417D01*
X-22579Y39264D01*
X-21811Y39417D01*
X-21303Y39756D01*
X-20779D01*
X-20199Y39872D01*
X-19707Y40200D01*
X-11031Y48877D01*
X-10432Y48996D01*
X-9781Y49431D01*
X-9346Y50082D01*
X-9193Y50850D01*
X-9346Y51618D01*
X-9781Y52269D01*
X-10181Y52537D01*
X-10030Y53037D01*
X-8323D01*
Y50270D01*
X-2222D01*
Y50058D01*
X657D01*
Y53050D01*
X1157D01*
Y53550D01*
X4536D01*
Y56042D01*
X3390D01*
X3198Y56504D01*
X4787Y58094D01*
X6274D01*
X6465Y57632D01*
X6242Y57408D01*
X5979Y57015D01*
X5886Y56550D01*
X5886Y56550D01*
Y40312D01*
X4638D01*
Y35588D01*
X9362D01*
Y40312D01*
X8314D01*
Y56047D01*
X15234Y62967D01*
X15234Y62967D01*
X15497Y63361D01*
X15589Y63826D01*
X15589Y63826D01*
Y64127D01*
X15833Y64526D01*
X18400D01*
Y67396D01*
X19400D01*
Y64526D01*
X19925D01*
X20116Y64064D01*
X19581Y63529D01*
X19319Y63704D01*
X18551Y63857D01*
X17783Y63704D01*
X17132Y63269D01*
X16696Y62618D01*
X16544Y61850D01*
X16696Y61082D01*
X17132Y60431D01*
X17783Y59996D01*
X18551Y59843D01*
X19319Y59996D01*
X19970Y60431D01*
X20405Y61082D01*
X20558Y61850D01*
X20548Y61900D01*
X27135Y68487D01*
X27334Y68785D01*
X27382Y69029D01*
X27882Y68980D01*
Y66530D01*
X20681Y59329D01*
X20034Y59457D01*
X19266Y59304D01*
X18615Y58869D01*
X18180Y58218D01*
X18027Y57450D01*
X18180Y56682D01*
X18615Y56031D01*
X19266Y55596D01*
X20034Y55443D01*
X20802Y55596D01*
X21454Y56031D01*
X21889Y56682D01*
X22041Y57450D01*
X21935Y57987D01*
X29449Y65501D01*
X29648Y65799D01*
X29718Y66150D01*
Y79114D01*
X34883D01*
Y80043D01*
X35345Y80235D01*
X44646Y70934D01*
X44974Y70714D01*
X45186Y70672D01*
X45481Y70231D01*
X46132Y69796D01*
X46900Y69643D01*
X47668Y69796D01*
X48319Y70231D01*
X48754Y70882D01*
X48907Y71650D01*
X48754Y72418D01*
X48319Y73069D01*
X47668Y73504D01*
X46900Y73657D01*
X46132Y73504D01*
X45481Y73069D01*
X45385Y73060D01*
X34883Y83562D01*
Y84461D01*
X34883Y84461D01*
Y84839D01*
X34883D01*
X34883Y84961D01*
Y90186D01*
X31015D01*
X27184Y94017D01*
X26886Y94216D01*
X26535Y94286D01*
X18354D01*
X18342Y94345D01*
X18154Y94627D01*
X17872Y94815D01*
X17540Y94881D01*
X13610D01*
X13242Y95309D01*
X13229Y95369D01*
X13231Y95379D01*
Y99582D01*
X13165Y99914D01*
X12977Y100196D01*
X12695Y100384D01*
X12363Y100450D01*
X11073D01*
X10741Y100384D01*
X10460Y100196D01*
X10418D01*
X10136Y100384D01*
X9804Y100450D01*
X9114D01*
Y105235D01*
X14495D01*
X14825Y104859D01*
X14784Y104550D01*
X14897Y103692D01*
X15228Y102892D01*
X15755Y102206D01*
X16442Y101679D01*
X17242Y101347D01*
X18100Y101234D01*
X18958Y101347D01*
X19758Y101679D01*
X20445Y102206D01*
X20972Y102892D01*
X21303Y103692D01*
X21416Y104550D01*
X21303Y105408D01*
X20972Y106208D01*
X20445Y106895D01*
X19758Y107422D01*
X18958Y107753D01*
X18261Y107845D01*
X18083Y108028D01*
X18067Y108082D01*
X18117Y108607D01*
X18673Y108978D01*
X19155Y109699D01*
X19224Y110050D01*
X14976D01*
X15045Y109699D01*
X15528Y108978D01*
X15846Y108765D01*
X15694Y108265D01*
X-15994D01*
X-16146Y108765D01*
X-15827Y108978D01*
X-15345Y109699D01*
X-15276Y110050D01*
X-17400D01*
Y110550D01*
X-17900D01*
Y112674D01*
X-18251Y112605D01*
X-18972Y112123D01*
X-19184Y111805D01*
X-19684Y111957D01*
Y121281D01*
X-19614Y121754D01*
X-19599Y121760D01*
X-19598Y121763D01*
X-19596Y121764D01*
X-19594Y121769D01*
X-19363Y122105D01*
X-19020Y122342D01*
X-19015Y122345D01*
X-19014Y122345D01*
X-19002Y122351D01*
X-18561Y122434D01*
X19016D01*
X19092Y122356D01*
D02*
G37*
G36*
X-31Y95379D02*
X-29Y95369D01*
X-42Y95309D01*
X-409Y94881D01*
X-4340D01*
X-4672Y94815D01*
X-4954Y94627D01*
X-5142Y94345D01*
X-5154Y94286D01*
X-10182D01*
X-10533Y94216D01*
X-10831Y94017D01*
X-33680Y71168D01*
X-38970D01*
X-39041Y71525D01*
X-39278Y71880D01*
X-39633Y72117D01*
X-40051Y72200D01*
X-45977D01*
X-46395Y72117D01*
X-46750Y71880D01*
X-46782Y71832D01*
X-47282Y71983D01*
Y73517D01*
X-46782Y73668D01*
X-46750Y73620D01*
X-46395Y73383D01*
X-45977Y73300D01*
X-40051D01*
X-39633Y73383D01*
X-39278Y73620D01*
X-39041Y73975D01*
X-38958Y74394D01*
Y75614D01*
X-31031Y83540D01*
X-30944Y83482D01*
X-30176Y83329D01*
X-29408Y83482D01*
X-28756Y83917D01*
X-28321Y84568D01*
X-28168Y85336D01*
X-28321Y86104D01*
X-28756Y86755D01*
X-29408Y87190D01*
X-30176Y87343D01*
X-30944Y87190D01*
X-31595Y86755D01*
X-32030Y86104D01*
X-32127Y85617D01*
X-38241Y79503D01*
X-38741Y79710D01*
Y79750D01*
X-43014D01*
Y80750D01*
X-38741D01*
Y81106D01*
X-38841Y81608D01*
X-39125Y82033D01*
X-39550Y82317D01*
X-40051Y82417D01*
X-42001D01*
Y84853D01*
X-40578Y86276D01*
X-40418Y86244D01*
Y88368D01*
X-39918D01*
Y88868D01*
X-37794D01*
X-37864Y89219D01*
X-38346Y89941D01*
X-39067Y90423D01*
X-39137Y90437D01*
X-39282Y90915D01*
X-32965Y97233D01*
X-32499D01*
X-32253Y96732D01*
X-32411Y96526D01*
X-32669Y95904D01*
X-32757Y95236D01*
X-32669Y94568D01*
X-32411Y93945D01*
X-32001Y93411D01*
X-31466Y93001D01*
X-30844Y92743D01*
X-30176Y92655D01*
X-29507Y92743D01*
X-28885Y93001D01*
X-28350Y93411D01*
X-27940Y93945D01*
X-27682Y94568D01*
X-27594Y95236D01*
X-27682Y95904D01*
X-27940Y96526D01*
X-28098Y96732D01*
X-27852Y97233D01*
X-31D01*
Y95379D01*
D02*
G37*
%LPC*%
G36*
X13921Y121294D02*
X13900Y121291D01*
X13879Y121294D01*
X13771Y121292D01*
X13750Y121287D01*
X13729Y121289D01*
X13621Y121281D01*
X13600Y121275D01*
X13579Y121276D01*
X13472Y121262D01*
X13452Y121256D01*
X13430Y121256D01*
X13324Y121236D01*
X13304Y121228D01*
X13283Y121227D01*
X13178Y121202D01*
X13158Y121193D01*
X13137Y121191D01*
X13033Y121160D01*
X13014Y121151D01*
X12993Y121148D01*
X12891Y121111D01*
X12873Y121100D01*
X12852Y121096D01*
X12752Y121055D01*
X12734Y121043D01*
X12714Y121038D01*
X12616Y120991D01*
X12599Y120978D01*
X12579Y120972D01*
X12484Y120921D01*
X12467Y120907D01*
X12447Y120899D01*
X12355Y120843D01*
X12339Y120828D01*
X12320Y120820D01*
X12230Y120759D01*
X12216Y120744D01*
X12196Y120734D01*
X12111Y120668D01*
X12096Y120652D01*
X12078Y120642D01*
X11996Y120571D01*
X11982Y120555D01*
X11964Y120543D01*
X11886Y120469D01*
X11874Y120451D01*
X11856Y120439D01*
X11782Y120361D01*
X11770Y120343D01*
X11754Y120329D01*
X11683Y120247D01*
X11673Y120228D01*
X11657Y120214D01*
X11591Y120129D01*
X11581Y120109D01*
X11566Y120095D01*
X11505Y120005D01*
X11497Y119986D01*
X11482Y119970D01*
X11426Y119878D01*
X11418Y119858D01*
X11405Y119841D01*
X11353Y119746D01*
X11347Y119726D01*
X11334Y119709D01*
X11287Y119611D01*
X11282Y119591D01*
X11270Y119573D01*
X11229Y119473D01*
X11225Y119452D01*
X11214Y119434D01*
X11178Y119332D01*
X11174Y119310D01*
X11164Y119292D01*
X11134Y119188D01*
X11132Y119167D01*
X11123Y119147D01*
X11098Y119042D01*
X11097Y119021D01*
X11089Y119001D01*
X11069Y118895D01*
X11069Y118873D01*
X11063Y118853D01*
X11049Y118746D01*
X11050Y118725D01*
X11044Y118704D01*
X11036Y118596D01*
X11038Y118575D01*
X11033Y118554D01*
X11031Y118446D01*
X11032Y118435D01*
X11030Y118425D01*
Y115275D01*
X11032Y115265D01*
X11031Y115254D01*
X11033Y115146D01*
X11038Y115125D01*
X11036Y115104D01*
X11044Y114996D01*
X11050Y114976D01*
X11049Y114954D01*
X11063Y114847D01*
X11069Y114827D01*
X11069Y114806D01*
X11089Y114699D01*
X11097Y114679D01*
X11098Y114658D01*
X11123Y114553D01*
X11132Y114533D01*
X11134Y114512D01*
X11164Y114409D01*
X11174Y114390D01*
X11178Y114369D01*
X11214Y114267D01*
X11225Y114248D01*
X11229Y114227D01*
X11270Y114127D01*
X11282Y114110D01*
X11287Y114089D01*
X11334Y113991D01*
X11347Y113974D01*
X11353Y113954D01*
X11405Y113859D01*
X11418Y113842D01*
X11426Y113822D01*
X11482Y113730D01*
X11497Y113714D01*
X11505Y113695D01*
X11566Y113606D01*
X11581Y113591D01*
X11591Y113572D01*
X11657Y113486D01*
X11673Y113472D01*
X11683Y113453D01*
X11754Y113371D01*
X11770Y113358D01*
X11782Y113340D01*
X11856Y113261D01*
X11874Y113249D01*
X11886Y113231D01*
X11964Y113157D01*
X11982Y113145D01*
X11996Y113129D01*
X12078Y113058D01*
X12096Y113048D01*
X12111Y113032D01*
X12196Y112966D01*
X12216Y112957D01*
X12230Y112942D01*
X12320Y112880D01*
X12339Y112872D01*
X12355Y112857D01*
X12447Y112801D01*
X12467Y112793D01*
X12484Y112780D01*
X12579Y112728D01*
X12599Y112722D01*
X12616Y112709D01*
X12714Y112662D01*
X12734Y112657D01*
X12752Y112645D01*
X12852Y112604D01*
X12873Y112600D01*
X12891Y112589D01*
X12993Y112553D01*
X13014Y112550D01*
X13033Y112540D01*
X13137Y112509D01*
X13158Y112507D01*
X13178Y112498D01*
X13283Y112473D01*
X13304Y112472D01*
X13324Y112464D01*
X13430Y112444D01*
X13452Y112445D01*
X13472Y112438D01*
X13579Y112424D01*
X13600Y112425D01*
X13621Y112419D01*
X13729Y112411D01*
X13750Y112413D01*
X13771Y112409D01*
X13879Y112406D01*
X13900Y112409D01*
X13921Y112406D01*
X14029Y112409D01*
X14050Y112413D01*
X14071Y112411D01*
X14179Y112419D01*
X14200Y112425D01*
X14221Y112424D01*
X14328Y112438D01*
X14348Y112445D01*
X14370Y112444D01*
X14476Y112464D01*
X14496Y112472D01*
X14517Y112473D01*
X14622Y112498D01*
X14642Y112507D01*
X14663Y112509D01*
X14767Y112540D01*
X14786Y112550D01*
X14807Y112553D01*
X14909Y112589D01*
X14927Y112600D01*
X14948Y112604D01*
X15048Y112645D01*
X15066Y112657D01*
X15086Y112662D01*
X15184Y112709D01*
X15201Y112722D01*
X15222Y112728D01*
X15317Y112780D01*
X15333Y112793D01*
X15353Y112801D01*
X15445Y112857D01*
X15461Y112872D01*
X15481Y112880D01*
X15570Y112942D01*
X15585Y112957D01*
X15604Y112966D01*
X15689Y113032D01*
X15704Y113048D01*
X15722Y113058D01*
X15804Y113129D01*
X15818Y113146D01*
X15836Y113157D01*
X15914Y113231D01*
X15927Y113249D01*
X15944Y113261D01*
X16018Y113340D01*
X16030Y113358D01*
X16047Y113371D01*
X16117Y113453D01*
X16127Y113472D01*
X16143Y113486D01*
X16209Y113572D01*
X16219Y113591D01*
X16234Y113606D01*
X16295Y113695D01*
X16304Y113714D01*
X16318Y113730D01*
X16375Y113822D01*
X16382Y113842D01*
X16396Y113859D01*
X16447Y113954D01*
X16454Y113974D01*
X16466Y113991D01*
X16513Y114089D01*
X16518Y114110D01*
X16530Y114127D01*
X16571Y114227D01*
X16576Y114248D01*
X16587Y114267D01*
X16623Y114369D01*
X16626Y114390D01*
X16636Y114409D01*
X16666Y114512D01*
X16668Y114534D01*
X16677Y114553D01*
X16702Y114658D01*
X16703Y114679D01*
X16711Y114699D01*
X16731Y114806D01*
X16731Y114827D01*
X16737Y114847D01*
X16752Y114954D01*
X16750Y114976D01*
X16756Y114996D01*
X16765Y115104D01*
X16762Y115125D01*
X16767Y115146D01*
X16770Y115254D01*
X16768Y115265D01*
X16770Y115275D01*
Y118425D01*
X16768Y118435D01*
X16770Y118446D01*
X16767Y118554D01*
X16762Y118575D01*
X16765Y118596D01*
X16756Y118704D01*
X16750Y118725D01*
X16752Y118746D01*
X16737Y118853D01*
X16731Y118873D01*
X16731Y118895D01*
X16711Y119001D01*
X16703Y119021D01*
X16702Y119042D01*
X16677Y119147D01*
X16668Y119167D01*
X16666Y119188D01*
X16636Y119292D01*
X16626Y119310D01*
X16623Y119332D01*
X16587Y119434D01*
X16576Y119452D01*
X16571Y119473D01*
X16530Y119573D01*
X16518Y119591D01*
X16513Y119611D01*
X16466Y119709D01*
X16454Y119726D01*
X16447Y119746D01*
X16396Y119841D01*
X16382Y119858D01*
X16375Y119878D01*
X16318Y119970D01*
X16304Y119986D01*
X16295Y120005D01*
X16234Y120095D01*
X16219Y120109D01*
X16209Y120129D01*
X16143Y120214D01*
X16127Y120228D01*
X16117Y120247D01*
X16047Y120329D01*
X16030Y120343D01*
X16018Y120361D01*
X15944Y120439D01*
X15927Y120451D01*
X15914Y120469D01*
X15836Y120543D01*
X15818Y120555D01*
X15804Y120571D01*
X15722Y120642D01*
X15704Y120652D01*
X15689Y120668D01*
X15604Y120734D01*
X15585Y120744D01*
X15570Y120759D01*
X15481Y120820D01*
X15461Y120828D01*
X15445Y120843D01*
X15353Y120899D01*
X15333Y120907D01*
X15317Y120921D01*
X15222Y120972D01*
X15201Y120978D01*
X15184Y120991D01*
X15086Y121038D01*
X15066Y121043D01*
X15048Y121055D01*
X14948Y121096D01*
X14927Y121100D01*
X14909Y121111D01*
X14807Y121148D01*
X14786Y121151D01*
X14767Y121160D01*
X14663Y121191D01*
X14642Y121193D01*
X14622Y121202D01*
X14517Y121227D01*
X14496Y121228D01*
X14476Y121236D01*
X14370Y121256D01*
X14348Y121256D01*
X14328Y121262D01*
X14221Y121276D01*
X14200Y121275D01*
X14179Y121281D01*
X14071Y121289D01*
X14050Y121287D01*
X14029Y121292D01*
X13921Y121294D01*
D02*
G37*
G36*
X-14229D02*
X-14250Y121291D01*
X-14270Y121294D01*
X-14379Y121292D01*
X-14400Y121287D01*
X-14421Y121289D01*
X-14529Y121281D01*
X-14549Y121275D01*
X-14570Y121276D01*
X-14678Y121262D01*
X-14698Y121256D01*
X-14719Y121256D01*
X-14826Y121236D01*
X-14845Y121228D01*
X-14867Y121227D01*
X-14972Y121202D01*
X-14991Y121193D01*
X-15012Y121191D01*
X-15116Y121160D01*
X-15135Y121151D01*
X-15156Y121148D01*
X-15258Y121111D01*
X-15277Y121100D01*
X-15297Y121096D01*
X-15397Y121055D01*
X-15415Y121043D01*
X-15436Y121038D01*
X-15533Y120991D01*
X-15551Y120978D01*
X-15571Y120972D01*
X-15666Y120921D01*
X-15683Y120907D01*
X-15702Y120899D01*
X-15795Y120843D01*
X-15810Y120828D01*
X-15830Y120820D01*
X-15919Y120759D01*
X-15934Y120744D01*
X-15953Y120734D01*
X-16039Y120668D01*
X-16053Y120652D01*
X-16072Y120642D01*
X-16154Y120571D01*
X-16167Y120555D01*
X-16185Y120543D01*
X-16264Y120469D01*
X-16276Y120451D01*
X-16293Y120439D01*
X-16368Y120361D01*
X-16379Y120343D01*
X-16396Y120329D01*
X-16466Y120247D01*
X-16477Y120228D01*
X-16493Y120214D01*
X-16559Y120129D01*
X-16568Y120109D01*
X-16583Y120095D01*
X-16645Y120005D01*
X-16653Y119986D01*
X-16668Y119970D01*
X-16724Y119878D01*
X-16732Y119858D01*
X-16745Y119841D01*
X-16797Y119746D01*
X-16803Y119726D01*
X-16816Y119709D01*
X-16862Y119611D01*
X-16868Y119591D01*
X-16880Y119573D01*
X-16921Y119473D01*
X-16925Y119452D01*
X-16936Y119434D01*
X-16972Y119332D01*
X-16975Y119310D01*
X-16985Y119292D01*
X-17016Y119188D01*
X-17018Y119167D01*
X-17027Y119147D01*
X-17052Y119042D01*
X-17053Y119021D01*
X-17061Y119001D01*
X-17080Y118895D01*
X-17080Y118873D01*
X-17087Y118853D01*
X-17101Y118746D01*
X-17100Y118725D01*
X-17106Y118704D01*
X-17114Y118596D01*
X-17111Y118575D01*
X-17116Y118554D01*
X-17119Y118446D01*
X-17117Y118435D01*
X-17119Y118425D01*
Y115275D01*
X-17117Y115265D01*
X-17119Y115254D01*
X-17116Y115146D01*
X-17111Y115125D01*
X-17114Y115104D01*
X-17106Y114996D01*
X-17100Y114976D01*
X-17101Y114954D01*
X-17087Y114847D01*
X-17080Y114827D01*
X-17080Y114806D01*
X-17061Y114699D01*
X-17053Y114679D01*
X-17052Y114658D01*
X-17027Y114553D01*
X-17018Y114534D01*
X-17016Y114512D01*
X-16985Y114409D01*
X-16975Y114390D01*
X-16972Y114369D01*
X-16936Y114267D01*
X-16925Y114248D01*
X-16921Y114227D01*
X-16880Y114127D01*
X-16868Y114110D01*
X-16862Y114089D01*
X-16816Y113991D01*
X-16803Y113974D01*
X-16797Y113954D01*
X-16745Y113859D01*
X-16732Y113842D01*
X-16724Y113822D01*
X-16668Y113730D01*
X-16653Y113714D01*
X-16645Y113695D01*
X-16583Y113606D01*
X-16568Y113591D01*
X-16559Y113572D01*
X-16493Y113486D01*
X-16477Y113472D01*
X-16466Y113453D01*
X-16396Y113371D01*
X-16379Y113358D01*
X-16368Y113340D01*
X-16293Y113261D01*
X-16276Y113249D01*
X-16264Y113231D01*
X-16185Y113157D01*
X-16167Y113146D01*
X-16154Y113129D01*
X-16072Y113058D01*
X-16053Y113048D01*
X-16039Y113032D01*
X-15953Y112966D01*
X-15934Y112957D01*
X-15919Y112942D01*
X-15830Y112880D01*
X-15810Y112872D01*
X-15795Y112857D01*
X-15702Y112801D01*
X-15683Y112793D01*
X-15666Y112780D01*
X-15571Y112728D01*
X-15551Y112722D01*
X-15533Y112709D01*
X-15436Y112662D01*
X-15415Y112657D01*
X-15397Y112645D01*
X-15297Y112604D01*
X-15277Y112600D01*
X-15258Y112589D01*
X-15156Y112553D01*
X-15135Y112550D01*
X-15116Y112540D01*
X-15012Y112509D01*
X-14991Y112507D01*
X-14972Y112498D01*
X-14867Y112473D01*
X-14845Y112472D01*
X-14826Y112464D01*
X-14719Y112444D01*
X-14698Y112445D01*
X-14678Y112438D01*
X-14570Y112424D01*
X-14549Y112425D01*
X-14529Y112419D01*
X-14421Y112411D01*
X-14400Y112413D01*
X-14379Y112409D01*
X-14270Y112406D01*
X-14250Y112409D01*
X-14229Y112406D01*
X-14120Y112409D01*
X-14100Y112413D01*
X-14078Y112411D01*
X-13971Y112419D01*
X-13950Y112425D01*
X-13929Y112424D01*
X-13821Y112438D01*
X-13801Y112445D01*
X-13780Y112444D01*
X-13674Y112464D01*
X-13654Y112472D01*
X-13632Y112473D01*
X-13527Y112498D01*
X-13508Y112507D01*
X-13487Y112509D01*
X-13383Y112540D01*
X-13364Y112550D01*
X-13343Y112553D01*
X-13241Y112589D01*
X-13223Y112600D01*
X-13202Y112604D01*
X-13102Y112645D01*
X-13084Y112657D01*
X-13063Y112662D01*
X-12966Y112709D01*
X-12948Y112722D01*
X-12928Y112728D01*
X-12833Y112780D01*
X-12817Y112793D01*
X-12797Y112801D01*
X-12704Y112857D01*
X-12689Y112872D01*
X-12669Y112880D01*
X-12580Y112942D01*
X-12565Y112957D01*
X-12546Y112966D01*
X-12460Y113032D01*
X-12446Y113048D01*
X-12427Y113058D01*
X-12345Y113129D01*
X-12332Y113145D01*
X-12314Y113157D01*
X-12235Y113231D01*
X-12223Y113249D01*
X-12206Y113261D01*
X-12131Y113340D01*
X-12120Y113358D01*
X-12103Y113371D01*
X-12033Y113453D01*
X-12022Y113472D01*
X-12006Y113486D01*
X-11940Y113572D01*
X-11931Y113591D01*
X-11916Y113606D01*
X-11854Y113695D01*
X-11846Y113714D01*
X-11832Y113730D01*
X-11775Y113822D01*
X-11768Y113842D01*
X-11754Y113859D01*
X-11702Y113954D01*
X-11696Y113974D01*
X-11683Y113991D01*
X-11637Y114089D01*
X-11631Y114110D01*
X-11620Y114127D01*
X-11578Y114227D01*
X-11574Y114248D01*
X-11563Y114267D01*
X-11527Y114369D01*
X-11524Y114390D01*
X-11514Y114409D01*
X-11483Y114512D01*
X-11481Y114533D01*
X-11472Y114553D01*
X-11447Y114658D01*
X-11446Y114679D01*
X-11438Y114699D01*
X-11419Y114806D01*
X-11419Y114827D01*
X-11412Y114847D01*
X-11398Y114954D01*
X-11399Y114976D01*
X-11394Y114996D01*
X-11385Y115104D01*
X-11388Y115125D01*
X-11383Y115146D01*
X-11380Y115254D01*
X-11382Y115265D01*
X-11380Y115275D01*
Y118425D01*
X-11382Y118435D01*
X-11380Y118446D01*
X-11383Y118554D01*
X-11388Y118575D01*
X-11385Y118596D01*
X-11394Y118704D01*
X-11399Y118725D01*
X-11398Y118746D01*
X-11412Y118853D01*
X-11419Y118873D01*
X-11419Y118895D01*
X-11438Y119001D01*
X-11446Y119021D01*
X-11447Y119042D01*
X-11472Y119147D01*
X-11481Y119167D01*
X-11483Y119188D01*
X-11514Y119292D01*
X-11524Y119310D01*
X-11527Y119332D01*
X-11563Y119434D01*
X-11574Y119452D01*
X-11578Y119473D01*
X-11620Y119573D01*
X-11631Y119591D01*
X-11637Y119611D01*
X-11683Y119709D01*
X-11696Y119726D01*
X-11702Y119746D01*
X-11754Y119841D01*
X-11768Y119858D01*
X-11775Y119878D01*
X-11831Y119970D01*
X-11846Y119986D01*
X-11854Y120005D01*
X-11916Y120095D01*
X-11931Y120109D01*
X-11940Y120129D01*
X-12006Y120214D01*
X-12022Y120229D01*
X-12033Y120247D01*
X-12103Y120329D01*
X-12120Y120343D01*
X-12131Y120361D01*
X-12206Y120439D01*
X-12223Y120451D01*
X-12235Y120469D01*
X-12314Y120543D01*
X-12332Y120555D01*
X-12345Y120571D01*
X-12427Y120642D01*
X-12446Y120652D01*
X-12460Y120668D01*
X-12546Y120734D01*
X-12565Y120744D01*
X-12580Y120759D01*
X-12669Y120820D01*
X-12689Y120828D01*
X-12704Y120843D01*
X-12797Y120899D01*
X-12817Y120907D01*
X-12833Y120921D01*
X-12928Y120972D01*
X-12948Y120978D01*
X-12966Y120991D01*
X-13063Y121038D01*
X-13084Y121043D01*
X-13102Y121055D01*
X-13202Y121096D01*
X-13223Y121100D01*
X-13241Y121111D01*
X-13343Y121148D01*
X-13364Y121151D01*
X-13383Y121160D01*
X-13487Y121191D01*
X-13508Y121193D01*
X-13527Y121202D01*
X-13632Y121227D01*
X-13654Y121228D01*
X-13674Y121236D01*
X-13780Y121256D01*
X-13801Y121256D01*
X-13821Y121262D01*
X-13929Y121276D01*
X-13950Y121275D01*
X-13971Y121281D01*
X-14078Y121289D01*
X-14099Y121287D01*
X-14120Y121292D01*
X-14229Y121294D01*
D02*
G37*
G36*
X17600Y112674D02*
Y111050D01*
X19224D01*
X19155Y111401D01*
X18673Y112123D01*
X17951Y112605D01*
X17600Y112674D01*
D02*
G37*
G36*
X16600D02*
X16249Y112605D01*
X15528Y112123D01*
X15045Y111401D01*
X14976Y111050D01*
X16600D01*
Y112674D01*
D02*
G37*
G36*
X-16900D02*
Y111050D01*
X-15276D01*
X-15345Y111401D01*
X-15827Y112123D01*
X-16549Y112605D01*
X-16900Y112674D01*
D02*
G37*
G36*
X34100Y101674D02*
Y100050D01*
X35724D01*
X35655Y100401D01*
X35173Y101123D01*
X34451Y101605D01*
X34100Y101674D01*
D02*
G37*
G36*
X33100D02*
X32749Y101605D01*
X32028Y101123D01*
X31545Y100401D01*
X31476Y100050D01*
X33100D01*
Y101674D01*
D02*
G37*
G36*
X35724Y99050D02*
X34100D01*
Y97426D01*
X34451Y97496D01*
X35173Y97978D01*
X35655Y98699D01*
X35724Y99050D01*
D02*
G37*
G36*
X33100D02*
X31476D01*
X31545Y98699D01*
X32028Y97978D01*
X32749Y97496D01*
X33100Y97426D01*
Y99050D01*
D02*
G37*
G36*
X44600Y90206D02*
Y86150D01*
X48656D01*
X48565Y86846D01*
X48103Y87961D01*
X47368Y88919D01*
X46411Y89653D01*
X45296Y90115D01*
X44600Y90206D01*
D02*
G37*
G36*
X43600D02*
X42904Y90115D01*
X41789Y89653D01*
X40832Y88919D01*
X40097Y87961D01*
X39635Y86846D01*
X39544Y86150D01*
X43600D01*
Y90206D01*
D02*
G37*
G36*
X48656Y85150D02*
X44600D01*
Y81094D01*
X45296Y81185D01*
X46411Y81647D01*
X47368Y82382D01*
X48103Y83339D01*
X48565Y84454D01*
X48656Y85150D01*
D02*
G37*
G36*
X43600D02*
X39544D01*
X39635Y84454D01*
X40097Y83339D01*
X40832Y82382D01*
X41789Y81647D01*
X42904Y81185D01*
X43600Y81094D01*
Y85150D01*
D02*
G37*
G36*
X-51400Y80674D02*
X-51751Y80605D01*
X-52472Y80123D01*
X-52955Y79401D01*
X-53024Y79050D01*
X-51400D01*
Y80674D01*
D02*
G37*
G36*
Y78050D02*
X-53024D01*
X-52955Y77699D01*
X-52472Y76978D01*
X-51751Y76496D01*
X-51400Y76426D01*
Y78050D01*
D02*
G37*
G36*
X52600Y77175D02*
Y75550D01*
X54224D01*
X54155Y75901D01*
X53673Y76623D01*
X52951Y77105D01*
X52600Y77175D01*
D02*
G37*
G36*
X51600D02*
X51249Y77105D01*
X50528Y76623D01*
X50046Y75901D01*
X49976Y75550D01*
X51600D01*
Y77175D01*
D02*
G37*
G36*
X54224Y74550D02*
X52600D01*
Y72926D01*
X52951Y72996D01*
X53673Y73478D01*
X54155Y74199D01*
X54224Y74550D01*
D02*
G37*
G36*
X51600D02*
X49976D01*
X50046Y74199D01*
X50528Y73478D01*
X51249Y72996D01*
X51600Y72926D01*
Y74550D01*
D02*
G37*
G36*
X54100Y68674D02*
Y67050D01*
X55724D01*
X55655Y67401D01*
X55173Y68123D01*
X54451Y68605D01*
X54100Y68674D01*
D02*
G37*
G36*
X53100D02*
X52749Y68605D01*
X52028Y68123D01*
X51546Y67401D01*
X51476Y67050D01*
X53100D01*
Y68674D01*
D02*
G37*
G36*
X55724Y66050D02*
X54100D01*
Y64426D01*
X54451Y64496D01*
X55173Y64978D01*
X55655Y65699D01*
X55724Y66050D01*
D02*
G37*
G36*
X53100D02*
X51476D01*
X51546Y65699D01*
X52028Y64978D01*
X52749Y64496D01*
X53100Y64426D01*
Y66050D01*
D02*
G37*
G36*
X-21278Y60222D02*
X-23353D01*
Y57950D01*
X-21278D01*
Y60222D01*
D02*
G37*
G36*
X55600Y58175D02*
Y56550D01*
X57224D01*
X57155Y56901D01*
X56673Y57623D01*
X55951Y58105D01*
X55600Y58175D01*
D02*
G37*
G36*
X54600D02*
X54249Y58105D01*
X53528Y57623D01*
X53045Y56901D01*
X52976Y56550D01*
X54600D01*
Y58175D01*
D02*
G37*
G36*
X-21278Y56950D02*
X-23353D01*
Y54678D01*
X-21278D01*
Y56950D01*
D02*
G37*
G36*
X-24353D02*
X-26428D01*
Y54678D01*
X-24353D01*
Y56950D01*
D02*
G37*
G36*
X57224Y55550D02*
X55600D01*
Y53926D01*
X55951Y53996D01*
X56673Y54478D01*
X57155Y55199D01*
X57224Y55550D01*
D02*
G37*
G36*
X54600D02*
X52976D01*
X53045Y55199D01*
X53528Y54478D01*
X54249Y53996D01*
X54600Y53926D01*
Y55550D01*
D02*
G37*
G36*
X-56400Y55174D02*
Y53550D01*
X-54776D01*
X-54845Y53901D01*
X-55327Y54623D01*
X-56049Y55105D01*
X-56400Y55174D01*
D02*
G37*
G36*
X26285Y53933D02*
Y52309D01*
X27910D01*
X27840Y52660D01*
X27358Y53381D01*
X26636Y53863D01*
X26285Y53933D01*
D02*
G37*
G36*
X25285D02*
X24934Y53863D01*
X24213Y53381D01*
X23731Y52660D01*
X23661Y52309D01*
X25285D01*
Y53933D01*
D02*
G37*
G36*
X-54776Y52550D02*
X-56400D01*
Y50926D01*
X-56049Y50995D01*
X-55327Y51478D01*
X-54845Y52199D01*
X-54776Y52550D01*
D02*
G37*
G36*
X4536D02*
X1657D01*
Y50058D01*
X4536D01*
Y52550D01*
D02*
G37*
G36*
X27910Y51309D02*
X26285D01*
Y49684D01*
X26636Y49754D01*
X27358Y50236D01*
X27840Y50958D01*
X27910Y51309D01*
D02*
G37*
G36*
X25285D02*
X23661D01*
X23731Y50958D01*
X24213Y50236D01*
X24934Y49754D01*
X25285Y49684D01*
Y51309D01*
D02*
G37*
G36*
X55100Y48175D02*
Y46550D01*
X56724D01*
X56655Y46901D01*
X56173Y47623D01*
X55451Y48105D01*
X55100Y48175D01*
D02*
G37*
G36*
X54100D02*
X53749Y48105D01*
X53028Y47623D01*
X52545Y46901D01*
X52476Y46550D01*
X54100D01*
Y48175D01*
D02*
G37*
G36*
X56724Y45550D02*
X55100D01*
Y43926D01*
X55451Y43995D01*
X56173Y44478D01*
X56655Y45199D01*
X56724Y45550D01*
D02*
G37*
G36*
X54100D02*
X52476D01*
X52545Y45199D01*
X53028Y44478D01*
X53749Y43995D01*
X54100Y43926D01*
Y45550D01*
D02*
G37*
G36*
X-21300Y35774D02*
Y34150D01*
X-19676D01*
X-19745Y34501D01*
X-20227Y35223D01*
X-20949Y35705D01*
X-21300Y35774D01*
D02*
G37*
G36*
X-22300D02*
X-22651Y35705D01*
X-23372Y35223D01*
X-23855Y34501D01*
X-23924Y34150D01*
X-22300D01*
Y35774D01*
D02*
G37*
G36*
X15268Y40312D02*
X10543D01*
Y35588D01*
X15268D01*
Y37032D01*
X22149D01*
X22491Y36645D01*
X22393Y36150D01*
X22546Y35382D01*
X22981Y34731D01*
X23632Y34296D01*
X24400Y34143D01*
X25168Y34296D01*
X25819Y34731D01*
X26254Y35382D01*
X26407Y36150D01*
X26254Y36918D01*
X25819Y37569D01*
X25168Y38004D01*
X24400Y38157D01*
X23808Y38039D01*
X23249Y38599D01*
X22951Y38798D01*
X22600Y38868D01*
X15268D01*
Y40312D01*
D02*
G37*
G36*
X-19676Y33150D02*
X-21300D01*
Y31526D01*
X-20949Y31596D01*
X-20227Y32078D01*
X-19745Y32799D01*
X-19676Y33150D01*
D02*
G37*
G36*
X-22300D02*
X-23924D01*
X-23855Y32799D01*
X-23372Y32078D01*
X-22651Y31596D01*
X-22300Y31526D01*
Y33150D01*
D02*
G37*
G36*
X-36999Y31919D02*
X-37767Y31766D01*
X-38418Y31331D01*
X-38853Y30680D01*
X-39006Y29912D01*
X-38853Y29144D01*
X-38418Y28493D01*
X-37767Y28057D01*
X-36999Y27905D01*
X-36231Y28057D01*
X-35580Y28493D01*
X-35145Y29144D01*
X-34992Y29912D01*
X-35145Y30680D01*
X-35580Y31331D01*
X-36231Y31766D01*
X-36999Y31919D01*
D02*
G37*
G36*
X45700Y27657D02*
X44932Y27504D01*
X44281Y27069D01*
X43846Y26418D01*
X43693Y25650D01*
X43846Y24882D01*
X44281Y24231D01*
X44932Y23796D01*
X45700Y23643D01*
X46468Y23796D01*
X47119Y24231D01*
X47554Y24882D01*
X47707Y25650D01*
X47554Y26418D01*
X47119Y27069D01*
X46468Y27504D01*
X45700Y27657D01*
D02*
G37*
G36*
X-21700Y27257D02*
X-22468Y27104D01*
X-23119Y26669D01*
X-23554Y26018D01*
X-23707Y25250D01*
X-23554Y24482D01*
X-23119Y23831D01*
X-22468Y23396D01*
X-21700Y23243D01*
X-20932Y23396D01*
X-20281Y23831D01*
X-19846Y24482D01*
X-19693Y25250D01*
X-19846Y26018D01*
X-20281Y26669D01*
X-20932Y27104D01*
X-21700Y27257D01*
D02*
G37*
G36*
X-42100Y30957D02*
X-42868Y30804D01*
X-43519Y30369D01*
X-43954Y29718D01*
X-44107Y28950D01*
X-43954Y28182D01*
X-43519Y27531D01*
X-42868Y27096D01*
X-42100Y26943D01*
X-41503Y27062D01*
X-34504Y20099D01*
X-34355Y20000D01*
X-34208Y19902D01*
X-34207Y19902D01*
X-34206Y19901D01*
X-34032Y19867D01*
X-33857Y19832D01*
X-12574D01*
X-12309Y19347D01*
X-12483Y19068D01*
X-37616D01*
X-37646Y19218D01*
X-38081Y19869D01*
X-38732Y20304D01*
X-39500Y20457D01*
X-40268Y20304D01*
X-40919Y19869D01*
X-41354Y19218D01*
X-41507Y18450D01*
X-41354Y17682D01*
X-40919Y17031D01*
X-40268Y16596D01*
X-39500Y16443D01*
X-38867Y16569D01*
X-38652Y16233D01*
X-38620Y16115D01*
X-39157Y15415D01*
X-39510Y14564D01*
X-39564Y14150D01*
X-32636D01*
X-32690Y14564D01*
X-33043Y15415D01*
X-33604Y16146D01*
X-34335Y16707D01*
X-34396Y16733D01*
X-34296Y17233D01*
X-12254D01*
X-11919Y16731D01*
X-11268Y16296D01*
X-10500Y16143D01*
X-9732Y16296D01*
X-9081Y16731D01*
X-8646Y17382D01*
X-8493Y18150D01*
X-8646Y18918D01*
X-8923Y19332D01*
X-8655Y19832D01*
X6500D01*
X6851Y19902D01*
X7093Y20064D01*
X7700Y19943D01*
X8468Y20096D01*
X9119Y20531D01*
X9554Y21182D01*
X9707Y21950D01*
X9554Y22718D01*
X9119Y23369D01*
X8468Y23804D01*
X7700Y23957D01*
X6932Y23804D01*
X6281Y23369D01*
X5846Y22718D01*
X5693Y21950D01*
X5461Y21668D01*
X-33478D01*
X-40209Y28364D01*
X-40093Y28950D01*
X-40246Y29718D01*
X-40681Y30369D01*
X-41332Y30804D01*
X-42100Y30957D01*
D02*
G37*
G36*
X42100Y19174D02*
Y17550D01*
X43724D01*
X43655Y17901D01*
X43173Y18623D01*
X42451Y19105D01*
X42100Y19174D01*
D02*
G37*
G36*
X41100D02*
X40749Y19105D01*
X40028Y18623D01*
X39546Y17901D01*
X39476Y17550D01*
X41100D01*
Y19174D01*
D02*
G37*
G36*
X31600Y20857D02*
X30832Y20704D01*
X30181Y20269D01*
X29746Y19618D01*
X29593Y18850D01*
X29746Y18082D01*
X30181Y17431D01*
X30832Y16996D01*
X31600Y16843D01*
X32368Y16996D01*
X33019Y17431D01*
X33454Y18082D01*
X33607Y18850D01*
X33454Y19618D01*
X33019Y20269D01*
X32368Y20704D01*
X31600Y20857D01*
D02*
G37*
G36*
X43724Y16550D02*
X42100D01*
Y14926D01*
X42451Y14996D01*
X43173Y15478D01*
X43655Y16199D01*
X43724Y16550D01*
D02*
G37*
G36*
X41100D02*
X39476D01*
X39546Y16199D01*
X40028Y15478D01*
X40749Y14996D01*
X41100Y14926D01*
Y16550D01*
D02*
G37*
G36*
X-32636Y13150D02*
X-35600D01*
Y10186D01*
X-35186Y10240D01*
X-34335Y10593D01*
X-33604Y11154D01*
X-33043Y11885D01*
X-32690Y12736D01*
X-32636Y13150D01*
D02*
G37*
G36*
X-36600D02*
X-39564D01*
X-39510Y12736D01*
X-39157Y11885D01*
X-38596Y11154D01*
X-37865Y10593D01*
X-37014Y10240D01*
X-36600Y10186D01*
Y13150D01*
D02*
G37*
%LPD*%
G36*
X14008Y120489D02*
X14116Y120481D01*
X14223Y120466D01*
X14330Y120447D01*
X14435Y120421D01*
X14539Y120391D01*
X14641Y120354D01*
X14741Y120313D01*
X14838Y120267D01*
X14933Y120215D01*
X15026Y120158D01*
X15115Y120097D01*
X15201Y120031D01*
X15283Y119961D01*
X15362Y119886D01*
X15436Y119808D01*
X15506Y119726D01*
X15572Y119640D01*
X15633Y119551D01*
X15690Y119458D01*
X15742Y119363D01*
X15788Y119266D01*
X15830Y119166D01*
X15866Y119064D01*
X15897Y118960D01*
X15922Y118855D01*
X15942Y118748D01*
X15956Y118641D01*
X15964Y118533D01*
X15967Y118425D01*
Y116850D01*
Y115275D01*
X15964Y115167D01*
X15956Y115059D01*
X15942Y114952D01*
X15922Y114846D01*
X15897Y114740D01*
X15866Y114637D01*
X15830Y114535D01*
X15788Y114435D01*
X15742Y114337D01*
X15690Y114242D01*
X15633Y114150D01*
X15572Y114060D01*
X15506Y113974D01*
X15436Y113892D01*
X15362Y113814D01*
X15283Y113739D01*
X15201Y113669D01*
X15115Y113603D01*
X15026Y113542D01*
X14933Y113485D01*
X14838Y113434D01*
X14741Y113387D01*
X14641Y113346D01*
X14539Y113310D01*
X14435Y113279D01*
X14330Y113253D01*
X14223Y113234D01*
X14116Y113220D01*
X14008Y113211D01*
X13900Y113208D01*
X13792Y113211D01*
X13684Y113220D01*
X13577Y113234D01*
X13470Y113253D01*
X13365Y113279D01*
X13261Y113310D01*
X13159Y113346D01*
X13059Y113387D01*
X12962Y113434D01*
X12867Y113485D01*
X12774Y113542D01*
X12685Y113603D01*
X12599Y113669D01*
X12517Y113739D01*
X12438Y113814D01*
X12364Y113892D01*
X12294Y113974D01*
X12228Y114060D01*
X12167Y114150D01*
X12110Y114242D01*
X12058Y114337D01*
X12012Y114435D01*
X11970Y114535D01*
X11934Y114637D01*
X11904Y114740D01*
X11878Y114846D01*
X11859Y114952D01*
X11845Y115059D01*
X11836Y115167D01*
X11833Y115275D01*
Y116850D01*
Y118425D01*
X11836Y118533D01*
X11845Y118641D01*
X11859Y118748D01*
X11878Y118855D01*
X11904Y118960D01*
X11934Y119064D01*
X11970Y119166D01*
X12012Y119266D01*
X12058Y119363D01*
X12110Y119458D01*
X12167Y119551D01*
X12228Y119640D01*
X12294Y119726D01*
X12364Y119808D01*
X12438Y119886D01*
X12517Y119961D01*
X12599Y120031D01*
X12685Y120097D01*
X12774Y120158D01*
X12867Y120215D01*
X12962Y120267D01*
X13059Y120313D01*
X13159Y120354D01*
X13261Y120391D01*
X13365Y120421D01*
X13470Y120447D01*
X13577Y120466D01*
X13684Y120481D01*
X13792Y120489D01*
X13900Y120492D01*
X14008Y120489D01*
D02*
G37*
%LPC*%
G36*
X13900Y119311D02*
X13854Y119309D01*
X13807Y119306D01*
X13761Y119300D01*
X13716Y119291D01*
X13671Y119281D01*
X13626Y119267D01*
X13583Y119252D01*
X13540Y119234D01*
X13498Y119214D01*
X13457Y119192D01*
X13418Y119168D01*
X13379Y119142D01*
X13343Y119113D01*
X13307Y119083D01*
X13274Y119051D01*
X13242Y119018D01*
X13212Y118982D01*
X13183Y118946D01*
X13157Y118907D01*
X13133Y118868D01*
X13111Y118827D01*
X13091Y118785D01*
X13073Y118742D01*
X13058Y118699D01*
X13044Y118654D01*
X13034Y118609D01*
X13025Y118563D01*
X13019Y118517D01*
X13015Y118471D01*
X13014Y118425D01*
Y116850D01*
Y115275D01*
X13015Y115229D01*
X13019Y115183D01*
X13025Y115137D01*
X13034Y115091D01*
X13044Y115046D01*
X13058Y115002D01*
X13073Y114958D01*
X13091Y114915D01*
X13111Y114873D01*
X13133Y114832D01*
X13157Y114793D01*
X13183Y114755D01*
X13212Y114718D01*
X13242Y114683D01*
X13274Y114649D01*
X13307Y114617D01*
X13343Y114587D01*
X13379Y114559D01*
X13418Y114532D01*
X13457Y114508D01*
X13498Y114486D01*
X13540Y114466D01*
X13583Y114448D01*
X13626Y114433D01*
X13671Y114420D01*
X13716Y114409D01*
X13761Y114400D01*
X13807Y114394D01*
X13854Y114391D01*
X13900Y114390D01*
X13946Y114391D01*
X13993Y114394D01*
X14039Y114400D01*
X14084Y114409D01*
X14129Y114420D01*
X14174Y114433D01*
X14218Y114448D01*
X14260Y114466D01*
X14302Y114486D01*
X14343Y114508D01*
X14382Y114532D01*
X14421Y114559D01*
X14457Y114587D01*
X14493Y114617D01*
X14526Y114649D01*
X14558Y114683D01*
X14589Y114718D01*
X14617Y114755D01*
X14643Y114793D01*
X14667Y114832D01*
X14689Y114873D01*
X14709Y114915D01*
X14727Y114958D01*
X14742Y115002D01*
X14756Y115046D01*
X14766Y115091D01*
X14775Y115137D01*
X14781Y115183D01*
X14785Y115229D01*
X14786Y115275D01*
Y116850D01*
Y118425D01*
X14785Y118471D01*
X14781Y118517D01*
X14775Y118563D01*
X14766Y118609D01*
X14756Y118654D01*
X14742Y118699D01*
X14727Y118742D01*
X14709Y118785D01*
X14689Y118827D01*
X14667Y118868D01*
X14643Y118907D01*
X14617Y118946D01*
X14589Y118982D01*
X14558Y119018D01*
X14526Y119051D01*
X14493Y119083D01*
X14457Y119113D01*
X14421Y119142D01*
X14382Y119168D01*
X14343Y119192D01*
X14302Y119214D01*
X14260Y119234D01*
X14218Y119252D01*
X14174Y119267D01*
X14129Y119281D01*
X14084Y119291D01*
X14039Y119300D01*
X13993Y119306D01*
X13946Y119309D01*
X13900Y119311D01*
D02*
G37*
%LPD*%
G36*
X-14141Y120489D02*
X-14033Y120481D01*
X-13926Y120466D01*
X-13820Y120447D01*
X-13715Y120421D01*
X-13611Y120391D01*
X-13509Y120354D01*
X-13409Y120313D01*
X-13311Y120267D01*
X-13216Y120215D01*
X-13124Y120158D01*
X-13035Y120097D01*
X-12949Y120031D01*
X-12867Y119961D01*
X-12788Y119886D01*
X-12713Y119808D01*
X-12643Y119726D01*
X-12577Y119640D01*
X-12516Y119551D01*
X-12460Y119458D01*
X-12408Y119363D01*
X-12361Y119266D01*
X-12320Y119166D01*
X-12284Y119064D01*
X-12253Y118960D01*
X-12228Y118855D01*
X-12208Y118748D01*
X-12194Y118641D01*
X-12185Y118533D01*
X-12183Y118425D01*
Y116850D01*
Y115275D01*
X-12185Y115167D01*
X-12194Y115059D01*
X-12208Y114952D01*
X-12228Y114846D01*
X-12253Y114740D01*
X-12284Y114637D01*
X-12320Y114535D01*
X-12361Y114435D01*
X-12408Y114337D01*
X-12460Y114242D01*
X-12516Y114150D01*
X-12577Y114060D01*
X-12643Y113974D01*
X-12713Y113892D01*
X-12788Y113814D01*
X-12867Y113739D01*
X-12949Y113669D01*
X-13035Y113603D01*
X-13124Y113542D01*
X-13216Y113485D01*
X-13311Y113434D01*
X-13409Y113387D01*
X-13509Y113346D01*
X-13611Y113310D01*
X-13715Y113279D01*
X-13820Y113253D01*
X-13926Y113234D01*
X-14033Y113220D01*
X-14141Y113211D01*
X-14250Y113208D01*
X-14358Y113211D01*
X-14466Y113220D01*
X-14573Y113234D01*
X-14679Y113253D01*
X-14785Y113279D01*
X-14888Y113310D01*
X-14990Y113346D01*
X-15090Y113387D01*
X-15188Y113434D01*
X-15283Y113485D01*
X-15375Y113542D01*
X-15464Y113603D01*
X-15550Y113669D01*
X-15633Y113739D01*
X-15711Y113814D01*
X-15786Y113892D01*
X-15856Y113974D01*
X-15922Y114060D01*
X-15983Y114150D01*
X-16039Y114242D01*
X-16091Y114337D01*
X-16138Y114435D01*
X-16179Y114535D01*
X-16215Y114637D01*
X-16246Y114740D01*
X-16271Y114846D01*
X-16291Y114952D01*
X-16305Y115059D01*
X-16314Y115167D01*
X-16317Y115275D01*
Y116850D01*
Y118425D01*
X-16314Y118533D01*
X-16305Y118641D01*
X-16291Y118748D01*
X-16271Y118855D01*
X-16246Y118960D01*
X-16215Y119064D01*
X-16179Y119166D01*
X-16138Y119266D01*
X-16091Y119363D01*
X-16039Y119458D01*
X-15983Y119551D01*
X-15922Y119640D01*
X-15856Y119726D01*
X-15786Y119808D01*
X-15711Y119886D01*
X-15633Y119961D01*
X-15550Y120031D01*
X-15464Y120097D01*
X-15375Y120158D01*
X-15283Y120215D01*
X-15188Y120267D01*
X-15090Y120313D01*
X-14990Y120354D01*
X-14888Y120391D01*
X-14785Y120421D01*
X-14679Y120447D01*
X-14573Y120466D01*
X-14466Y120481D01*
X-14358Y120489D01*
X-14250Y120492D01*
X-14141Y120489D01*
D02*
G37*
%LPC*%
G36*
X-14250Y119311D02*
X-14296Y119309D01*
X-14342Y119306D01*
X-14388Y119300D01*
X-14434Y119291D01*
X-14479Y119281D01*
X-14523Y119267D01*
X-14567Y119252D01*
X-14610Y119234D01*
X-14652Y119214D01*
X-14692Y119192D01*
X-14732Y119168D01*
X-14770Y119142D01*
X-14807Y119113D01*
X-14842Y119083D01*
X-14876Y119051D01*
X-14908Y119018D01*
X-14938Y118982D01*
X-14966Y118946D01*
X-14992Y118907D01*
X-15017Y118868D01*
X-15039Y118827D01*
X-15059Y118785D01*
X-15077Y118742D01*
X-15092Y118699D01*
X-15105Y118654D01*
X-15116Y118609D01*
X-15124Y118563D01*
X-15131Y118517D01*
X-15134Y118471D01*
X-15135Y118425D01*
Y116850D01*
Y115275D01*
X-15134Y115229D01*
X-15131Y115183D01*
X-15124Y115137D01*
X-15116Y115091D01*
X-15105Y115046D01*
X-15092Y115002D01*
X-15077Y114958D01*
X-15059Y114915D01*
X-15039Y114873D01*
X-15017Y114832D01*
X-14992Y114793D01*
X-14966Y114755D01*
X-14938Y114718D01*
X-14908Y114683D01*
X-14876Y114649D01*
X-14842Y114617D01*
X-14807Y114587D01*
X-14770Y114559D01*
X-14732Y114532D01*
X-14692Y114508D01*
X-14652Y114486D01*
X-14610Y114466D01*
X-14567Y114448D01*
X-14523Y114433D01*
X-14479Y114420D01*
X-14434Y114409D01*
X-14388Y114400D01*
X-14342Y114394D01*
X-14296Y114391D01*
X-14250Y114390D01*
X-14203Y114391D01*
X-14157Y114394D01*
X-14111Y114400D01*
X-14065Y114409D01*
X-14020Y114420D01*
X-13976Y114433D01*
X-13932Y114448D01*
X-13889Y114466D01*
X-13847Y114486D01*
X-13807Y114508D01*
X-13767Y114532D01*
X-13729Y114559D01*
X-13692Y114587D01*
X-13657Y114617D01*
X-13623Y114649D01*
X-13591Y114683D01*
X-13561Y114718D01*
X-13533Y114755D01*
X-13507Y114793D01*
X-13482Y114832D01*
X-13460Y114873D01*
X-13440Y114915D01*
X-13422Y114958D01*
X-13407Y115002D01*
X-13394Y115046D01*
X-13383Y115091D01*
X-13375Y115137D01*
X-13369Y115183D01*
X-13365Y115229D01*
X-13364Y115275D01*
Y116850D01*
Y118425D01*
X-13365Y118471D01*
X-13369Y118517D01*
X-13375Y118563D01*
X-13383Y118609D01*
X-13394Y118654D01*
X-13407Y118699D01*
X-13422Y118742D01*
X-13440Y118785D01*
X-13460Y118827D01*
X-13482Y118868D01*
X-13507Y118907D01*
X-13533Y118946D01*
X-13561Y118982D01*
X-13591Y119018D01*
X-13623Y119051D01*
X-13657Y119083D01*
X-13692Y119113D01*
X-13729Y119142D01*
X-13767Y119168D01*
X-13807Y119192D01*
X-13847Y119214D01*
X-13889Y119234D01*
X-13932Y119252D01*
X-13976Y119267D01*
X-14020Y119281D01*
X-14065Y119291D01*
X-14111Y119300D01*
X-14157Y119306D01*
X-14203Y119309D01*
X-14250Y119311D01*
D02*
G37*
G36*
X-37794Y87868D02*
X-39418D01*
Y86244D01*
X-39067Y86314D01*
X-38346Y86796D01*
X-37864Y87517D01*
X-37794Y87868D01*
D02*
G37*
%LPD*%
D11*
X-8600Y66430D02*
G03*
X-8369Y65873I787J0D01*
G01*
Y68123D02*
G03*
X-8600Y67567I557J-557D01*
G01*
X-29800Y42150D02*
X-22600Y49350D01*
X-33200Y35100D02*
X-29800Y42150D01*
X-22600Y49350D02*
X-22600D01*
X-17947Y54003D01*
X10119Y83069D02*
X12624Y85574D01*
X15321D01*
X15439Y85691D01*
X45362Y71650D02*
X46900D01*
X33762Y83250D02*
X45362Y71650D01*
X32300Y81788D02*
X33762Y83250D01*
X-3400Y77650D02*
X91Y74159D01*
Y72044D02*
Y74159D01*
X-8800Y102950D02*
X846D01*
X-43014Y80250D02*
Y85273D01*
X-39918Y88368D01*
X-22600Y45150D02*
X-13700Y54050D01*
X-6157D02*
X-5157Y53050D01*
X-13700Y54050D02*
X-6157D01*
X-4747Y53800D02*
Y57979D01*
Y53460D02*
Y53800D01*
X-4020D01*
X-8600Y66430D02*
Y67567D01*
X-8369Y65873D02*
X-7107D01*
X-8369D02*
X-8369D01*
X-3645Y59080D02*
Y62410D01*
X-7107Y65873D02*
X-3645Y62410D01*
X-5157Y53050D02*
X-4747Y53460D01*
Y57979D02*
X-3645Y59080D01*
X2032Y60682D02*
X5994D01*
X-4020Y53800D02*
X-3172Y54649D01*
Y55478D01*
X2032Y60682D01*
X11718Y63868D02*
Y79018D01*
X4368Y59107D02*
X6957D01*
X11718Y63868D01*
X5994Y60682D02*
X9159Y63847D01*
Y79018D01*
X-8369Y68123D02*
X-7300Y69193D01*
X1157Y55896D02*
X4368Y59107D01*
X1157Y53050D02*
Y55896D01*
X-17947Y54003D02*
Y57450D01*
X6200Y71450D02*
X6588Y71838D01*
Y75032D01*
X6600Y75045D01*
Y79018D01*
X5800Y71650D02*
X6000D01*
X6200Y71450D01*
X23800Y81788D02*
X23900Y81688D01*
Y72850D02*
Y81688D01*
X1157Y53050D02*
X1543D01*
X3142Y54649D01*
X-17448Y62009D02*
Y64408D01*
X-17851Y61607D02*
X-17448Y62009D01*
X-17851Y57625D02*
Y61607D01*
X9174Y82124D02*
X10119Y83069D01*
X9174Y79032D02*
Y82124D01*
D28*
X32300Y87512D02*
D03*
Y81788D02*
D03*
X23800Y87512D02*
D03*
Y81788D02*
D03*
D33*
X5800Y71650D02*
D03*
X91D02*
D03*
D40*
X-7300Y69193D02*
D03*
Y74508D02*
D03*
D62*
X-30176Y68464D02*
D03*
Y95236D02*
D03*
D64*
X-44400Y36500D02*
X-44295Y37886D01*
X-53214Y48273D02*
Y54716D01*
Y48273D02*
X-44295Y37886D01*
X32300Y87422D02*
Y87512D01*
X28800Y66150D02*
Y83922D01*
X32300Y87422D01*
X-44300Y46650D02*
X-43667Y46687D01*
X-26700Y65775D02*
Y70442D01*
X-43667Y46687D02*
X-26700Y65775D01*
X-25313Y65338D02*
X-19121Y71529D01*
X-25313Y60874D02*
Y65338D01*
X-34200Y51987D02*
X-25313Y60874D01*
X-45120Y65250D02*
X-44835D01*
X-45677Y62254D02*
Y64408D01*
X-44835Y65250D01*
X-43014D01*
X-53214Y54716D02*
X-45677Y62254D01*
X-34200Y51987D02*
X-33091Y49790D01*
X-40908Y70250D02*
X-33300D01*
X-38300Y63850D02*
Y67642D01*
X-40908Y70250D02*
X-38300Y67642D01*
X-43014Y70250D02*
X-40908D01*
X6500Y20750D02*
X7700Y21950D01*
X-33857Y20750D02*
X6500D01*
X-48200Y68330D02*
Y83295D01*
X-33345Y98150D01*
X1073D01*
X-44400Y57750D02*
X-38300Y63850D01*
X-48200Y68330D02*
X-45120Y65250D01*
X-7103Y78864D02*
Y83647D01*
X-5468Y85282D02*
X-2647D01*
X-7103Y83647D02*
X-5468Y85282D01*
X-7300Y74508D02*
Y78668D01*
X-8490Y84360D02*
X-4874Y87976D01*
X-2513D02*
X-2238Y88250D01*
X-8490Y79439D02*
Y84360D01*
X-4874Y87976D02*
X-2513D01*
X-7300Y78668D02*
X-7103Y78864D01*
X-12123Y84027D02*
X-5341Y90809D01*
X-2238D01*
X-12123Y81092D02*
Y84027D01*
X-14786Y80250D02*
X-12965D01*
X-16892D02*
X-14786D01*
X-10182Y93368D02*
X-1175D01*
X-33300Y70250D02*
X-10182Y93368D01*
X-26700Y70442D02*
X-16892Y80250D01*
X-17090Y74408D02*
X-16248Y75250D01*
X-18317Y72479D02*
X-18171D01*
X-17090Y73560D02*
Y74408D01*
X-19121Y71675D02*
X-18317Y72479D01*
X-18171D02*
X-17090Y73560D01*
X-19121Y71529D02*
Y71675D01*
X-16248Y75250D02*
X-12679D01*
X20100Y57450D02*
X28800Y66150D01*
X18551Y61850D02*
X19028D01*
X26486Y79255D02*
X26683Y79451D01*
X19575Y62397D02*
X19747D01*
X26486Y84321D02*
Y84736D01*
X19747Y62397D02*
X26486Y69136D01*
X19028Y61850D02*
X19575Y62397D01*
X26486Y84321D02*
X26683Y84124D01*
Y79451D02*
Y84124D01*
X26486Y69136D02*
Y79255D01*
X-42100Y28950D02*
X-33857Y20750D01*
X-39200Y18150D02*
X-10500D01*
X-39500Y18450D02*
X-39200Y18150D01*
X6600Y97481D02*
Y102904D01*
X6554Y102950D02*
X6600Y102904D01*
X20034Y57450D02*
X20100D01*
X-16607Y65250D02*
X-14786D01*
X-17448Y64408D02*
X-16607Y65250D01*
X19154Y72850D02*
X23900D01*
X18900Y73104D02*
X19154Y72850D01*
X10119Y83069D02*
Y83069D01*
X9159Y79018D02*
X9174Y79032D01*
X12906Y37950D02*
X22600D01*
X24400Y36150D01*
X15439Y93368D02*
X26535D01*
X15439Y90809D02*
X20594D01*
X-2647Y85282D02*
X-2238Y85691D01*
X-12679Y75250D02*
X-8490Y79439D01*
X1482Y97481D02*
Y97741D01*
X1073Y98150D02*
X1482Y97741D01*
X-12965Y80250D02*
X-12123Y81092D01*
X20594Y90809D02*
X23800Y87603D01*
Y87512D02*
Y87603D01*
X32300Y87512D02*
Y87603D01*
X23800Y87422D02*
Y87512D01*
Y87422D02*
X26486Y84736D01*
X26535Y93368D02*
X32300Y87603D01*
D65*
X-13351Y61256D02*
G03*
X-13285Y61235I66J94D01*
G01*
X-13553Y61369D02*
X-13351Y61256D01*
X-13285Y61235D02*
X-6204D01*
X-6007Y61432D01*
D67*
X-44400Y36500D02*
D03*
X-32800Y36400D02*
D03*
X-44300Y46650D02*
D03*
X-44400Y57750D02*
D03*
X-32800Y49790D02*
D03*
D71*
X-20200Y103250D02*
X-16700Y106750D01*
X16900D01*
X-20779Y41271D02*
X-11200Y50850D01*
X-22579Y41271D02*
X-20779D01*
D73*
X4400Y63050D02*
X4558Y63044D01*
X1200Y63050D02*
X4400D01*
X-3200Y67450D02*
X1200Y63050D01*
X7100Y38003D02*
Y56550D01*
X14376Y63826D02*
Y83132D01*
X7100Y56550D02*
X14376Y63826D01*
X7047Y37950D02*
X7100Y38003D01*
D75*
X-40908Y75250D02*
X-30822Y85336D01*
X-30176D01*
X15647Y85482D02*
X17746D01*
X19000Y74504D02*
Y84228D01*
X17746Y85482D02*
X19000Y84228D01*
X91Y71650D02*
Y72044D01*
X-14786Y65250D02*
Y70250D01*
X-43014Y75250D02*
X-40908D01*
X15439Y85691D02*
X15647Y85482D01*
D76*
X-52900Y39150D02*
D03*
X44100Y85650D02*
D03*
D77*
X13900Y116850D02*
D03*
X-14250D02*
D03*
D78*
X25785Y51809D02*
D03*
X52100Y75050D02*
D03*
X33600Y99550D02*
D03*
X17100Y110550D02*
D03*
X-17400D02*
D03*
X-33400Y100550D02*
D03*
X-50900Y78550D02*
D03*
X-56900Y53050D02*
D03*
X41600Y17050D02*
D03*
X54600Y46050D02*
D03*
X55100Y56050D02*
D03*
X53600Y66550D02*
D03*
X46900Y71650D02*
D03*
X-13553Y61369D02*
D03*
X7700Y21950D02*
D03*
X-3400Y77650D02*
D03*
X4558Y63044D02*
D03*
X-8800Y102950D02*
D03*
X-39918Y88368D02*
D03*
X-30176Y85336D02*
D03*
X-6007Y61432D02*
D03*
X-3200Y67450D02*
D03*
X18551Y61850D02*
D03*
X-11200Y50850D02*
D03*
X-10500Y18150D02*
D03*
X20034Y57450D02*
D03*
X19700Y87850D02*
D03*
X-42100Y28950D02*
D03*
X-36999Y29912D02*
D03*
X-39500Y18450D02*
D03*
X-22600Y49350D02*
D03*
Y45150D02*
D03*
X45700Y25650D02*
D03*
X-21700Y25250D02*
D03*
X23900Y72850D02*
D03*
X24400Y36150D02*
D03*
X-22579Y41271D02*
D03*
X31600Y18850D02*
D03*
X-21800Y33650D02*
D03*
D79*
X18100Y104550D02*
D03*
X-49627Y52850D02*
D03*
X-20500Y104050D02*
D03*
X-36100Y13650D02*
D03*
D80*
X12906Y37950D02*
D03*
X7000D02*
D03*
D81*
X846Y102950D02*
D03*
X6554D02*
D03*
D82*
X-17947Y57450D02*
D03*
X-23853D02*
D03*
D83*
X-43014Y65250D02*
D03*
Y70250D02*
D03*
Y75250D02*
D03*
Y80250D02*
D03*
X-14786D02*
D03*
Y65250D02*
D03*
Y75250D02*
D03*
Y70250D02*
D03*
D84*
X1157Y53050D02*
D03*
X-5157D02*
D03*
D85*
X15439Y85691D02*
D03*
Y88250D02*
D03*
Y90809D02*
D03*
Y93368D02*
D03*
X-2238Y83132D02*
D03*
Y85691D02*
D03*
Y88250D02*
D03*
Y90809D02*
D03*
Y93368D02*
D03*
X15439Y83132D02*
D03*
D86*
X11718Y97481D02*
D03*
X9159D02*
D03*
X6600D02*
D03*
X4041D02*
D03*
X1482D02*
D03*
Y79018D02*
D03*
X11718D02*
D03*
X9159D02*
D03*
X6600D02*
D03*
X4041D02*
D03*
D87*
X18900Y73104D02*
D03*
Y67396D02*
D03*
M02*
