G04*
G04 #@! TF.GenerationSoftware,Altium Limited,Altium Designer,20.2.6 (244)*
G04*
G04 Layer_Color=8388736*
%FSLAX25Y25*%
%MOIN*%
G70*
G04*
G04 #@! TF.SameCoordinates,8D702C91-D224-4EEC-953A-651AC819B964*
G04*
G04*
G04 #@! TF.FilePolarity,Negative*
G04*
G01*
G75*
%ADD15R,0.03543X0.03150*%
%ADD17R,0.03150X0.03543*%
%ADD18R,0.06299X0.03937*%
%ADD19R,0.03543X0.03150*%
%ADD21R,0.02953X0.03937*%
%ADD26R,0.04088X0.02118*%
G04:AMPARAMS|DCode=27|XSize=40.88mil|YSize=21.18mil|CornerRadius=10.59mil|HoleSize=0mil|Usage=FLASHONLY|Rotation=180.000|XOffset=0mil|YOffset=0mil|HoleType=Round|Shape=RoundedRectangle|*
%AMROUNDEDRECTD27*
21,1,0.04088,0.00000,0,0,180.0*
21,1,0.01970,0.02118,0,0,180.0*
1,1,0.02118,-0.00985,0.00000*
1,1,0.02118,0.00985,0.00000*
1,1,0.02118,0.00985,0.00000*
1,1,0.02118,-0.00985,0.00000*
%
%ADD27ROUNDEDRECTD27*%
%ADD28R,0.03591X0.03772*%
%ADD32R,0.02756X0.02756*%
%ADD33R,0.02362X0.03150*%
%ADD34R,0.03150X0.02165*%
%ADD36R,0.03197X0.02987*%
G04:AMPARAMS|DCode=37|XSize=43.31mil|YSize=23.62mil|CornerRadius=2.01mil|HoleSize=0mil|Usage=FLASHONLY|Rotation=180.000|XOffset=0mil|YOffset=0mil|HoleType=Round|Shape=RoundedRectangle|*
%AMROUNDEDRECTD37*
21,1,0.04331,0.01961,0,0,180.0*
21,1,0.03929,0.02362,0,0,180.0*
1,1,0.00402,-0.01965,0.00980*
1,1,0.00402,0.01965,0.00980*
1,1,0.00402,0.01965,-0.00980*
1,1,0.00402,-0.01965,-0.00980*
%
%ADD37ROUNDEDRECTD37*%
%ADD39R,0.02756X0.02559*%
%ADD41R,0.03543X0.02953*%
%ADD44R,0.01975X0.05912*%
%ADD45R,0.05203X0.05912*%
%ADD46R,0.04828X0.03056*%
%ADD47R,0.03056X0.04828*%
%ADD48R,0.03056X0.04828*%
%ADD49R,0.03056X0.03056*%
%ADD50R,0.22054X0.04337*%
%ADD51R,0.12211X0.06699*%
%ADD52R,0.07880X0.08274*%
%ADD53R,0.02762X0.03550*%
%ADD54C,0.06400*%
G04:AMPARAMS|DCode=55|XSize=51.64mil|YSize=27.23mil|CornerRadius=7.81mil|HoleSize=0mil|Usage=FLASHONLY|Rotation=180.000|XOffset=0mil|YOffset=0mil|HoleType=Round|Shape=RoundedRectangle|*
%AMROUNDEDRECTD55*
21,1,0.05164,0.01161,0,0,180.0*
21,1,0.03602,0.02723,0,0,180.0*
1,1,0.01561,-0.01801,0.00581*
1,1,0.01561,0.01801,0.00581*
1,1,0.01561,0.01801,-0.00581*
1,1,0.01561,-0.01801,-0.00581*
%
%ADD55ROUNDEDRECTD55*%
%ADD56R,0.04534X0.03943*%
%ADD57R,0.02756X0.03937*%
%ADD58R,0.02756X0.02362*%
%ADD59R,0.04258X0.03825*%
%ADD60R,0.04140X0.04534*%
%ADD61C,0.07565*%
%ADD62C,0.03543*%
%ADD63C,0.02172*%
G36*
X-17104Y121386D02*
X-11415D01*
Y112322D01*
X-17104D01*
Y121386D01*
D02*
G37*
G36*
X11046Y121384D02*
X16778D01*
Y112322D01*
X11046D01*
Y121384D01*
D02*
G37*
D15*
X16177Y95156D02*
D03*
X9484D02*
D03*
X16177Y99550D02*
D03*
X9484D02*
D03*
D17*
X-36100Y40604D02*
D03*
Y47297D02*
D03*
D18*
X-25451Y91693D02*
D03*
Y81850D02*
D03*
Y72008D02*
D03*
X-34900D02*
D03*
Y81850D02*
D03*
Y91693D02*
D03*
D19*
X-15100Y74003D02*
D03*
Y68097D02*
D03*
D21*
X29547Y40350D02*
D03*
X35453D02*
D03*
X27753Y97850D02*
D03*
X21847D02*
D03*
X48653Y40450D02*
D03*
X42747D02*
D03*
X35453Y33250D02*
D03*
X29547D02*
D03*
D26*
X28098Y84410D02*
D03*
D27*
Y88150D02*
D03*
Y91890D02*
D03*
X19702D02*
D03*
Y84410D02*
D03*
D28*
X13400Y88012D02*
D03*
Y82288D02*
D03*
D32*
X34600Y86294D02*
D03*
Y91806D02*
D03*
D33*
X26354Y77950D02*
D03*
X20646D02*
D03*
D34*
X48650Y29678D02*
D03*
Y33222D02*
D03*
X42351D02*
D03*
Y29678D02*
D03*
D36*
X-28400Y31683D02*
D03*
Y36617D02*
D03*
X-43500Y41383D02*
D03*
Y46317D02*
D03*
D37*
X-38218Y53410D02*
D03*
Y60890D02*
D03*
X-27982D02*
D03*
Y57150D02*
D03*
Y53410D02*
D03*
D39*
X-45200Y58108D02*
D03*
Y52793D02*
D03*
X-28200Y41193D02*
D03*
Y46508D02*
D03*
D41*
X-5900Y94288D02*
D03*
Y99012D02*
D03*
D44*
X4943Y106811D02*
D03*
X2384D02*
D03*
X-175D02*
D03*
X-2734D02*
D03*
X-5293D02*
D03*
D45*
X-15300Y92007D02*
D03*
Y81377D02*
D03*
D46*
X-15476Y49621D02*
D03*
Y45684D02*
D03*
Y41747D02*
D03*
Y37810D02*
D03*
Y33873D02*
D03*
Y29936D02*
D03*
Y25999D02*
D03*
Y22062D02*
D03*
Y18125D02*
D03*
X17004D02*
D03*
Y22062D02*
D03*
Y25999D02*
D03*
Y29936D02*
D03*
Y33873D02*
D03*
Y37810D02*
D03*
Y41747D02*
D03*
Y45684D02*
D03*
Y49621D02*
D03*
D47*
X764Y18420D02*
D03*
X-7110D02*
D03*
X-3173D02*
D03*
X4701D02*
D03*
X8638D02*
D03*
D48*
Y53263D02*
D03*
X4701D02*
D03*
X764D02*
D03*
X-3173D02*
D03*
X-7110D02*
D03*
D49*
X-10063Y47849D02*
D03*
Y43519D02*
D03*
Y39188D02*
D03*
Y34857D02*
D03*
Y30527D02*
D03*
Y26196D02*
D03*
X11591D02*
D03*
Y30527D02*
D03*
Y34857D02*
D03*
Y39188D02*
D03*
Y43519D02*
D03*
Y47849D02*
D03*
X7260D02*
D03*
X2929D02*
D03*
X-1402D02*
D03*
X-5732D02*
D03*
X16512Y58086D02*
D03*
X12575D02*
D03*
X8638D02*
D03*
X4701D02*
D03*
X764D02*
D03*
X-3173D02*
D03*
X-7110D02*
D03*
X-11047D02*
D03*
X-14984D02*
D03*
X-1500Y42633D02*
D03*
X3028D02*
D03*
X-6027Y38105D02*
D03*
X-1500D02*
D03*
X3028D02*
D03*
X7555D02*
D03*
X-1500Y33578D02*
D03*
X3028D02*
D03*
X-6027Y29050D02*
D03*
X-1500D02*
D03*
X3028D02*
D03*
X7555D02*
D03*
X-16362Y14188D02*
D03*
X17890D02*
D03*
X-16362Y4149D02*
D03*
X17890D02*
D03*
D50*
X33342Y60113D02*
D03*
Y67987D02*
D03*
D51*
X42200Y50664D02*
D03*
Y77436D02*
D03*
D52*
X4550Y116850D02*
D03*
X-4899D02*
D03*
D53*
X-17859Y98650D02*
D03*
X-12741D02*
D03*
D54*
X-47000Y31150D02*
D03*
X34600Y14150D02*
D03*
X39300Y22750D02*
D03*
X-43300Y23150D02*
D03*
X-38300Y34050D02*
D03*
D55*
X6025Y66610D02*
D03*
Y70350D02*
D03*
Y74090D02*
D03*
X-3857Y66610D02*
D03*
Y70350D02*
D03*
Y74090D02*
D03*
D56*
X26300Y24304D02*
D03*
Y18596D02*
D03*
D57*
X-2937Y87503D02*
D03*
D58*
Y80810D02*
D03*
X4937D02*
D03*
Y88290D02*
D03*
D59*
X-45500Y68921D02*
D03*
Y62779D02*
D03*
D60*
X-25500Y25050D02*
D03*
X-31209D02*
D03*
X-25500Y18050D02*
D03*
X-31209D02*
D03*
D61*
X-52900Y39150D02*
D03*
X44100Y85650D02*
D03*
D62*
X-30176Y68464D02*
D03*
Y95236D02*
D03*
D63*
X13900Y116850D02*
D03*
X-14250D02*
D03*
M02*
