G04*
G04 #@! TF.GenerationSoftware,Altium Limited,Altium Designer,20.2.6 (244)*
G04*
G04 Layer_Color=65535*
%FSLAX25Y25*%
%MOIN*%
G70*
G04*
G04 #@! TF.SameCoordinates,8D702C91-D224-4EEC-953A-651AC819B964*
G04*
G04*
G04 #@! TF.FilePolarity,Positive*
G04*
G01*
G75*
%ADD10C,0.00984*%
%ADD11C,0.00787*%
%ADD12C,0.00500*%
D10*
X-19375Y81013D02*
G03*
X-19375Y81013I-492J0D01*
G01*
X30291Y77950D02*
G03*
X30291Y77950I-492J0D01*
G01*
X38315Y29285D02*
G03*
X38315Y29285I-492J0D01*
G01*
X-23061Y53410D02*
G03*
X-23061Y53410I-492J0D01*
G01*
X-5988Y87798D02*
G03*
X-5988Y87798I-492J0D01*
G01*
D11*
X-21102Y53558D02*
G03*
X-21102Y53558I-394J0D01*
G01*
X11037Y66630D02*
G03*
X11037Y66630I-394J0D01*
G01*
X12732Y93385D02*
X12929D01*
X12732Y96928D02*
X12929D01*
X12732Y97778D02*
X12929D01*
X12732Y101322D02*
X12929D01*
X-37872Y43852D02*
Y44049D01*
X-34328Y43852D02*
Y44049D01*
X-12150Y84379D02*
Y90521D01*
X-18450Y84379D02*
Y90521D01*
X-23089Y95138D02*
Y99567D01*
X-11754Y67704D02*
Y74397D01*
X-18446Y67704D02*
Y74397D01*
X29351Y43893D02*
X35650D01*
X29351Y36807D02*
X35650D01*
X10030Y80402D02*
Y89898D01*
X16770Y80402D02*
Y89898D01*
X21651Y94307D02*
X27950D01*
X21651Y101393D02*
X27950D01*
X20154Y74800D02*
X26847D01*
X20154Y81100D02*
X26847D01*
X42551Y36907D02*
X48850D01*
X42551Y43993D02*
X48850D01*
X45402Y28104D02*
X45599D01*
X45402Y34797D02*
X45599D01*
X29351Y29707D02*
X35650D01*
X29351Y36793D02*
X35650D01*
X-40154Y39889D02*
Y47811D01*
X-46846Y39889D02*
Y47811D01*
X-48153Y52104D02*
Y58797D01*
X-42247Y52104D02*
Y58797D01*
X-9258Y93184D02*
Y100074D01*
X-2554Y93205D02*
Y100095D01*
X-83Y90456D02*
X2083D01*
X3756Y83467D02*
Y85633D01*
X-83Y78645D02*
X2083D01*
X-1756Y83467D02*
Y84058D01*
D12*
X20502Y1536D02*
Y60698D01*
X-18974D02*
X20502D01*
X-18974Y1536D02*
X20502D01*
X-18974D02*
Y60698D01*
X-2065Y64051D02*
X4234D01*
X-2065Y76649D02*
X4234D01*
M02*
