G04*
G04 #@! TF.GenerationSoftware,Altium Limited,Altium Designer,20.2.6 (244)*
G04*
G04 Layer_Physical_Order=1*
G04 Layer_Color=255*
%FSLAX25Y25*%
%MOIN*%
G70*
G04*
G04 #@! TF.SameCoordinates,8D702C91-D224-4EEC-953A-651AC819B964*
G04*
G04*
G04 #@! TF.FilePolarity,Positive*
G04*
G01*
G75*
%ADD11C,0.00787*%
%ADD15R,0.03543X0.03150*%
%ADD16R,0.01575X0.05512*%
%ADD17R,0.03150X0.03543*%
%ADD18R,0.06299X0.03937*%
%ADD19R,0.03543X0.03150*%
%ADD20R,0.04803X0.05512*%
%ADD21R,0.02953X0.03937*%
%ADD22R,0.04528X0.02756*%
%ADD23R,0.02756X0.04528*%
%ADD24R,0.02756X0.04528*%
%ADD25R,0.02756X0.02756*%
%ADD26R,0.04088X0.02118*%
G04:AMPARAMS|DCode=27|XSize=40.88mil|YSize=21.18mil|CornerRadius=10.59mil|HoleSize=0mil|Usage=FLASHONLY|Rotation=180.000|XOffset=0mil|YOffset=0mil|HoleType=Round|Shape=RoundedRectangle|*
%AMROUNDEDRECTD27*
21,1,0.04088,0.00000,0,0,180.0*
21,1,0.01970,0.02118,0,0,180.0*
1,1,0.02118,-0.00985,0.00000*
1,1,0.02118,0.00985,0.00000*
1,1,0.02118,0.00985,0.00000*
1,1,0.02118,-0.00985,0.00000*
%
%ADD27ROUNDEDRECTD27*%
%ADD28R,0.03591X0.03772*%
%ADD29R,0.21654X0.03937*%
%ADD30R,0.11811X0.06299*%
%ADD31R,0.07480X0.07874*%
%ADD32R,0.02756X0.02756*%
%ADD33R,0.02362X0.03150*%
%ADD34R,0.03150X0.02165*%
%ADD35R,0.02362X0.03150*%
%ADD36R,0.03197X0.02987*%
G04:AMPARAMS|DCode=37|XSize=43.31mil|YSize=23.62mil|CornerRadius=2.01mil|HoleSize=0mil|Usage=FLASHONLY|Rotation=180.000|XOffset=0mil|YOffset=0mil|HoleType=Round|Shape=RoundedRectangle|*
%AMROUNDEDRECTD37*
21,1,0.04331,0.01961,0,0,180.0*
21,1,0.03929,0.02362,0,0,180.0*
1,1,0.00402,-0.01965,0.00980*
1,1,0.00402,0.01965,0.00980*
1,1,0.00402,0.01965,-0.00980*
1,1,0.00402,-0.01965,-0.00980*
%
%ADD37ROUNDEDRECTD37*%
G04:AMPARAMS|DCode=38|XSize=47.64mil|YSize=23.23mil|CornerRadius=5.81mil|HoleSize=0mil|Usage=FLASHONLY|Rotation=180.000|XOffset=0mil|YOffset=0mil|HoleType=Round|Shape=RoundedRectangle|*
%AMROUNDEDRECTD38*
21,1,0.04764,0.01161,0,0,180.0*
21,1,0.03602,0.02323,0,0,180.0*
1,1,0.01161,-0.01801,0.00581*
1,1,0.01161,0.01801,0.00581*
1,1,0.01161,0.01801,-0.00581*
1,1,0.01161,-0.01801,-0.00581*
%
%ADD38ROUNDEDRECTD38*%
%ADD39R,0.02756X0.02559*%
%ADD40R,0.04134X0.03543*%
%ADD41R,0.03543X0.02953*%
%ADD42R,0.03858X0.03425*%
%ADD43R,0.03740X0.04134*%
%ADD57R,0.02756X0.03937*%
%ADD58R,0.02756X0.02362*%
%ADD62C,0.03543*%
%ADD64C,0.00600*%
%ADD65C,0.00781*%
%ADD66R,0.00394X0.00394*%
%ADD67C,0.06000*%
%ADD68C,0.01575*%
%ADD69C,0.02362*%
%ADD70C,0.01968*%
%ADD71C,0.01772*%
%ADD72C,0.00781*%
%ADD73C,0.01181*%
%ADD74C,0.03150*%
%ADD75C,0.01000*%
%ADD76C,0.07165*%
%ADD77C,0.01772*%
%ADD78C,0.02362*%
%ADD79C,0.05000*%
G36*
X14008Y120489D02*
X14116Y120481D01*
X14223Y120466D01*
X14330Y120447D01*
X14435Y120421D01*
X14539Y120391D01*
X14641Y120354D01*
X14741Y120313D01*
X14838Y120267D01*
X14933Y120215D01*
X15026Y120158D01*
X15115Y120097D01*
X15201Y120031D01*
X15283Y119961D01*
X15362Y119886D01*
X15436Y119808D01*
X15506Y119726D01*
X15572Y119640D01*
X15633Y119551D01*
X15690Y119458D01*
X15742Y119363D01*
X15788Y119266D01*
X15830Y119166D01*
X15866Y119064D01*
X15897Y118960D01*
X15922Y118855D01*
X15942Y118748D01*
X15956Y118641D01*
X15964Y118533D01*
X15967Y118425D01*
Y116850D01*
Y115275D01*
X15964Y115167D01*
X15956Y115059D01*
X15942Y114952D01*
X15922Y114846D01*
X15897Y114740D01*
X15866Y114637D01*
X15830Y114535D01*
X15788Y114435D01*
X15742Y114337D01*
X15690Y114242D01*
X15633Y114150D01*
X15572Y114060D01*
X15506Y113974D01*
X15436Y113892D01*
X15362Y113814D01*
X15283Y113739D01*
X15201Y113669D01*
X15115Y113603D01*
X15026Y113542D01*
X14933Y113485D01*
X14838Y113434D01*
X14741Y113387D01*
X14641Y113346D01*
X14539Y113310D01*
X14435Y113279D01*
X14330Y113253D01*
X14223Y113234D01*
X14116Y113220D01*
X14008Y113211D01*
X13900Y113208D01*
X13792Y113211D01*
X13684Y113220D01*
X13577Y113234D01*
X13470Y113253D01*
X13365Y113279D01*
X13261Y113310D01*
X13159Y113346D01*
X13059Y113387D01*
X12962Y113434D01*
X12867Y113485D01*
X12774Y113542D01*
X12685Y113603D01*
X12599Y113669D01*
X12517Y113739D01*
X12438Y113814D01*
X12364Y113892D01*
X12294Y113974D01*
X12228Y114060D01*
X12167Y114150D01*
X12110Y114242D01*
X12058Y114337D01*
X12012Y114435D01*
X11970Y114535D01*
X11934Y114637D01*
X11904Y114740D01*
X11878Y114846D01*
X11859Y114952D01*
X11845Y115059D01*
X11836Y115167D01*
X11833Y115275D01*
Y116850D01*
Y118425D01*
X11836Y118533D01*
X11845Y118641D01*
X11859Y118748D01*
X11878Y118855D01*
X11904Y118960D01*
X11934Y119064D01*
X11970Y119166D01*
X12012Y119266D01*
X12058Y119363D01*
X12110Y119458D01*
X12167Y119551D01*
X12228Y119640D01*
X12294Y119726D01*
X12364Y119808D01*
X12438Y119886D01*
X12517Y119961D01*
X12599Y120031D01*
X12685Y120097D01*
X12774Y120158D01*
X12867Y120215D01*
X12962Y120267D01*
X13059Y120313D01*
X13159Y120354D01*
X13261Y120391D01*
X13365Y120421D01*
X13470Y120447D01*
X13577Y120466D01*
X13684Y120481D01*
X13792Y120489D01*
X13900Y120492D01*
X14008Y120489D01*
D02*
G37*
G36*
X-14141D02*
X-14033Y120481D01*
X-13926Y120466D01*
X-13820Y120447D01*
X-13715Y120421D01*
X-13611Y120391D01*
X-13509Y120354D01*
X-13409Y120313D01*
X-13311Y120267D01*
X-13216Y120215D01*
X-13124Y120158D01*
X-13035Y120097D01*
X-12949Y120031D01*
X-12867Y119961D01*
X-12788Y119886D01*
X-12713Y119808D01*
X-12643Y119726D01*
X-12577Y119640D01*
X-12516Y119551D01*
X-12460Y119458D01*
X-12408Y119363D01*
X-12361Y119266D01*
X-12320Y119166D01*
X-12284Y119064D01*
X-12253Y118960D01*
X-12228Y118855D01*
X-12208Y118748D01*
X-12194Y118641D01*
X-12185Y118533D01*
X-12183Y118425D01*
Y116850D01*
Y115275D01*
X-12185Y115167D01*
X-12194Y115059D01*
X-12208Y114952D01*
X-12228Y114846D01*
X-12253Y114740D01*
X-12284Y114637D01*
X-12320Y114535D01*
X-12361Y114435D01*
X-12408Y114337D01*
X-12460Y114242D01*
X-12516Y114150D01*
X-12577Y114060D01*
X-12643Y113974D01*
X-12713Y113892D01*
X-12788Y113814D01*
X-12867Y113739D01*
X-12949Y113669D01*
X-13035Y113603D01*
X-13124Y113542D01*
X-13216Y113485D01*
X-13311Y113434D01*
X-13409Y113387D01*
X-13509Y113346D01*
X-13611Y113310D01*
X-13715Y113279D01*
X-13820Y113253D01*
X-13926Y113234D01*
X-14033Y113220D01*
X-14141Y113211D01*
X-14250Y113208D01*
X-14358Y113211D01*
X-14466Y113220D01*
X-14573Y113234D01*
X-14679Y113253D01*
X-14785Y113279D01*
X-14888Y113310D01*
X-14990Y113346D01*
X-15090Y113387D01*
X-15188Y113434D01*
X-15283Y113485D01*
X-15375Y113542D01*
X-15464Y113603D01*
X-15550Y113669D01*
X-15633Y113739D01*
X-15711Y113814D01*
X-15786Y113892D01*
X-15856Y113974D01*
X-15922Y114060D01*
X-15983Y114150D01*
X-16039Y114242D01*
X-16091Y114337D01*
X-16138Y114435D01*
X-16179Y114535D01*
X-16215Y114637D01*
X-16246Y114740D01*
X-16271Y114846D01*
X-16291Y114952D01*
X-16305Y115059D01*
X-16314Y115167D01*
X-16317Y115275D01*
Y116850D01*
Y118425D01*
X-16314Y118533D01*
X-16305Y118641D01*
X-16291Y118748D01*
X-16271Y118855D01*
X-16246Y118960D01*
X-16215Y119064D01*
X-16179Y119166D01*
X-16138Y119266D01*
X-16091Y119363D01*
X-16039Y119458D01*
X-15983Y119551D01*
X-15922Y119640D01*
X-15856Y119726D01*
X-15786Y119808D01*
X-15711Y119886D01*
X-15633Y119961D01*
X-15550Y120031D01*
X-15464Y120097D01*
X-15375Y120158D01*
X-15283Y120215D01*
X-15188Y120267D01*
X-15090Y120313D01*
X-14990Y120354D01*
X-14888Y120391D01*
X-14785Y120421D01*
X-14679Y120447D01*
X-14573Y120466D01*
X-14466Y120481D01*
X-14358Y120489D01*
X-14250Y120492D01*
X-14141Y120489D01*
D02*
G37*
G36*
X19035Y122163D02*
X19264Y121989D01*
X19339Y121914D01*
X19513Y121685D01*
X19551Y121401D01*
Y111227D01*
X19196Y111192D01*
X19155Y111401D01*
X18673Y112123D01*
X17951Y112605D01*
X17600Y112674D01*
Y110550D01*
X17100D01*
Y110050D01*
X14976D01*
X15045Y109699D01*
X15528Y108978D01*
X16015Y108652D01*
X15877Y108318D01*
X15839Y108326D01*
X6518D01*
Y110354D01*
X-3505D01*
Y110567D01*
X-4793D01*
Y106811D01*
Y103055D01*
X-3505D01*
Y103267D01*
X-1181D01*
Y90259D01*
X-5102D01*
Y90259D01*
X-5428Y90328D01*
X-6584Y91484D01*
X-6449Y91812D01*
X-6400D01*
Y94288D01*
X-5900D01*
Y94788D01*
X-3128D01*
Y96764D01*
X-3341D01*
Y101276D01*
X-7173D01*
X-7314Y101630D01*
X-6946Y102182D01*
X-6793Y102950D01*
X-6707Y103055D01*
X-5793D01*
Y106311D01*
X-7080D01*
Y104509D01*
X-7435Y104405D01*
X-8032Y104804D01*
X-8800Y104957D01*
X-9568Y104804D01*
X-10219Y104369D01*
X-10654Y103718D01*
X-10807Y102950D01*
X-10654Y102182D01*
X-10219Y101531D01*
X-9568Y101096D01*
X-8800Y100943D01*
X-8733Y100956D01*
X-8459Y100732D01*
Y99930D01*
X-10772D01*
Y101012D01*
X-11823D01*
Y110129D01*
X-9781Y112171D01*
X-9427Y112126D01*
Y112126D01*
X-372D01*
Y115933D01*
X22D01*
Y112126D01*
X9077D01*
Y115933D01*
X11030D01*
Y115275D01*
X11032Y115265D01*
X11031Y115254D01*
X11033Y115146D01*
X11038Y115125D01*
X11036Y115104D01*
X11044Y114996D01*
X11050Y114976D01*
X11049Y114954D01*
X11063Y114847D01*
X11069Y114827D01*
X11069Y114806D01*
X11089Y114699D01*
X11097Y114679D01*
X11098Y114658D01*
X11123Y114553D01*
X11132Y114533D01*
X11134Y114512D01*
X11164Y114409D01*
X11174Y114390D01*
X11178Y114369D01*
X11214Y114267D01*
X11225Y114248D01*
X11229Y114227D01*
X11270Y114127D01*
X11282Y114110D01*
X11287Y114089D01*
X11334Y113991D01*
X11347Y113974D01*
X11353Y113954D01*
X11405Y113859D01*
X11418Y113842D01*
X11426Y113822D01*
X11482Y113730D01*
X11497Y113714D01*
X11505Y113695D01*
X11566Y113606D01*
X11581Y113591D01*
X11591Y113572D01*
X11657Y113486D01*
X11673Y113472D01*
X11683Y113453D01*
X11754Y113371D01*
X11770Y113358D01*
X11782Y113340D01*
X11856Y113261D01*
X11874Y113249D01*
X11886Y113231D01*
X11964Y113157D01*
X11982Y113145D01*
X11996Y113129D01*
X12078Y113058D01*
X12096Y113048D01*
X12111Y113032D01*
X12196Y112966D01*
X12216Y112957D01*
X12230Y112942D01*
X12320Y112880D01*
X12339Y112872D01*
X12355Y112857D01*
X12447Y112801D01*
X12467Y112793D01*
X12484Y112780D01*
X12579Y112728D01*
X12599Y112722D01*
X12616Y112709D01*
X12714Y112662D01*
X12734Y112657D01*
X12752Y112645D01*
X12852Y112604D01*
X12873Y112600D01*
X12891Y112589D01*
X12993Y112553D01*
X13014Y112550D01*
X13033Y112540D01*
X13137Y112509D01*
X13158Y112507D01*
X13178Y112498D01*
X13283Y112473D01*
X13304Y112472D01*
X13324Y112464D01*
X13430Y112444D01*
X13452Y112445D01*
X13472Y112438D01*
X13579Y112424D01*
X13600Y112425D01*
X13621Y112419D01*
X13729Y112411D01*
X13750Y112413D01*
X13771Y112409D01*
X13879Y112406D01*
X13900Y112409D01*
X13921Y112406D01*
X14029Y112409D01*
X14050Y112413D01*
X14071Y112411D01*
X14179Y112419D01*
X14200Y112425D01*
X14221Y112424D01*
X14328Y112438D01*
X14348Y112445D01*
X14370Y112444D01*
X14476Y112464D01*
X14496Y112472D01*
X14517Y112473D01*
X14622Y112498D01*
X14642Y112507D01*
X14663Y112509D01*
X14767Y112540D01*
X14786Y112550D01*
X14807Y112553D01*
X14909Y112589D01*
X14927Y112600D01*
X14948Y112604D01*
X15048Y112645D01*
X15066Y112657D01*
X15086Y112662D01*
X15184Y112709D01*
X15201Y112722D01*
X15222Y112728D01*
X15317Y112780D01*
X15333Y112793D01*
X15353Y112801D01*
X15445Y112857D01*
X15461Y112872D01*
X15481Y112880D01*
X15570Y112942D01*
X15585Y112957D01*
X15604Y112966D01*
X15689Y113032D01*
X15704Y113048D01*
X15722Y113058D01*
X15804Y113129D01*
X15818Y113146D01*
X15836Y113157D01*
X15914Y113231D01*
X15927Y113249D01*
X15944Y113261D01*
X16018Y113340D01*
X16030Y113358D01*
X16047Y113371D01*
X16117Y113453D01*
X16127Y113472D01*
X16143Y113486D01*
X16209Y113572D01*
X16219Y113591D01*
X16234Y113606D01*
X16295Y113695D01*
X16304Y113714D01*
X16318Y113730D01*
X16375Y113822D01*
X16382Y113842D01*
X16396Y113859D01*
X16447Y113954D01*
X16454Y113974D01*
X16466Y113991D01*
X16513Y114089D01*
X16518Y114110D01*
X16530Y114127D01*
X16571Y114227D01*
X16576Y114248D01*
X16587Y114267D01*
X16623Y114369D01*
X16626Y114390D01*
X16636Y114409D01*
X16666Y114512D01*
X16668Y114534D01*
X16677Y114553D01*
X16702Y114658D01*
X16703Y114679D01*
X16711Y114699D01*
X16731Y114806D01*
X16731Y114827D01*
X16737Y114847D01*
X16752Y114954D01*
X16750Y114976D01*
X16756Y114996D01*
X16765Y115104D01*
X16762Y115125D01*
X16767Y115146D01*
X16770Y115254D01*
X16768Y115265D01*
X16770Y115275D01*
Y118425D01*
X16768Y118435D01*
X16770Y118446D01*
X16767Y118554D01*
X16762Y118575D01*
X16765Y118596D01*
X16756Y118704D01*
X16750Y118725D01*
X16752Y118746D01*
X16737Y118853D01*
X16731Y118873D01*
X16731Y118895D01*
X16711Y119001D01*
X16703Y119021D01*
X16702Y119042D01*
X16677Y119147D01*
X16668Y119167D01*
X16666Y119188D01*
X16636Y119292D01*
X16626Y119310D01*
X16623Y119332D01*
X16587Y119434D01*
X16576Y119452D01*
X16571Y119473D01*
X16530Y119573D01*
X16518Y119591D01*
X16513Y119611D01*
X16466Y119709D01*
X16454Y119726D01*
X16447Y119746D01*
X16396Y119841D01*
X16382Y119858D01*
X16375Y119878D01*
X16318Y119970D01*
X16304Y119986D01*
X16295Y120005D01*
X16234Y120095D01*
X16219Y120109D01*
X16209Y120129D01*
X16143Y120214D01*
X16127Y120228D01*
X16117Y120247D01*
X16047Y120329D01*
X16030Y120343D01*
X16018Y120361D01*
X15944Y120439D01*
X15927Y120451D01*
X15914Y120469D01*
X15836Y120543D01*
X15818Y120555D01*
X15804Y120571D01*
X15722Y120642D01*
X15704Y120652D01*
X15689Y120668D01*
X15604Y120734D01*
X15585Y120744D01*
X15570Y120759D01*
X15481Y120820D01*
X15461Y120828D01*
X15445Y120843D01*
X15353Y120899D01*
X15333Y120907D01*
X15317Y120921D01*
X15222Y120972D01*
X15201Y120978D01*
X15184Y120991D01*
X15086Y121038D01*
X15066Y121043D01*
X15048Y121055D01*
X14948Y121096D01*
X14927Y121100D01*
X14909Y121111D01*
X14807Y121148D01*
X14786Y121151D01*
X14767Y121160D01*
X14663Y121191D01*
X14642Y121193D01*
X14622Y121202D01*
X14517Y121227D01*
X14496Y121228D01*
X14476Y121236D01*
X14370Y121256D01*
X14348Y121256D01*
X14328Y121262D01*
X14221Y121276D01*
X14200Y121275D01*
X14179Y121281D01*
X14071Y121289D01*
X14050Y121287D01*
X14029Y121292D01*
X13921Y121294D01*
X13900Y121291D01*
X13879Y121294D01*
X13771Y121292D01*
X13750Y121287D01*
X13729Y121289D01*
X13621Y121281D01*
X13600Y121275D01*
X13579Y121276D01*
X13472Y121262D01*
X13452Y121256D01*
X13430Y121256D01*
X13324Y121236D01*
X13304Y121228D01*
X13283Y121227D01*
X13178Y121202D01*
X13158Y121193D01*
X13137Y121191D01*
X13033Y121160D01*
X13014Y121151D01*
X12993Y121148D01*
X12891Y121111D01*
X12873Y121100D01*
X12852Y121096D01*
X12752Y121055D01*
X12734Y121043D01*
X12714Y121038D01*
X12616Y120991D01*
X12599Y120978D01*
X12579Y120972D01*
X12484Y120921D01*
X12467Y120907D01*
X12447Y120899D01*
X12355Y120843D01*
X12339Y120828D01*
X12320Y120820D01*
X12230Y120759D01*
X12216Y120744D01*
X12196Y120734D01*
X12111Y120668D01*
X12096Y120652D01*
X12078Y120642D01*
X11996Y120571D01*
X11982Y120555D01*
X11964Y120543D01*
X11886Y120469D01*
X11874Y120451D01*
X11856Y120439D01*
X11782Y120361D01*
X11770Y120343D01*
X11754Y120329D01*
X11683Y120247D01*
X11673Y120228D01*
X11657Y120214D01*
X11591Y120129D01*
X11581Y120109D01*
X11566Y120095D01*
X11505Y120005D01*
X11497Y119986D01*
X11482Y119970D01*
X11426Y119878D01*
X11418Y119858D01*
X11405Y119841D01*
X11353Y119746D01*
X11347Y119726D01*
X11334Y119709D01*
X11287Y119611D01*
X11282Y119591D01*
X11270Y119573D01*
X11229Y119473D01*
X11225Y119452D01*
X11214Y119434D01*
X11178Y119332D01*
X11174Y119310D01*
X11164Y119292D01*
X11134Y119188D01*
X11132Y119167D01*
X11123Y119147D01*
X11098Y119042D01*
X11097Y119021D01*
X11089Y119001D01*
X11069Y118895D01*
X11069Y118873D01*
X11063Y118853D01*
X11049Y118746D01*
X11050Y118725D01*
X11044Y118704D01*
X11036Y118596D01*
X11038Y118575D01*
X11033Y118554D01*
X11031Y118446D01*
X11032Y118435D01*
X11030Y118425D01*
Y117768D01*
X9077D01*
Y121574D01*
X22D01*
Y117768D01*
X-372D01*
Y121574D01*
X-9427D01*
Y117768D01*
X-11380D01*
Y118425D01*
X-11382Y118435D01*
X-11380Y118446D01*
X-11383Y118554D01*
X-11388Y118575D01*
X-11385Y118596D01*
X-11394Y118704D01*
X-11399Y118725D01*
X-11398Y118746D01*
X-11412Y118853D01*
X-11419Y118873D01*
X-11419Y118895D01*
X-11438Y119001D01*
X-11446Y119021D01*
X-11447Y119042D01*
X-11472Y119147D01*
X-11481Y119167D01*
X-11483Y119188D01*
X-11514Y119292D01*
X-11524Y119310D01*
X-11527Y119332D01*
X-11563Y119434D01*
X-11574Y119452D01*
X-11578Y119473D01*
X-11620Y119573D01*
X-11631Y119591D01*
X-11637Y119611D01*
X-11683Y119709D01*
X-11696Y119726D01*
X-11702Y119746D01*
X-11754Y119841D01*
X-11768Y119858D01*
X-11775Y119878D01*
X-11831Y119970D01*
X-11846Y119986D01*
X-11854Y120005D01*
X-11916Y120095D01*
X-11931Y120109D01*
X-11940Y120129D01*
X-12006Y120214D01*
X-12022Y120229D01*
X-12033Y120247D01*
X-12103Y120329D01*
X-12120Y120343D01*
X-12131Y120361D01*
X-12206Y120439D01*
X-12223Y120451D01*
X-12235Y120469D01*
X-12314Y120543D01*
X-12332Y120555D01*
X-12345Y120571D01*
X-12427Y120642D01*
X-12446Y120652D01*
X-12460Y120668D01*
X-12546Y120734D01*
X-12565Y120744D01*
X-12580Y120759D01*
X-12669Y120820D01*
X-12689Y120828D01*
X-12704Y120843D01*
X-12797Y120899D01*
X-12817Y120907D01*
X-12833Y120921D01*
X-12928Y120972D01*
X-12948Y120978D01*
X-12966Y120991D01*
X-13063Y121038D01*
X-13084Y121043D01*
X-13102Y121055D01*
X-13202Y121096D01*
X-13223Y121100D01*
X-13241Y121111D01*
X-13343Y121148D01*
X-13364Y121151D01*
X-13383Y121160D01*
X-13487Y121191D01*
X-13508Y121193D01*
X-13527Y121202D01*
X-13632Y121227D01*
X-13654Y121228D01*
X-13674Y121236D01*
X-13780Y121256D01*
X-13801Y121256D01*
X-13821Y121262D01*
X-13929Y121276D01*
X-13950Y121275D01*
X-13971Y121281D01*
X-14078Y121289D01*
X-14099Y121287D01*
X-14120Y121292D01*
X-14229Y121294D01*
X-14250Y121291D01*
X-14270Y121294D01*
X-14379Y121292D01*
X-14400Y121287D01*
X-14421Y121289D01*
X-14529Y121281D01*
X-14549Y121275D01*
X-14570Y121276D01*
X-14678Y121262D01*
X-14698Y121256D01*
X-14719Y121256D01*
X-14826Y121236D01*
X-14845Y121228D01*
X-14867Y121227D01*
X-14972Y121202D01*
X-14991Y121193D01*
X-15012Y121191D01*
X-15116Y121160D01*
X-15135Y121151D01*
X-15156Y121148D01*
X-15258Y121111D01*
X-15277Y121100D01*
X-15297Y121096D01*
X-15397Y121055D01*
X-15415Y121043D01*
X-15436Y121038D01*
X-15533Y120991D01*
X-15551Y120978D01*
X-15571Y120972D01*
X-15666Y120921D01*
X-15683Y120907D01*
X-15702Y120899D01*
X-15795Y120843D01*
X-15810Y120828D01*
X-15830Y120820D01*
X-15919Y120759D01*
X-15934Y120744D01*
X-15953Y120734D01*
X-16039Y120668D01*
X-16053Y120652D01*
X-16072Y120642D01*
X-16154Y120571D01*
X-16167Y120555D01*
X-16185Y120543D01*
X-16264Y120469D01*
X-16276Y120451D01*
X-16293Y120439D01*
X-16368Y120361D01*
X-16379Y120343D01*
X-16396Y120329D01*
X-16466Y120247D01*
X-16477Y120228D01*
X-16493Y120214D01*
X-16559Y120129D01*
X-16568Y120109D01*
X-16583Y120095D01*
X-16645Y120005D01*
X-16653Y119986D01*
X-16668Y119970D01*
X-16724Y119878D01*
X-16732Y119858D01*
X-16745Y119841D01*
X-16797Y119746D01*
X-16803Y119726D01*
X-16816Y119709D01*
X-16862Y119611D01*
X-16868Y119591D01*
X-16880Y119573D01*
X-16921Y119473D01*
X-16925Y119452D01*
X-16936Y119434D01*
X-16972Y119332D01*
X-16975Y119310D01*
X-16985Y119292D01*
X-17016Y119188D01*
X-17018Y119167D01*
X-17027Y119147D01*
X-17052Y119042D01*
X-17053Y119021D01*
X-17061Y119001D01*
X-17080Y118895D01*
X-17080Y118873D01*
X-17087Y118853D01*
X-17101Y118746D01*
X-17100Y118725D01*
X-17106Y118704D01*
X-17114Y118596D01*
X-17111Y118575D01*
X-17116Y118554D01*
X-17119Y118446D01*
X-17117Y118435D01*
X-17119Y118425D01*
Y115275D01*
X-17117Y115265D01*
X-17119Y115254D01*
X-17116Y115146D01*
X-17111Y115125D01*
X-17114Y115104D01*
X-17106Y114996D01*
X-17100Y114976D01*
X-17101Y114954D01*
X-17087Y114847D01*
X-17080Y114827D01*
X-17080Y114806D01*
X-17061Y114699D01*
X-17053Y114679D01*
X-17052Y114658D01*
X-17027Y114553D01*
X-17018Y114534D01*
X-17016Y114512D01*
X-16985Y114409D01*
X-16975Y114390D01*
X-16972Y114369D01*
X-16936Y114267D01*
X-16925Y114248D01*
X-16921Y114227D01*
X-16880Y114127D01*
X-16868Y114110D01*
X-16862Y114089D01*
X-16816Y113991D01*
X-16803Y113974D01*
X-16797Y113954D01*
X-16745Y113859D01*
X-16732Y113842D01*
X-16724Y113822D01*
X-16668Y113730D01*
X-16653Y113714D01*
X-16645Y113695D01*
X-16583Y113606D01*
X-16568Y113591D01*
X-16559Y113572D01*
X-16493Y113486D01*
X-16477Y113472D01*
X-16466Y113453D01*
X-16396Y113371D01*
X-16379Y113358D01*
X-16368Y113340D01*
X-16293Y113261D01*
X-16276Y113249D01*
X-16264Y113231D01*
X-16185Y113157D01*
X-16167Y113146D01*
X-16154Y113129D01*
X-16072Y113058D01*
X-16053Y113048D01*
X-16039Y113032D01*
X-15953Y112966D01*
X-15934Y112957D01*
X-15919Y112942D01*
X-15830Y112880D01*
X-15810Y112872D01*
X-15795Y112857D01*
X-15702Y112801D01*
X-15683Y112793D01*
X-15666Y112780D01*
X-15571Y112728D01*
X-15551Y112722D01*
X-15533Y112709D01*
X-15436Y112662D01*
X-15415Y112657D01*
X-15397Y112645D01*
X-15297Y112604D01*
X-15277Y112600D01*
X-15258Y112589D01*
X-15156Y112553D01*
X-15135Y112550D01*
X-15116Y112540D01*
X-15012Y112509D01*
X-14991Y112507D01*
X-14972Y112498D01*
X-14867Y112473D01*
X-14845Y112472D01*
X-14826Y112464D01*
X-14719Y112444D01*
X-14698Y112445D01*
X-14678Y112438D01*
X-14570Y112424D01*
X-14549Y112425D01*
X-14529Y112419D01*
X-14421Y112411D01*
X-14400Y112413D01*
X-14379Y112409D01*
X-14270Y112406D01*
X-14250Y112409D01*
X-14229Y112406D01*
X-14120Y112409D01*
X-14100Y112413D01*
X-14078Y112411D01*
X-13971Y112419D01*
X-13950Y112425D01*
X-13929Y112424D01*
X-13821Y112438D01*
X-13801Y112445D01*
X-13780Y112444D01*
X-13674Y112464D01*
X-13654Y112472D01*
X-13632Y112473D01*
X-13527Y112498D01*
X-13508Y112507D01*
X-13487Y112509D01*
X-13383Y112540D01*
X-13364Y112550D01*
X-13343Y112553D01*
X-13241Y112589D01*
X-13223Y112600D01*
X-13202Y112604D01*
X-13102Y112645D01*
X-13084Y112657D01*
X-13063Y112662D01*
X-12966Y112709D01*
X-12948Y112722D01*
X-12928Y112728D01*
X-12833Y112780D01*
X-12817Y112793D01*
X-12797Y112801D01*
X-12704Y112857D01*
X-12689Y112872D01*
X-12669Y112880D01*
X-12580Y112942D01*
X-12565Y112957D01*
X-12546Y112966D01*
X-12460Y113032D01*
X-12446Y113048D01*
X-12427Y113058D01*
X-12345Y113129D01*
X-12332Y113145D01*
X-12314Y113157D01*
X-12235Y113231D01*
X-12223Y113249D01*
X-12206Y113261D01*
X-12131Y113340D01*
X-12120Y113358D01*
X-12103Y113371D01*
X-12033Y113453D01*
X-12022Y113472D01*
X-12006Y113486D01*
X-11940Y113572D01*
X-11931Y113591D01*
X-11916Y113606D01*
X-11854Y113695D01*
X-11846Y113714D01*
X-11832Y113730D01*
X-11775Y113822D01*
X-11768Y113842D01*
X-11754Y113859D01*
X-11702Y113954D01*
X-11696Y113974D01*
X-11683Y113991D01*
X-11637Y114089D01*
X-11631Y114110D01*
X-11620Y114127D01*
X-11578Y114227D01*
X-11574Y114248D01*
X-11563Y114267D01*
X-11527Y114369D01*
X-11524Y114390D01*
X-11514Y114409D01*
X-11483Y114512D01*
X-11481Y114533D01*
X-11472Y114553D01*
X-11447Y114658D01*
X-11446Y114679D01*
X-11438Y114699D01*
X-11419Y114806D01*
X-11419Y114827D01*
X-11412Y114847D01*
X-11398Y114954D01*
X-11399Y114976D01*
X-11394Y114996D01*
X-11385Y115104D01*
X-11388Y115125D01*
X-11383Y115146D01*
X-11380Y115254D01*
X-11382Y115265D01*
X-11380Y115275D01*
Y115933D01*
X-9427D01*
Y114131D01*
X-10037D01*
X-10388Y114061D01*
X-10686Y113862D01*
X-13390Y111158D01*
X-13589Y110860D01*
X-13658Y110509D01*
Y101012D01*
X-14709D01*
Y96288D01*
X-10772D01*
Y98095D01*
X-8912D01*
X-8765Y97740D01*
X-10549Y95956D01*
X-10748Y95659D01*
X-10818Y95308D01*
Y93502D01*
X-10748Y93151D01*
X-10549Y92853D01*
X-6218Y88522D01*
X-5920Y88324D01*
X-5569Y88254D01*
X-5102D01*
Y84747D01*
X-1181D01*
Y82778D01*
X-5102D01*
Y78841D01*
X-5102D01*
X-5044Y78733D01*
X-5254Y78418D01*
X-5407Y77650D01*
X-5254Y76882D01*
X-4946Y76420D01*
X-5135Y76066D01*
X-5658D01*
X-6192Y75960D01*
X-6562Y75712D01*
X-11258Y80409D01*
X-11717Y80715D01*
X-12111Y80794D01*
Y84920D01*
X-18489D01*
Y77834D01*
X-16018D01*
Y76365D01*
X-17659D01*
Y72938D01*
X-17672Y72925D01*
X-21514D01*
Y74764D01*
X-29388D01*
Y72925D01*
X-30963D01*
Y74764D01*
X-37226D01*
X-37361Y75091D01*
X-34251Y78201D01*
X-34052Y78499D01*
X-33982Y78850D01*
Y79094D01*
X-30963D01*
Y80932D01*
X-29388D01*
Y79094D01*
X-21514D01*
Y84606D01*
X-28034D01*
X-28259Y84880D01*
X-28168Y85336D01*
X-28321Y86104D01*
X-28401Y86224D01*
X-28234Y86536D01*
X-21608D01*
X-21029Y86651D01*
X-20537Y86980D01*
X-19557Y87960D01*
X-19557Y87960D01*
X-19229Y88451D01*
X-19113Y89031D01*
X-19113Y89031D01*
Y93278D01*
X-18489D01*
Y88463D01*
X-12111D01*
Y95550D01*
X-14820D01*
X-15134Y95864D01*
X-15626Y96192D01*
X-15678Y96203D01*
Y98150D01*
X-17859D01*
Y99150D01*
X-15678D01*
Y101225D01*
X-18230D01*
X-18344Y101560D01*
X-18155Y101706D01*
X-17628Y102392D01*
X-17297Y103192D01*
X-17184Y104050D01*
X-17297Y104908D01*
X-17628Y105708D01*
X-18155Y106395D01*
X-18842Y106922D01*
X-19642Y107253D01*
X-20500Y107366D01*
X-21358Y107253D01*
X-22158Y106922D01*
X-22844Y106395D01*
X-23371Y105708D01*
X-23703Y104908D01*
X-23816Y104050D01*
X-23703Y103192D01*
X-23371Y102392D01*
X-22844Y101706D01*
X-22228Y101233D01*
Y96267D01*
Y94661D01*
X-24951D01*
Y91693D01*
X-25951D01*
Y94661D01*
X-27401D01*
X-27626Y94935D01*
X-27566Y95236D01*
X-27765Y96234D01*
X-28330Y97081D01*
X-29177Y97646D01*
X-30176Y97845D01*
X-31174Y97646D01*
X-32021Y97081D01*
X-32586Y96234D01*
X-32785Y95236D01*
X-32725Y94935D01*
X-32950Y94661D01*
X-34400D01*
Y91693D01*
X-34900D01*
Y91193D01*
X-39050D01*
Y90781D01*
X-39404Y90490D01*
X-39418Y90493D01*
Y88368D01*
X-39918D01*
Y87868D01*
X-42043D01*
X-41973Y87517D01*
X-41491Y86796D01*
X-40769Y86314D01*
X-40562Y86273D01*
X-40459Y85934D01*
X-48432Y77960D01*
X-48600Y78050D01*
X-50400D01*
Y76250D01*
X-50310Y76082D01*
X-54871Y71521D01*
X-55199Y71030D01*
X-55315Y70450D01*
Y55040D01*
X-55669Y54851D01*
X-56049Y55105D01*
X-56400Y55174D01*
Y53050D01*
Y50926D01*
X-56049Y50995D01*
X-55669Y51249D01*
X-55315Y51060D01*
Y50427D01*
X-55199Y49847D01*
X-54871Y49355D01*
X-50762Y45246D01*
X-50762Y45246D01*
X-50270Y44918D01*
X-49691Y44802D01*
X-49691Y44802D01*
X-46137D01*
X-45886Y44552D01*
X-45886Y44142D01*
X-46099Y43876D01*
X-46099Y43770D01*
Y41883D01*
X-40901D01*
Y43770D01*
X-40901Y43876D01*
X-41114Y44142D01*
X-41114Y44231D01*
Y45782D01*
X-38462D01*
Y44737D01*
X-33738D01*
Y45782D01*
X-30365D01*
Y44441D01*
X-26035D01*
Y48575D01*
X-28326D01*
X-28508Y48696D01*
X-29087Y48812D01*
X-33738D01*
Y49856D01*
X-38462D01*
Y48812D01*
X-42416D01*
X-42995Y48696D01*
X-43142Y48598D01*
X-45886D01*
Y47832D01*
X-49063D01*
X-50526Y49295D01*
X-50361Y49631D01*
X-49627Y49534D01*
X-48768Y49647D01*
X-47969Y49979D01*
X-47282Y50506D01*
X-47113Y50726D01*
X-43035D01*
Y51687D01*
X-40849D01*
X-40568Y51499D01*
X-40183Y51422D01*
X-36253D01*
X-35868Y51499D01*
X-35541Y51717D01*
X-35323Y52044D01*
X-35246Y52430D01*
Y54390D01*
X-35323Y54776D01*
X-35541Y55103D01*
X-35868Y55321D01*
X-36253Y55398D01*
X-40183D01*
X-40568Y55321D01*
X-40895Y55103D01*
X-41113Y54776D01*
X-41165Y54516D01*
X-43035D01*
Y54860D01*
X-47025D01*
X-47282Y55195D01*
X-47725Y55535D01*
X-47546Y55798D01*
X-47482Y55828D01*
X-47240Y55828D01*
X-45700D01*
Y57608D01*
X-47578D01*
Y56173D01*
X-47578Y55940D01*
X-47863Y55701D01*
X-47969Y55722D01*
X-48014Y55740D01*
X-48768Y56053D01*
X-49627Y56166D01*
X-50485Y56053D01*
X-51285Y55722D01*
X-51931Y55226D01*
X-52285Y55306D01*
Y69823D01*
X-39164Y82943D01*
X-38837Y82808D01*
Y79094D01*
X-36417D01*
X-36281Y78767D01*
X-39786Y75262D01*
X-39985Y74964D01*
X-40055Y74613D01*
Y69589D01*
X-39985Y69238D01*
X-39786Y68940D01*
X-37340Y66494D01*
X-37042Y66295D01*
X-36691Y66225D01*
X-36373D01*
X-31161Y61013D01*
X-30954Y60875D01*
Y59910D01*
X-30877Y59524D01*
X-30659Y59197D01*
X-30802Y59003D01*
X-30812Y58996D01*
X-31078Y58599D01*
X-31171Y58130D01*
Y57650D01*
X-24793D01*
Y58130D01*
X-24886Y58599D01*
X-25152Y58996D01*
X-25162Y59003D01*
X-25305Y59197D01*
X-25086Y59524D01*
X-25010Y59910D01*
Y61871D01*
X-25086Y62256D01*
X-25305Y62583D01*
X-25632Y62801D01*
X-26017Y62878D01*
X-29946D01*
X-30332Y62801D01*
X-30345Y62793D01*
X-35344Y67791D01*
X-35641Y67990D01*
X-35992Y68060D01*
X-36311D01*
X-37175Y68924D01*
X-37039Y69252D01*
X-32907D01*
X-32683Y68978D01*
X-32785Y68464D01*
X-32586Y67466D01*
X-32021Y66619D01*
X-31174Y66054D01*
X-30176Y65855D01*
X-29177Y66054D01*
X-28330Y66619D01*
X-27765Y67466D01*
X-27566Y68464D01*
X-27668Y68978D01*
X-27444Y69252D01*
X-21514D01*
Y71090D01*
X-17292D01*
X-16941Y71160D01*
X-16643Y71359D01*
X-16361Y71641D01*
X-12541D01*
Y76365D01*
X-14182D01*
Y77834D01*
X-12684D01*
X-8800Y73950D01*
X-11300Y71450D01*
X-11607Y70991D01*
X-11715Y70450D01*
Y66259D01*
X-11808Y66165D01*
X-12328D01*
Y67597D01*
X-17872D01*
Y65522D01*
X-16847D01*
X-16712Y65195D01*
X-20800Y61107D01*
X-21107Y60648D01*
X-21215Y60106D01*
Y58236D01*
X-24626Y54825D01*
X-25119D01*
X-25305Y55103D01*
X-25162Y55297D01*
X-25152Y55304D01*
X-24886Y55701D01*
X-24793Y56170D01*
Y56650D01*
X-31171D01*
Y56170D01*
X-31078Y55701D01*
X-30812Y55304D01*
X-30802Y55297D01*
X-30659Y55103D01*
X-30877Y54776D01*
X-30954Y54390D01*
Y52430D01*
X-30877Y52044D01*
X-30659Y51717D01*
X-30332Y51499D01*
X-29946Y51422D01*
X-26017D01*
X-25632Y51499D01*
X-25305Y51717D01*
X-25119Y51995D01*
X-24040D01*
X-23499Y52103D01*
X-23040Y52410D01*
X-18800Y56650D01*
X-18493Y57109D01*
X-18385Y57650D01*
Y59521D01*
X-15769Y62137D01*
X-15443Y61962D01*
X-15561Y61369D01*
X-15442Y60772D01*
X-15753Y60423D01*
X-15839Y60277D01*
X-15856Y60251D01*
X-17150D01*
Y55920D01*
X-8882D01*
Y60251D01*
X-10037D01*
Y60632D01*
X-10044Y60666D01*
X-9872Y61534D01*
X-9361Y62298D01*
X-8597Y62809D01*
X-7771Y62973D01*
X-7677Y62892D01*
X-7658Y62860D01*
X-7581Y62620D01*
X-7861Y62200D01*
X-8014Y61432D01*
X-7861Y60664D01*
X-7426Y60013D01*
X-6775Y59578D01*
X-6007Y59425D01*
X-5612Y59503D01*
X-5339Y59279D01*
Y55920D01*
Y50369D01*
X-5339Y50212D01*
X-5611Y50015D01*
X-7898Y50015D01*
X-8252Y50015D01*
X-8700D01*
X-9040Y50045D01*
X-9155Y50625D01*
X-9219Y50720D01*
X-9193Y50850D01*
X-9346Y51618D01*
X-9781Y52269D01*
X-10432Y52704D01*
X-11200Y52857D01*
X-11968Y52704D01*
X-12619Y52269D01*
X-12942Y51786D01*
X-18528D01*
Y47456D01*
Y43519D01*
Y39582D01*
Y35645D01*
X-12583D01*
X-12425Y35645D01*
X-12228Y35372D01*
Y33046D01*
X-12228Y32692D01*
X-12228Y32374D01*
X-12425Y32101D01*
X-12583Y32101D01*
X-18528D01*
Y27771D01*
Y23183D01*
X-20612D01*
X-20719Y23538D01*
X-20281Y23831D01*
X-19846Y24482D01*
X-19693Y25250D01*
X-19846Y26018D01*
X-20281Y26669D01*
X-20932Y27104D01*
X-21700Y27257D01*
X-22468Y27104D01*
X-22530Y27063D01*
X-22842Y27230D01*
Y27904D01*
X-28072Y27904D01*
X-28339Y28117D01*
X-28424Y28117D01*
X-30709D01*
Y25050D01*
Y21983D01*
X-28339Y21983D01*
X-28072Y22196D01*
X-27984Y22196D01*
X-26621D01*
Y20904D01*
X-28072Y20904D01*
X-28339Y21117D01*
X-28424Y21117D01*
X-30709D01*
Y18050D01*
Y14983D01*
X-28339Y14983D01*
X-28072Y15196D01*
X-27984Y15196D01*
X-22842D01*
Y17003D01*
X-18528D01*
Y15959D01*
X-12425D01*
Y16850D01*
X-12071Y16958D01*
X-11919Y16731D01*
X-11268Y16296D01*
X-10500Y16143D01*
X-9732Y16296D01*
X-9588Y16392D01*
X-9275Y16225D01*
Y15369D01*
X-4945D01*
Y21471D01*
X-9275D01*
Y20075D01*
X-9588Y19908D01*
X-9732Y20004D01*
X-10500Y20157D01*
X-11268Y20004D01*
X-11919Y19569D01*
X-12071Y19342D01*
X-12425Y19450D01*
Y23758D01*
X-12311Y23916D01*
X-12152Y24030D01*
X-12071Y24030D01*
X-7898D01*
Y28007D01*
X-7898Y28361D01*
X-7898Y28716D01*
Y32337D01*
X-7898Y32692D01*
X-7898Y33046D01*
Y36668D01*
X-7898Y37023D01*
X-7898Y37377D01*
Y41353D01*
Y45330D01*
X-7897Y45684D01*
X-7543Y45684D01*
X-3921D01*
X-3567Y45684D01*
X-3212Y45684D01*
X4740D01*
X5095Y45684D01*
X5449Y45684D01*
X9071D01*
X9425Y45684D01*
X9425Y45330D01*
Y41353D01*
Y37377D01*
X9425Y37023D01*
X9425Y36668D01*
Y33046D01*
X9425Y32692D01*
X9425Y32337D01*
Y28716D01*
X9425Y28361D01*
X9425Y28007D01*
Y24030D01*
X13680Y24030D01*
X13838Y23916D01*
X13953Y23758D01*
Y19897D01*
Y15959D01*
X20055D01*
Y19897D01*
Y23834D01*
Y28493D01*
X20382Y28629D01*
X23446Y25566D01*
Y21745D01*
X29154D01*
Y21915D01*
X35590D01*
X35610Y21761D01*
X35992Y20840D01*
X36599Y20049D01*
X37390Y19442D01*
X38311Y19060D01*
X39300Y18930D01*
X39985Y19020D01*
X40113Y18680D01*
X40028Y18623D01*
X39546Y17901D01*
X39476Y17550D01*
X41600D01*
Y16550D01*
X39476D01*
X39546Y16199D01*
X40028Y15478D01*
X40749Y14996D01*
X41600Y14826D01*
X42074Y14920D01*
X42253Y14595D01*
X40881Y13156D01*
X37827Y10357D01*
X34593Y7769D01*
X31191Y5405D01*
X27639Y3275D01*
X25795Y2332D01*
X16600Y2373D01*
Y14979D01*
X-15000D01*
Y2767D01*
X-15251Y2517D01*
X-27453Y2572D01*
X-29626Y3702D01*
X-33773Y6312D01*
X-37690Y9255D01*
X-40010Y11317D01*
X-41685Y12865D01*
X-44827Y16264D01*
X-47692Y19899D01*
X-50264Y23748D01*
X-52526Y27787D01*
X-54464Y31991D01*
X-55572Y34995D01*
X-55287Y35205D01*
X-55211Y35147D01*
X-54096Y34685D01*
X-53400Y34594D01*
Y39150D01*
Y43707D01*
X-54096Y43615D01*
X-55211Y43153D01*
X-56168Y42419D01*
X-56903Y41461D01*
X-57033Y41148D01*
X-57401Y41185D01*
X-58225Y45328D01*
X-58769Y49925D01*
X-58827Y51394D01*
X-58490Y51504D01*
X-58472Y51478D01*
X-57751Y50995D01*
X-57400Y50926D01*
Y53050D01*
Y55174D01*
X-57751Y55105D01*
X-58472Y54623D01*
X-58609Y54419D01*
X-58950Y54515D01*
X-58951Y54550D01*
X-58769Y59175D01*
X-58225Y63772D01*
X-57322Y68312D01*
X-56066Y72767D01*
X-54464Y77110D01*
X-52526Y81313D01*
X-50264Y85352D01*
X-47692Y89201D01*
X-44827Y92836D01*
X-41685Y96235D01*
X-38286Y99377D01*
X-35834Y101309D01*
X-35512Y101112D01*
X-35524Y101050D01*
X-31276D01*
X-31345Y101401D01*
X-31827Y102123D01*
X-32549Y102605D01*
X-33259Y102746D01*
X-33336Y103120D01*
X-30802Y104814D01*
X-26763Y107076D01*
X-22559Y109014D01*
X-19895Y109996D01*
X-19573Y109895D01*
X-19485Y109851D01*
X-19455Y109699D01*
X-18972Y108978D01*
X-18251Y108496D01*
X-17900Y108426D01*
Y110550D01*
Y112674D01*
X-18251Y112605D01*
X-18972Y112123D01*
X-19111Y111915D01*
X-19451Y112017D01*
Y121702D01*
X-19000Y122153D01*
X-18992Y122156D01*
X-18651Y122201D01*
X18751D01*
X19035Y122163D01*
D02*
G37*
G36*
X19747Y110116D02*
X20011Y110006D01*
X19994Y109960D01*
X22560Y109014D01*
X26763Y107076D01*
X30802Y104814D01*
X34651Y102242D01*
X38286Y99377D01*
X41685Y96235D01*
X44827Y92836D01*
X47692Y89201D01*
X48325Y88254D01*
X48037Y88047D01*
X47368Y88919D01*
X46411Y89653D01*
X45296Y90115D01*
X44600Y90206D01*
Y86150D01*
X48656D01*
X48565Y86846D01*
X48117Y87928D01*
X48431Y88095D01*
X50264Y85352D01*
X52526Y81313D01*
X54464Y77110D01*
X56066Y72767D01*
X57322Y68312D01*
X58225Y63772D01*
X58769Y59175D01*
X58937Y54899D01*
X58878Y54652D01*
X58852Y54551D01*
X58852Y54550D01*
Y54550D01*
X58852Y54549D01*
X58878Y54448D01*
X58937Y54201D01*
X58769Y49925D01*
X58260Y45624D01*
X58243Y45513D01*
X57325Y41474D01*
X56138Y37505D01*
X54687Y33625D01*
X52978Y29852D01*
X51020Y26202D01*
X48820Y22692D01*
X46390Y19337D01*
X44091Y16576D01*
X43761Y16734D01*
X43824Y17050D01*
X43655Y17901D01*
X43173Y18623D01*
X42451Y19105D01*
X41600Y19274D01*
X41564Y19267D01*
X41414Y19598D01*
X42001Y20049D01*
X42608Y20840D01*
X42990Y21761D01*
X43120Y22750D01*
X42990Y23739D01*
X42608Y24660D01*
X42001Y25451D01*
X41210Y26058D01*
X40289Y26440D01*
X39300Y26570D01*
X38311Y26440D01*
X37390Y26058D01*
X36599Y25451D01*
X35992Y24660D01*
X35615Y23750D01*
X29154D01*
Y26864D01*
X24744D01*
X21022Y30585D01*
X20725Y30784D01*
X20373Y30854D01*
X20055D01*
Y32333D01*
X27283D01*
Y30494D01*
X31811D01*
Y36006D01*
X27283D01*
Y34168D01*
X25614D01*
X25507Y34522D01*
X25819Y34731D01*
X26254Y35382D01*
X26407Y36150D01*
X26254Y36918D01*
X25819Y37569D01*
X25168Y38004D01*
X24400Y38157D01*
X23902Y38058D01*
X23727Y38385D01*
X24786Y39443D01*
X27283D01*
Y37594D01*
X31811D01*
Y42832D01*
X33189D01*
Y37594D01*
X36419D01*
X37653Y36360D01*
X37506Y36006D01*
X33189D01*
Y30494D01*
X37717D01*
Y30873D01*
X38044Y31009D01*
X39578Y29474D01*
X39876Y29275D01*
X39988Y29253D01*
Y27808D01*
X44299D01*
X44602Y27479D01*
X44582Y27270D01*
X44281Y27069D01*
X43846Y26418D01*
X43693Y25650D01*
X43846Y24882D01*
X44281Y24231D01*
X44932Y23796D01*
X45700Y23643D01*
X46468Y23796D01*
X47119Y24231D01*
X47554Y24882D01*
X47707Y25650D01*
X47554Y26418D01*
X47125Y27060D01*
X47874Y27808D01*
X51012D01*
Y31352D01*
Y35092D01*
X49571D01*
Y37694D01*
X50917D01*
Y43206D01*
X46389D01*
Y37694D01*
X47735D01*
Y35092D01*
X46288D01*
Y31352D01*
Y29395D01*
X45168Y28275D01*
X45067Y28124D01*
X44713Y28231D01*
Y31352D01*
Y35092D01*
X41517D01*
X37717Y38892D01*
Y41308D01*
X38044Y41444D01*
X38388Y41100D01*
X38388Y41100D01*
X39687Y39801D01*
X39984Y39602D01*
X40336Y39533D01*
X40483D01*
Y37694D01*
X45011D01*
Y43206D01*
X40483D01*
Y42063D01*
X40156Y41927D01*
X39686Y42398D01*
X39686Y42398D01*
X37684Y44399D01*
X37387Y44598D01*
X37036Y44668D01*
X22500D01*
X22149Y44598D01*
X21851Y44399D01*
X20720Y43268D01*
X20055D01*
Y47456D01*
Y51786D01*
X13953D01*
Y50287D01*
X13756Y50015D01*
X13599Y50015D01*
X9780D01*
X9425Y50015D01*
X9071Y50015D01*
X7139D01*
X6866Y50212D01*
X6866Y50369D01*
Y55920D01*
X18677D01*
X18677Y55920D01*
Y55920D01*
X18980Y55787D01*
X19266Y55596D01*
X20034Y55443D01*
X20802Y55596D01*
X21454Y56031D01*
X21889Y56682D01*
X21981Y57145D01*
X32842D01*
Y59613D01*
X21515D01*
Y59254D01*
X21161Y59065D01*
X20802Y59304D01*
X20034Y59457D01*
X19266Y59304D01*
X18990Y59119D01*
X18677Y59287D01*
Y59868D01*
X19319Y59996D01*
X19970Y60431D01*
X20405Y61082D01*
X20558Y61850D01*
X20405Y62618D01*
X19970Y63269D01*
X19319Y63704D01*
X18551Y63857D01*
X17783Y63704D01*
X17132Y63269D01*
X16796Y62768D01*
X15700D01*
X15349Y62698D01*
X15051Y62499D01*
X13316Y60763D01*
X13316Y60763D01*
X13004Y60452D01*
X12870Y60251D01*
X842D01*
X772Y60605D01*
X1318Y60831D01*
X2183Y61495D01*
X2555Y61980D01*
X2909Y61968D01*
X3138Y61625D01*
X3789Y61190D01*
X4558Y61037D01*
X5325Y61190D01*
X5977Y61625D01*
X6412Y62276D01*
X6565Y63044D01*
X6412Y63812D01*
X6161Y64187D01*
Y64634D01*
X7826D01*
X8360Y64741D01*
X8813Y65043D01*
X9115Y65495D01*
X9140Y65620D01*
X9395Y65875D01*
X9924Y65770D01*
X21728D01*
Y65231D01*
X44956D01*
Y70379D01*
X45310Y70486D01*
X45481Y70231D01*
X46132Y69796D01*
X46900Y69643D01*
X47668Y69796D01*
X48319Y70231D01*
X48754Y70882D01*
X48907Y71650D01*
X48754Y72418D01*
X48411Y72932D01*
X48584Y73286D01*
X49106D01*
Y76936D01*
X42700D01*
Y73286D01*
X45216D01*
X45389Y72932D01*
X45046Y72418D01*
X44893Y71650D01*
X45007Y71076D01*
X44748Y70747D01*
X44740Y70743D01*
X35115D01*
Y73006D01*
X35295Y73286D01*
X41700D01*
Y77436D01*
X42200D01*
Y77936D01*
X49106D01*
Y81586D01*
X46913D01*
X46793Y81940D01*
X47368Y82382D01*
X48103Y83339D01*
X48565Y84454D01*
X48656Y85150D01*
X44100D01*
Y85650D01*
X43600D01*
Y90206D01*
X42904Y90115D01*
X41789Y89653D01*
X40832Y88919D01*
X40097Y87961D01*
X39719Y87049D01*
X39365Y87120D01*
Y88656D01*
X39242Y89275D01*
X38892Y89799D01*
X36765Y91925D01*
Y93971D01*
X32435D01*
Y93664D01*
X29629D01*
X29083Y93773D01*
X27113D01*
X26392Y93629D01*
X25782Y93221D01*
X25374Y92611D01*
X25230Y91890D01*
X25374Y91170D01*
X25782Y90559D01*
X26078Y90361D01*
Y89935D01*
X25628Y89635D01*
X25173Y88954D01*
X25025Y88210D01*
X24671Y88245D01*
Y92843D01*
X26922Y95094D01*
X30017D01*
Y100606D01*
X25489D01*
Y96527D01*
X24438Y95476D01*
X24111Y95612D01*
Y100606D01*
X19916D01*
Y101800D01*
X20445Y102206D01*
X20972Y102892D01*
X21303Y103692D01*
X21416Y104550D01*
X21303Y105408D01*
X20972Y106208D01*
X20445Y106895D01*
X19758Y107422D01*
X18958Y107753D01*
X18100Y107866D01*
X17242Y107753D01*
X17099Y107694D01*
X16911Y107882D01*
X16653Y108054D01*
X16792Y108388D01*
X17100Y108326D01*
X17951Y108496D01*
X18673Y108978D01*
X19155Y109699D01*
X19278Y110321D01*
X19647Y110357D01*
X19747Y110116D01*
D02*
G37*
G36*
X14847Y105029D02*
X14784Y104550D01*
X14897Y103692D01*
X15228Y102892D01*
X15709Y102267D01*
X15609Y101912D01*
X13618D01*
Y97188D01*
Y92794D01*
X16284D01*
Y92601D01*
X16422Y91906D01*
X16816Y91317D01*
X17008Y91125D01*
X17386Y90559D01*
X17997Y90151D01*
X18446Y90062D01*
X18521Y89685D01*
X18128Y89423D01*
X17646Y88701D01*
X17576Y88350D01*
X19700D01*
Y87350D01*
X17576D01*
X17646Y86999D01*
X17975Y86506D01*
X17996Y86168D01*
X17874Y86067D01*
X17386Y85741D01*
X16978Y85130D01*
X16835Y84410D01*
X16932Y83922D01*
X16337Y83328D01*
X15983Y83474D01*
X15983Y84860D01*
X16196Y85126D01*
X16196Y85228D01*
Y87512D01*
X10605D01*
Y85228D01*
X10605Y85126D01*
X10817Y84860D01*
X10817Y84772D01*
Y79614D01*
X15983D01*
Y81370D01*
X16596D01*
X16947Y81440D01*
X17244Y81639D01*
X18230Y82624D01*
X18718Y82527D01*
X20443D01*
X20590Y82173D01*
X19929Y81512D01*
X19710Y81183D01*
X19633Y80796D01*
Y80312D01*
X18677D01*
Y75588D01*
X22614D01*
Y80312D01*
X22096D01*
X21949Y80667D01*
X24374Y83092D01*
X24594Y83420D01*
X24671Y83808D01*
Y88055D01*
X25025Y88090D01*
X25173Y87347D01*
X25628Y86666D01*
X25734Y86595D01*
X25631Y86256D01*
X25267D01*
Y82564D01*
X25437D01*
Y80312D01*
X24386D01*
Y75588D01*
X28323D01*
Y80312D01*
X27272D01*
Y82564D01*
X30929D01*
Y86256D01*
X30565D01*
X30462Y86595D01*
X30567Y86666D01*
X31022Y87347D01*
X31082Y87650D01*
X28098D01*
Y88650D01*
X31082D01*
X31022Y88954D01*
X30567Y89635D01*
X30479Y89693D01*
X30582Y90032D01*
X32435D01*
Y89641D01*
X34481D01*
X35122Y88999D01*
X35100Y88946D01*
Y86294D01*
X34600D01*
Y85794D01*
X32222D01*
Y83916D01*
X34405D01*
X34512Y83562D01*
X34418Y83499D01*
X32358Y81439D01*
X32008Y80915D01*
X31885Y80296D01*
Y70743D01*
X24928D01*
X24820Y71097D01*
X25319Y71431D01*
X25754Y72082D01*
X25907Y72850D01*
X25754Y73618D01*
X25319Y74269D01*
X24668Y74704D01*
X23900Y74857D01*
X23132Y74704D01*
X22481Y74269D01*
X22046Y73618D01*
X21893Y72850D01*
X22046Y72082D01*
X22481Y71431D01*
X22980Y71097D01*
X22873Y70743D01*
X21728D01*
Y70205D01*
X10275D01*
X9140Y71340D01*
X9115Y71465D01*
X8813Y71917D01*
X8678Y72007D01*
Y72433D01*
X8813Y72523D01*
X9115Y72976D01*
X9221Y73510D01*
Y74671D01*
X9115Y75205D01*
X8813Y75657D01*
X8360Y75960D01*
X7856Y76060D01*
Y76661D01*
X9059Y77864D01*
X9388Y78356D01*
X9503Y78936D01*
X9503Y78936D01*
Y85436D01*
X9388Y86016D01*
X9059Y86507D01*
X7102Y88464D01*
Y90259D01*
X6452D01*
Y92355D01*
X6712Y92582D01*
X6806Y92582D01*
X8984D01*
Y95156D01*
X9484D01*
Y95656D01*
X12256D01*
Y96975D01*
Y99050D01*
X9484D01*
Y99550D01*
X8984D01*
Y102125D01*
X6712Y102125D01*
X6615Y102439D01*
Y104982D01*
X6607Y105022D01*
X6832Y105296D01*
X14614D01*
X14847Y105029D01*
D02*
G37*
%LPC*%
G36*
X13900Y119311D02*
X13854Y119309D01*
X13807Y119306D01*
X13761Y119300D01*
X13716Y119291D01*
X13671Y119281D01*
X13626Y119267D01*
X13583Y119252D01*
X13540Y119234D01*
X13498Y119214D01*
X13457Y119192D01*
X13418Y119168D01*
X13379Y119142D01*
X13343Y119113D01*
X13307Y119083D01*
X13274Y119051D01*
X13242Y119018D01*
X13212Y118982D01*
X13183Y118946D01*
X13157Y118907D01*
X13133Y118868D01*
X13111Y118827D01*
X13091Y118785D01*
X13073Y118742D01*
X13058Y118699D01*
X13044Y118654D01*
X13034Y118609D01*
X13025Y118563D01*
X13019Y118517D01*
X13015Y118471D01*
X13014Y118425D01*
Y116850D01*
Y115275D01*
X13015Y115229D01*
X13019Y115183D01*
X13025Y115137D01*
X13034Y115091D01*
X13044Y115046D01*
X13058Y115002D01*
X13073Y114958D01*
X13091Y114915D01*
X13111Y114873D01*
X13133Y114832D01*
X13157Y114793D01*
X13183Y114755D01*
X13212Y114718D01*
X13242Y114683D01*
X13274Y114649D01*
X13307Y114617D01*
X13343Y114587D01*
X13379Y114559D01*
X13418Y114532D01*
X13457Y114508D01*
X13498Y114486D01*
X13540Y114466D01*
X13583Y114448D01*
X13626Y114433D01*
X13671Y114420D01*
X13716Y114409D01*
X13761Y114400D01*
X13807Y114394D01*
X13854Y114391D01*
X13900Y114390D01*
X13946Y114391D01*
X13993Y114394D01*
X14039Y114400D01*
X14084Y114409D01*
X14129Y114420D01*
X14174Y114433D01*
X14218Y114448D01*
X14260Y114466D01*
X14302Y114486D01*
X14343Y114508D01*
X14382Y114532D01*
X14421Y114559D01*
X14457Y114587D01*
X14493Y114617D01*
X14526Y114649D01*
X14558Y114683D01*
X14589Y114718D01*
X14617Y114755D01*
X14643Y114793D01*
X14667Y114832D01*
X14689Y114873D01*
X14709Y114915D01*
X14727Y114958D01*
X14742Y115002D01*
X14756Y115046D01*
X14766Y115091D01*
X14775Y115137D01*
X14781Y115183D01*
X14785Y115229D01*
X14786Y115275D01*
Y116850D01*
Y118425D01*
X14785Y118471D01*
X14781Y118517D01*
X14775Y118563D01*
X14766Y118609D01*
X14756Y118654D01*
X14742Y118699D01*
X14727Y118742D01*
X14709Y118785D01*
X14689Y118827D01*
X14667Y118868D01*
X14643Y118907D01*
X14617Y118946D01*
X14589Y118982D01*
X14558Y119018D01*
X14526Y119051D01*
X14493Y119083D01*
X14457Y119113D01*
X14421Y119142D01*
X14382Y119168D01*
X14343Y119192D01*
X14302Y119214D01*
X14260Y119234D01*
X14218Y119252D01*
X14174Y119267D01*
X14129Y119281D01*
X14084Y119291D01*
X14039Y119300D01*
X13993Y119306D01*
X13946Y119309D01*
X13900Y119311D01*
D02*
G37*
G36*
X-14250D02*
X-14296Y119309D01*
X-14342Y119306D01*
X-14388Y119300D01*
X-14434Y119291D01*
X-14479Y119281D01*
X-14523Y119267D01*
X-14567Y119252D01*
X-14610Y119234D01*
X-14652Y119214D01*
X-14692Y119192D01*
X-14732Y119168D01*
X-14770Y119142D01*
X-14807Y119113D01*
X-14842Y119083D01*
X-14876Y119051D01*
X-14908Y119018D01*
X-14938Y118982D01*
X-14966Y118946D01*
X-14992Y118907D01*
X-15017Y118868D01*
X-15039Y118827D01*
X-15059Y118785D01*
X-15077Y118742D01*
X-15092Y118699D01*
X-15105Y118654D01*
X-15116Y118609D01*
X-15124Y118563D01*
X-15131Y118517D01*
X-15134Y118471D01*
X-15135Y118425D01*
Y116850D01*
Y115275D01*
X-15134Y115229D01*
X-15131Y115183D01*
X-15124Y115137D01*
X-15116Y115091D01*
X-15105Y115046D01*
X-15092Y115002D01*
X-15077Y114958D01*
X-15059Y114915D01*
X-15039Y114873D01*
X-15017Y114832D01*
X-14992Y114793D01*
X-14966Y114755D01*
X-14938Y114718D01*
X-14908Y114683D01*
X-14876Y114649D01*
X-14842Y114617D01*
X-14807Y114587D01*
X-14770Y114559D01*
X-14732Y114532D01*
X-14692Y114508D01*
X-14652Y114486D01*
X-14610Y114466D01*
X-14567Y114448D01*
X-14523Y114433D01*
X-14479Y114420D01*
X-14434Y114409D01*
X-14388Y114400D01*
X-14342Y114394D01*
X-14296Y114391D01*
X-14250Y114390D01*
X-14203Y114391D01*
X-14157Y114394D01*
X-14111Y114400D01*
X-14065Y114409D01*
X-14020Y114420D01*
X-13976Y114433D01*
X-13932Y114448D01*
X-13889Y114466D01*
X-13847Y114486D01*
X-13807Y114508D01*
X-13767Y114532D01*
X-13729Y114559D01*
X-13692Y114587D01*
X-13657Y114617D01*
X-13623Y114649D01*
X-13591Y114683D01*
X-13561Y114718D01*
X-13533Y114755D01*
X-13507Y114793D01*
X-13482Y114832D01*
X-13460Y114873D01*
X-13440Y114915D01*
X-13422Y114958D01*
X-13407Y115002D01*
X-13394Y115046D01*
X-13383Y115091D01*
X-13375Y115137D01*
X-13369Y115183D01*
X-13365Y115229D01*
X-13364Y115275D01*
Y116850D01*
Y118425D01*
X-13365Y118471D01*
X-13369Y118517D01*
X-13375Y118563D01*
X-13383Y118609D01*
X-13394Y118654D01*
X-13407Y118699D01*
X-13422Y118742D01*
X-13440Y118785D01*
X-13460Y118827D01*
X-13482Y118868D01*
X-13507Y118907D01*
X-13533Y118946D01*
X-13561Y118982D01*
X-13591Y119018D01*
X-13623Y119051D01*
X-13657Y119083D01*
X-13692Y119113D01*
X-13729Y119142D01*
X-13767Y119168D01*
X-13807Y119192D01*
X-13847Y119214D01*
X-13889Y119234D01*
X-13932Y119252D01*
X-13976Y119267D01*
X-14020Y119281D01*
X-14065Y119291D01*
X-14111Y119300D01*
X-14157Y119306D01*
X-14203Y119309D01*
X-14250Y119311D01*
D02*
G37*
G36*
X16600Y112674D02*
X16249Y112605D01*
X15528Y112123D01*
X15045Y111401D01*
X14976Y111050D01*
X16600D01*
Y112674D01*
D02*
G37*
G36*
X-16900D02*
Y111050D01*
X-15276D01*
X-15345Y111401D01*
X-15827Y112123D01*
X-16549Y112605D01*
X-16900Y112674D01*
D02*
G37*
G36*
X-15276Y110050D02*
X-16900D01*
Y108426D01*
X-16549Y108496D01*
X-15827Y108978D01*
X-15345Y109699D01*
X-15276Y110050D01*
D02*
G37*
G36*
X-5793Y110567D02*
X-7080D01*
Y107311D01*
X-5793D01*
Y110567D01*
D02*
G37*
G36*
X-31276Y100050D02*
X-32900D01*
Y98426D01*
X-32549Y98496D01*
X-31827Y98978D01*
X-31345Y99699D01*
X-31276Y100050D01*
D02*
G37*
G36*
X-33900D02*
X-35524D01*
X-35454Y99699D01*
X-34972Y98978D01*
X-34251Y98496D01*
X-33900Y98426D01*
Y100050D01*
D02*
G37*
G36*
X-35400Y94661D02*
X-39050D01*
Y92193D01*
X-35400D01*
Y94661D01*
D02*
G37*
G36*
X-3128Y93788D02*
X-5400D01*
Y91812D01*
X-3128D01*
Y93788D01*
D02*
G37*
G36*
X-40418Y90493D02*
X-40769Y90423D01*
X-41491Y89941D01*
X-41973Y89219D01*
X-42043Y88868D01*
X-40418D01*
Y90493D01*
D02*
G37*
G36*
X-50400Y80674D02*
Y79050D01*
X-48776D01*
X-48845Y79401D01*
X-49327Y80123D01*
X-50049Y80605D01*
X-50400Y80674D01*
D02*
G37*
G36*
X-51400D02*
X-51751Y80605D01*
X-52472Y80123D01*
X-52955Y79401D01*
X-53024Y79050D01*
X-51400D01*
Y80674D01*
D02*
G37*
G36*
Y78050D02*
X-53024D01*
X-52955Y77699D01*
X-52472Y76978D01*
X-51751Y76496D01*
X-51400Y76426D01*
Y78050D01*
D02*
G37*
G36*
X-42571Y71634D02*
X-45000D01*
Y69421D01*
X-42571D01*
Y71634D01*
D02*
G37*
G36*
X-46000D02*
X-48429D01*
Y69421D01*
X-46000D01*
Y71634D01*
D02*
G37*
G36*
X-12328Y70672D02*
X-14600D01*
Y68597D01*
X-12328D01*
Y70672D01*
D02*
G37*
G36*
X-15600D02*
X-17872D01*
Y68597D01*
X-15600D01*
Y70672D01*
D02*
G37*
G36*
X-42571Y68421D02*
X-45000D01*
Y66208D01*
X-42571D01*
Y68421D01*
D02*
G37*
G36*
X-46000D02*
X-48429D01*
Y66208D01*
X-46000D01*
Y68421D01*
D02*
G37*
G36*
X-42783Y65279D02*
X-48217D01*
Y60279D01*
X-47578D01*
Y58608D01*
X-45200D01*
X-42822D01*
Y59973D01*
X-41190D01*
Y59910D01*
X-41113Y59524D01*
X-40895Y59197D01*
X-40568Y58979D01*
X-40183Y58902D01*
X-36253D01*
X-35868Y58979D01*
X-35541Y59197D01*
X-35323Y59524D01*
X-35246Y59910D01*
Y61871D01*
X-35323Y62256D01*
X-35541Y62583D01*
X-35868Y62801D01*
X-36253Y62878D01*
X-40183D01*
X-40568Y62801D01*
X-40895Y62583D01*
X-41113Y62256D01*
X-41190Y61871D01*
Y61808D01*
X-42783D01*
Y65279D01*
D02*
G37*
G36*
X-42822Y57608D02*
X-44700D01*
Y55828D01*
X-42822D01*
Y57608D01*
D02*
G37*
G36*
X-22600Y51357D02*
X-23368Y51204D01*
X-24019Y50769D01*
X-24454Y50118D01*
X-24607Y49350D01*
X-24454Y48582D01*
X-24019Y47931D01*
X-23368Y47496D01*
X-23041Y47431D01*
Y47069D01*
X-23368Y47004D01*
X-24019Y46569D01*
X-24454Y45918D01*
X-24607Y45150D01*
X-24454Y44382D01*
X-24019Y43731D01*
X-23549Y43417D01*
X-23540Y42996D01*
X-23972Y42707D01*
X-26035D01*
Y43260D01*
X-30365D01*
Y39126D01*
X-30626Y38898D01*
X-30786D01*
X-30786Y34442D01*
X-30999Y34176D01*
X-30999Y34070D01*
Y32183D01*
X-28400D01*
X-25801D01*
Y34070D01*
X-25801Y34176D01*
X-26014Y34442D01*
X-26014Y34531D01*
Y38780D01*
X-26014Y38898D01*
X-26014D01*
X-26035Y39126D01*
X-26035D01*
Y39678D01*
X-23737D01*
X-23347Y39417D01*
X-22579Y39264D01*
X-21811Y39417D01*
X-21159Y39852D01*
X-20724Y40503D01*
X-20572Y41271D01*
X-20724Y42039D01*
X-21159Y42691D01*
X-21630Y43005D01*
X-21638Y43425D01*
X-21181Y43731D01*
X-20746Y44382D01*
X-20593Y45150D01*
X-20746Y45918D01*
X-21181Y46569D01*
X-21832Y47004D01*
X-22159Y47069D01*
Y47431D01*
X-21832Y47496D01*
X-21181Y47931D01*
X-20746Y48582D01*
X-20593Y49350D01*
X-20746Y50118D01*
X-21181Y50769D01*
X-21832Y51204D01*
X-22600Y51357D01*
D02*
G37*
G36*
X-33525Y43375D02*
X-35600D01*
Y41104D01*
X-33525D01*
Y43375D01*
D02*
G37*
G36*
X-36600D02*
X-38675D01*
Y41104D01*
X-36600D01*
Y43375D01*
D02*
G37*
G36*
X-52400Y43707D02*
Y39650D01*
X-48344D01*
X-48435Y40346D01*
X-48897Y41461D01*
X-49632Y42419D01*
X-50589Y43153D01*
X-51704Y43615D01*
X-52400Y43707D01*
D02*
G37*
G36*
X-40901Y40883D02*
X-43000D01*
Y38889D01*
X-40901D01*
Y40883D01*
D02*
G37*
G36*
X-44000D02*
X-46099D01*
Y38889D01*
X-44000D01*
Y40883D01*
D02*
G37*
G36*
X-33525Y40104D02*
X-35600D01*
Y37832D01*
X-33525D01*
Y40104D01*
D02*
G37*
G36*
X-48344Y38650D02*
X-52400D01*
Y34594D01*
X-51704Y34685D01*
X-50589Y35147D01*
X-49632Y35882D01*
X-48897Y36839D01*
X-48435Y37954D01*
X-48344Y38650D01*
D02*
G37*
G36*
X-21300Y35774D02*
Y34150D01*
X-19676D01*
X-19745Y34501D01*
X-20227Y35223D01*
X-20949Y35705D01*
X-21300Y35774D01*
D02*
G37*
G36*
X-22300D02*
X-22651Y35705D01*
X-23372Y35223D01*
X-23855Y34501D01*
X-23924Y34150D01*
X-22300D01*
Y35774D01*
D02*
G37*
G36*
X-19676Y33150D02*
X-21300D01*
Y31526D01*
X-20949Y31596D01*
X-20227Y32078D01*
X-19745Y32799D01*
X-19676Y33150D01*
D02*
G37*
G36*
X-22300D02*
X-23924D01*
X-23855Y32799D01*
X-23372Y32078D01*
X-22651Y31596D01*
X-22300Y31526D01*
Y33150D01*
D02*
G37*
G36*
X-25801Y31183D02*
X-27900D01*
Y29189D01*
X-25801D01*
Y31183D01*
D02*
G37*
G36*
X-28900D02*
X-30999D01*
Y29189D01*
X-28900D01*
Y31183D01*
D02*
G37*
G36*
X-36600Y40104D02*
X-38675D01*
Y37832D01*
X-38675Y37832D01*
X-38998Y37778D01*
X-39289Y37740D01*
X-40210Y37358D01*
X-41001Y36751D01*
X-41608Y35960D01*
X-41990Y35039D01*
X-42120Y34050D01*
X-41990Y33061D01*
X-41608Y32140D01*
X-41001Y31349D01*
X-40210Y30742D01*
X-39289Y30360D01*
X-39183Y30346D01*
X-38977Y30058D01*
X-39006Y29912D01*
X-38853Y29144D01*
X-38418Y28493D01*
X-37767Y28057D01*
X-36999Y27905D01*
X-36231Y28057D01*
X-35580Y28493D01*
X-35145Y29144D01*
X-34992Y29912D01*
X-35145Y30680D01*
X-35580Y31331D01*
X-35385Y31627D01*
X-34992Y32140D01*
X-34610Y33061D01*
X-34480Y34050D01*
X-34610Y35039D01*
X-34992Y35960D01*
X-35599Y36751D01*
X-36390Y37358D01*
X-36678Y37478D01*
X-36607Y37832D01*
X-36600D01*
Y40104D01*
D02*
G37*
G36*
X-31709Y28117D02*
X-34079D01*
Y25550D01*
X-31709D01*
Y28117D01*
D02*
G37*
G36*
Y24550D02*
X-34079D01*
Y21983D01*
X-31709D01*
Y24550D01*
D02*
G37*
G36*
Y21117D02*
X-34079D01*
Y18550D01*
X-31709D01*
Y21117D01*
D02*
G37*
G36*
Y17550D02*
X-34079D01*
Y16914D01*
X-34433Y16748D01*
X-35186Y17060D01*
X-35600Y17115D01*
Y14150D01*
X-32636D01*
X-32690Y14564D01*
X-32742Y14689D01*
X-32545Y14983D01*
X-31709D01*
Y17550D01*
D02*
G37*
G36*
X-47000Y34970D02*
X-47989Y34840D01*
X-48910Y34458D01*
X-49701Y33851D01*
X-50308Y33060D01*
X-50690Y32139D01*
X-50820Y31150D01*
X-50690Y30161D01*
X-50308Y29240D01*
X-49701Y28449D01*
X-48910Y27842D01*
X-47989Y27460D01*
X-47000Y27330D01*
X-46011Y27460D01*
X-45090Y27842D01*
X-44704Y28138D01*
X-44651Y28102D01*
X-44605Y28093D01*
X-44563Y28071D01*
X-44431Y28058D01*
X-44300Y28032D01*
X-43854D01*
X-43519Y27531D01*
X-43206Y27322D01*
X-43293Y27000D01*
X-43315Y26968D01*
X-44289Y26840D01*
X-45210Y26458D01*
X-46001Y25851D01*
X-46608Y25060D01*
X-46990Y24139D01*
X-47120Y23150D01*
X-46990Y22161D01*
X-46608Y21240D01*
X-46001Y20449D01*
X-45210Y19842D01*
X-44289Y19460D01*
X-43300Y19330D01*
X-42311Y19460D01*
X-41723Y19704D01*
X-41307Y19288D01*
X-41354Y19218D01*
X-41507Y18450D01*
X-41354Y17682D01*
X-40919Y17031D01*
X-40268Y16596D01*
X-39500Y16443D01*
X-38732Y16596D01*
X-38081Y17031D01*
X-37646Y17682D01*
X-37493Y18450D01*
X-37646Y19218D01*
X-38081Y19869D01*
X-38732Y20304D01*
X-39500Y20457D01*
X-39817Y20394D01*
X-40283Y20860D01*
X-39992Y21240D01*
X-39610Y22161D01*
X-39480Y23150D01*
X-39610Y24139D01*
X-39992Y25060D01*
X-40599Y25851D01*
X-41390Y26458D01*
X-41822Y26637D01*
X-41785Y27006D01*
X-41332Y27096D01*
X-40681Y27531D01*
X-40246Y28182D01*
X-40093Y28950D01*
X-40246Y29718D01*
X-40681Y30369D01*
X-41332Y30804D01*
X-42100Y30957D01*
X-42868Y30804D01*
X-42903Y30781D01*
X-43204Y30968D01*
X-43180Y31150D01*
X-43310Y32139D01*
X-43692Y33060D01*
X-44299Y33851D01*
X-45090Y34458D01*
X-46011Y34840D01*
X-47000Y34970D01*
D02*
G37*
G36*
X7700Y23957D02*
X6932Y23804D01*
X6281Y23369D01*
X5846Y22718D01*
X5693Y21950D01*
X5846Y21182D01*
X6281Y20531D01*
X6472Y20403D01*
Y15369D01*
X10803D01*
Y21471D01*
X9891D01*
X9666Y21745D01*
X9707Y21950D01*
X9554Y22718D01*
X9119Y23369D01*
X8468Y23804D01*
X7700Y23957D01*
D02*
G37*
G36*
X2929Y21471D02*
X-1402D01*
Y15369D01*
X2929D01*
Y21471D01*
D02*
G37*
G36*
X35100Y18119D02*
Y14650D01*
X38569D01*
X38497Y15194D01*
X38094Y16167D01*
X37453Y17003D01*
X36617Y17644D01*
X35644Y18047D01*
X35100Y18119D01*
D02*
G37*
G36*
X29154Y21155D02*
X23446D01*
Y16037D01*
X29154D01*
Y17932D01*
X29846D01*
X30181Y17431D01*
X30832Y16996D01*
X31234Y16916D01*
X31381Y16525D01*
X31106Y16167D01*
X30703Y15194D01*
X30631Y14650D01*
X34100D01*
Y18119D01*
X33816Y18081D01*
X33518Y18399D01*
X33607Y18850D01*
X33454Y19618D01*
X33019Y20269D01*
X32368Y20704D01*
X31600Y20857D01*
X30832Y20704D01*
X30181Y20269D01*
X29846Y19768D01*
X29154D01*
Y21155D01*
D02*
G37*
G36*
X-36600Y17115D02*
X-37014Y17060D01*
X-37865Y16707D01*
X-38596Y16146D01*
X-39157Y15415D01*
X-39510Y14564D01*
X-39564Y14150D01*
X-36600D01*
Y17115D01*
D02*
G37*
G36*
X-32636Y13150D02*
X-35600D01*
Y10186D01*
X-35186Y10240D01*
X-34335Y10593D01*
X-33604Y11154D01*
X-33043Y11885D01*
X-32690Y12736D01*
X-32636Y13150D01*
D02*
G37*
G36*
X-36600D02*
X-39564D01*
X-39510Y12736D01*
X-39157Y11885D01*
X-38596Y11154D01*
X-37865Y10593D01*
X-37014Y10240D01*
X-36600Y10186D01*
Y13150D01*
D02*
G37*
G36*
X38569Y13650D02*
X35100D01*
Y10181D01*
X35644Y10253D01*
X36617Y10656D01*
X37453Y11297D01*
X38094Y12133D01*
X38497Y13106D01*
X38569Y13650D01*
D02*
G37*
G36*
X34100D02*
X30631D01*
X30703Y13106D01*
X31106Y12133D01*
X31747Y11297D01*
X32583Y10656D01*
X33556Y10253D01*
X34100Y10181D01*
Y13650D01*
D02*
G37*
G36*
Y101674D02*
Y100050D01*
X35724D01*
X35655Y100401D01*
X35173Y101123D01*
X34451Y101605D01*
X34100Y101674D01*
D02*
G37*
G36*
X33100D02*
X32749Y101605D01*
X32028Y101123D01*
X31545Y100401D01*
X31476Y100050D01*
X33100D01*
Y101674D01*
D02*
G37*
G36*
X35724Y99050D02*
X34100D01*
Y97426D01*
X34451Y97496D01*
X35173Y97978D01*
X35655Y98699D01*
X35724Y99050D01*
D02*
G37*
G36*
X33100D02*
X31476D01*
X31545Y98699D01*
X32028Y97978D01*
X32749Y97496D01*
X33100Y97426D01*
Y99050D01*
D02*
G37*
G36*
X52600Y77175D02*
Y75550D01*
X54224D01*
X54155Y75901D01*
X53673Y76623D01*
X52951Y77105D01*
X52600Y77175D01*
D02*
G37*
G36*
X51600D02*
X51249Y77105D01*
X50528Y76623D01*
X50046Y75901D01*
X49976Y75550D01*
X51600D01*
Y77175D01*
D02*
G37*
G36*
X54224Y74550D02*
X52600D01*
Y72926D01*
X52951Y72996D01*
X53673Y73478D01*
X54155Y74199D01*
X54224Y74550D01*
D02*
G37*
G36*
X51600D02*
X49976D01*
X50046Y74199D01*
X50528Y73478D01*
X51249Y72996D01*
X51600Y72926D01*
Y74550D01*
D02*
G37*
G36*
X54100Y68674D02*
Y67050D01*
X55724D01*
X55655Y67401D01*
X55173Y68123D01*
X54451Y68605D01*
X54100Y68674D01*
D02*
G37*
G36*
X53100D02*
X52749Y68605D01*
X52028Y68123D01*
X51546Y67401D01*
X51476Y67050D01*
X53100D01*
Y68674D01*
D02*
G37*
G36*
X55724Y66050D02*
X54100D01*
Y64426D01*
X54451Y64496D01*
X55173Y64978D01*
X55655Y65699D01*
X55724Y66050D01*
D02*
G37*
G36*
X53100D02*
X51476D01*
X51546Y65699D01*
X52028Y64978D01*
X52749Y64496D01*
X53100Y64426D01*
Y66050D01*
D02*
G37*
G36*
X45169Y63082D02*
X33842D01*
Y60613D01*
X45169D01*
Y63082D01*
D02*
G37*
G36*
X32842D02*
X21515D01*
Y60613D01*
X32842D01*
Y63082D01*
D02*
G37*
G36*
X45169Y59613D02*
X33842D01*
Y57145D01*
X45169D01*
Y59613D01*
D02*
G37*
G36*
X55600Y58175D02*
Y56550D01*
X57224D01*
X57155Y56901D01*
X56673Y57623D01*
X55951Y58105D01*
X55600Y58175D01*
D02*
G37*
G36*
X54600D02*
X54249Y58105D01*
X53528Y57623D01*
X53045Y56901D01*
X52976Y56550D01*
X54600D01*
Y58175D01*
D02*
G37*
G36*
X57224Y55550D02*
X55600D01*
Y53926D01*
X55951Y53996D01*
X56673Y54478D01*
X57155Y55199D01*
X57224Y55550D01*
D02*
G37*
G36*
X54600D02*
X52976D01*
X53045Y55199D01*
X53528Y54478D01*
X54249Y53996D01*
X54600Y53926D01*
Y55550D01*
D02*
G37*
G36*
X26285Y53933D02*
Y52309D01*
X27910D01*
X27840Y52660D01*
X27358Y53381D01*
X26636Y53863D01*
X26285Y53933D01*
D02*
G37*
G36*
X25285D02*
X24934Y53863D01*
X24213Y53381D01*
X23731Y52660D01*
X23661Y52309D01*
X25285D01*
Y53933D01*
D02*
G37*
G36*
X49106Y54814D02*
X42700D01*
Y51164D01*
X49106D01*
Y54814D01*
D02*
G37*
G36*
X41700D02*
X35295D01*
Y51164D01*
X41700D01*
Y54814D01*
D02*
G37*
G36*
X27910Y51309D02*
X26285D01*
Y49684D01*
X26636Y49754D01*
X27358Y50236D01*
X27840Y50958D01*
X27910Y51309D01*
D02*
G37*
G36*
X25285D02*
X23661D01*
X23731Y50958D01*
X24213Y50236D01*
X24934Y49754D01*
X25285Y49684D01*
Y51309D01*
D02*
G37*
G36*
X55100Y48175D02*
Y46550D01*
X56724D01*
X56655Y46901D01*
X56173Y47623D01*
X55451Y48105D01*
X55100Y48175D01*
D02*
G37*
G36*
X54100D02*
X53749Y48105D01*
X53028Y47623D01*
X52545Y46901D01*
X52476Y46550D01*
X54100D01*
Y48175D01*
D02*
G37*
G36*
X49106Y50164D02*
X42700D01*
Y46515D01*
X49106D01*
Y50164D01*
D02*
G37*
G36*
X41700D02*
X35295D01*
Y46515D01*
X41700D01*
Y50164D01*
D02*
G37*
G36*
X56724Y45550D02*
X55100D01*
Y43926D01*
X55451Y43995D01*
X56173Y44478D01*
X56655Y45199D01*
X56724Y45550D01*
D02*
G37*
G36*
X54100D02*
X52476D01*
X52545Y45199D01*
X53028Y44478D01*
X53749Y43995D01*
X54100Y43926D01*
Y45550D01*
D02*
G37*
G36*
X9984Y102125D02*
Y100050D01*
X12256D01*
Y102125D01*
X9984D01*
D02*
G37*
G36*
X12256Y94656D02*
X9984D01*
Y92582D01*
X12256D01*
Y94656D01*
D02*
G37*
G36*
X16196Y90898D02*
X13900D01*
Y88512D01*
X16196D01*
Y90898D01*
D02*
G37*
G36*
X12900D02*
X10605D01*
Y88512D01*
X12900D01*
Y90898D01*
D02*
G37*
G36*
X34100Y88672D02*
X32222D01*
Y86794D01*
X34100D01*
Y88672D01*
D02*
G37*
%LPD*%
D11*
X23658Y83808D02*
Y93263D01*
X-39405Y88368D02*
X-36081Y91693D01*
X-39918Y88368D02*
X-39405D01*
X-34900Y91693D02*
X-25451D01*
X-36081D02*
X-34900D01*
X20646Y77950D02*
Y80796D01*
X23658Y83808D01*
X39444Y50664D02*
X42200D01*
X36688Y53420D02*
X39444Y50664D01*
X36688Y53420D02*
Y58538D01*
X35113Y60113D02*
X36688Y58538D01*
X33342Y60113D02*
X35113D01*
X23658Y93263D02*
X27753Y97358D01*
Y97850D01*
X21847Y93144D02*
Y97850D01*
X20594Y91890D02*
X21847Y93144D01*
D15*
X16177Y95156D02*
D03*
X9484D02*
D03*
X16177Y99550D02*
D03*
X9484D02*
D03*
D16*
X4943Y106811D02*
D03*
X2384D02*
D03*
X-175D02*
D03*
X-2734D02*
D03*
X-5293D02*
D03*
D17*
X-36100Y40604D02*
D03*
Y47297D02*
D03*
D18*
X-25451Y91693D02*
D03*
Y81850D02*
D03*
Y72008D02*
D03*
X-34900D02*
D03*
Y81850D02*
D03*
Y91693D02*
D03*
D19*
X-15100Y74003D02*
D03*
Y68097D02*
D03*
D20*
X-15300Y92007D02*
D03*
Y81377D02*
D03*
D21*
X29547Y40350D02*
D03*
X35453D02*
D03*
X27753Y97850D02*
D03*
X21847D02*
D03*
X48653Y40450D02*
D03*
X42747D02*
D03*
X35453Y33250D02*
D03*
X29547D02*
D03*
D22*
X-15476Y49621D02*
D03*
Y45684D02*
D03*
Y41747D02*
D03*
Y37810D02*
D03*
Y33873D02*
D03*
Y29936D02*
D03*
Y25999D02*
D03*
Y22062D02*
D03*
Y18125D02*
D03*
X17004D02*
D03*
Y22062D02*
D03*
Y25999D02*
D03*
Y29936D02*
D03*
Y33873D02*
D03*
Y37810D02*
D03*
Y41747D02*
D03*
Y45684D02*
D03*
Y49621D02*
D03*
D23*
X764Y18420D02*
D03*
X-7110D02*
D03*
X-3173D02*
D03*
X4701D02*
D03*
X8638D02*
D03*
D24*
Y53263D02*
D03*
X4701D02*
D03*
X764D02*
D03*
X-3173D02*
D03*
X-7110D02*
D03*
D25*
X-10063Y47849D02*
D03*
Y43519D02*
D03*
Y39188D02*
D03*
Y34857D02*
D03*
Y30527D02*
D03*
Y26196D02*
D03*
X11591D02*
D03*
Y30527D02*
D03*
Y34857D02*
D03*
Y39188D02*
D03*
Y43519D02*
D03*
Y47849D02*
D03*
X7260D02*
D03*
X2929D02*
D03*
X-1402D02*
D03*
X-5732D02*
D03*
X16512Y58086D02*
D03*
X12575D02*
D03*
X8638D02*
D03*
X4701D02*
D03*
X764D02*
D03*
X-3173D02*
D03*
X-7110D02*
D03*
X-11047D02*
D03*
X-14984D02*
D03*
X-1500Y42633D02*
D03*
X3028D02*
D03*
X-6027Y38105D02*
D03*
X-1500D02*
D03*
X3028D02*
D03*
X7555D02*
D03*
X-1500Y33578D02*
D03*
X3028D02*
D03*
X-6027Y29050D02*
D03*
X-1500D02*
D03*
X3028D02*
D03*
X7555D02*
D03*
X-16362Y14188D02*
D03*
X17890D02*
D03*
X-16362Y4149D02*
D03*
X17890D02*
D03*
D26*
X28098Y84410D02*
D03*
D27*
Y88150D02*
D03*
Y91890D02*
D03*
X19702D02*
D03*
Y84410D02*
D03*
D28*
X13400Y88012D02*
D03*
Y82288D02*
D03*
D29*
X33342Y60113D02*
D03*
Y67987D02*
D03*
D30*
X42200Y50664D02*
D03*
Y77436D02*
D03*
D31*
X4550Y116850D02*
D03*
X-4899D02*
D03*
D32*
X34600Y86294D02*
D03*
Y91806D02*
D03*
D33*
X26354Y77950D02*
D03*
X20646D02*
D03*
D34*
X48650Y29678D02*
D03*
Y33222D02*
D03*
X42351D02*
D03*
Y29678D02*
D03*
D35*
X-17859Y98650D02*
D03*
X-12741D02*
D03*
D36*
X-28400Y31683D02*
D03*
Y36617D02*
D03*
X-43500Y41383D02*
D03*
Y46317D02*
D03*
D37*
X-38218Y53410D02*
D03*
Y60890D02*
D03*
X-27982D02*
D03*
Y57150D02*
D03*
Y53410D02*
D03*
D38*
X6025Y66610D02*
D03*
Y70350D02*
D03*
Y74090D02*
D03*
X-3857Y66610D02*
D03*
Y70350D02*
D03*
Y74090D02*
D03*
D39*
X-45200Y58108D02*
D03*
Y52793D02*
D03*
X-28200Y41193D02*
D03*
Y46508D02*
D03*
D40*
X26300Y24304D02*
D03*
Y18596D02*
D03*
D41*
X-5900Y94288D02*
D03*
Y99012D02*
D03*
D42*
X-45500Y68921D02*
D03*
Y62779D02*
D03*
D43*
X-25500Y25050D02*
D03*
X-31209D02*
D03*
X-25500Y18050D02*
D03*
X-31209D02*
D03*
D57*
X-2937Y87503D02*
D03*
D58*
Y80810D02*
D03*
X4937D02*
D03*
Y88290D02*
D03*
D62*
X-30176Y68464D02*
D03*
Y95236D02*
D03*
D64*
X13400Y88012D02*
G03*
X13562Y87850I162J0D01*
G01*
X-39845Y18887D02*
G03*
X-39500Y18450I590J111D01*
G01*
X-39865Y18995D02*
G03*
X-40033Y19312I-590J-110D01*
G01*
X-42500Y22027D02*
G03*
X-42324Y21603I600J0D01*
G01*
X-12741Y98650D02*
Y110509D01*
X-10037Y113213D02*
X-8339D01*
X-12741Y110509D02*
X-10037Y113213D01*
X-4899Y116653D02*
Y116850D01*
X-8339Y113213D02*
X-4899Y116653D01*
X13562Y87850D02*
X19700D01*
X-7110Y53263D02*
X-6032Y52185D01*
X34493Y86401D02*
X34600Y86294D01*
X-35992Y67143D02*
X-30512Y61662D01*
X-39137Y69589D02*
Y74613D01*
Y69589D02*
X-36691Y67143D01*
X-35992D01*
X-30512Y61662D02*
X-28754D01*
X-27982Y60890D01*
X7700Y19358D02*
X8638Y18420D01*
X7700Y19358D02*
Y21950D01*
X-12473Y116850D02*
X-4899D01*
X17607Y42350D02*
X21100D01*
X22500Y43750D01*
X17004Y41747D02*
X17607Y42350D01*
X37036Y43750D02*
X39037Y41749D01*
X22500Y43750D02*
X37036D01*
X-34900Y72008D02*
X-25451D01*
X-34900Y81850D02*
X-25451D01*
X12575Y58086D02*
X13653Y59163D01*
Y59803D01*
X13964Y60114D02*
Y60114D01*
X13653Y59803D02*
X13964Y60114D01*
Y60114D02*
X15700Y61850D01*
X18551D01*
X-5569Y89171D02*
X-4015D01*
X-9900Y93502D02*
X-5569Y89171D01*
X-9900Y95308D02*
X-6195Y99012D01*
X-9900Y93502D02*
Y95308D01*
X-39137Y74613D02*
X-34900Y78850D01*
Y81850D01*
X35453Y33250D02*
X35830Y32873D01*
X37478D01*
X41906Y30123D02*
X42351Y29678D01*
X37478Y32873D02*
X40227Y30123D01*
X41906D01*
X39037Y41749D02*
Y41749D01*
X40336Y40450D02*
X42747D01*
X39037Y41749D02*
X40336Y40450D01*
X-10500Y18150D02*
X-7380D01*
X17147Y57450D02*
X20034D01*
X-7380Y18150D02*
X-7110Y18420D01*
X-15000Y58086D02*
X-14984D01*
X16512D02*
X17147Y57450D01*
X-47000Y31150D02*
X-44300Y28950D01*
X-42100D01*
X-35609Y13650D02*
X-31209Y18050D01*
X-36100Y13650D02*
X-35609D01*
X-42500Y22027D02*
Y23450D01*
X-39865Y18995D02*
X-39845Y18887D01*
X-39500Y18450D02*
X-39500Y18450D01*
X-42324Y21603D02*
X-40033Y19312D01*
X-43300Y23150D02*
X-42500Y23450D01*
X-15100Y74003D02*
Y80813D01*
X-15300Y81013D02*
X-15100Y80813D01*
X-12379Y99012D02*
X-6195D01*
X-5900D01*
X-2937Y87503D02*
Y88093D01*
X-4015Y89171D02*
X-2937Y88093D01*
X26300Y18596D02*
X26554Y18850D01*
X31600D01*
X4550Y116850D02*
X12124D01*
X-4899D02*
X4550D01*
X-12741Y98650D02*
X-12379Y99012D01*
X13400Y82288D02*
X16596D01*
X18718Y84410D01*
X19702D01*
X-43394Y60890D02*
X-38218D01*
X-45283Y62779D02*
X-43394Y60890D01*
X-45500Y62779D02*
X-45283D01*
X-28400Y31683D02*
X-23767D01*
X-21800Y33650D01*
X-15699D02*
X-15476Y33873D01*
X-21800Y33650D02*
X-15699D01*
X-31209Y18050D02*
Y25050D01*
X-25451Y72008D02*
X-17292D01*
X-15297Y74003D01*
X-15100D01*
X26005Y24304D02*
X26300D01*
X20373Y29936D02*
X26005Y24304D01*
X17004Y29936D02*
X20373D01*
X39217Y22833D02*
X39300Y22750D01*
X27772Y22833D02*
X39217D01*
X26300Y24304D02*
X27772Y22833D01*
X48653Y33225D02*
Y40450D01*
X48650Y33222D02*
X48653Y33225D01*
X35453Y39858D02*
Y40350D01*
Y39858D02*
X41076Y34235D01*
Y34004D02*
Y34235D01*
Y34004D02*
X41858Y33222D01*
X42351D01*
X17627Y33250D02*
X29547D01*
X17004Y33873D02*
X17627Y33250D01*
X29400Y40214D02*
X29547Y40361D01*
X24406D02*
X29547D01*
X22933Y38888D02*
X24406Y40361D01*
X18082Y38888D02*
X22933D01*
X17004Y37810D02*
X18082Y38888D01*
X29400Y39850D02*
Y40214D01*
Y39850D02*
X29547Y39997D01*
Y40350D01*
X26354Y77950D02*
Y83651D01*
X27113Y84410D01*
X28098D01*
D65*
X-7695Y63984D02*
G03*
X-11047Y60632I0J-3352D01*
G01*
X-771Y61298D02*
G03*
X2381Y64450I0J3152D01*
G01*
X-637Y63984D02*
G03*
X-171Y64450I0J466D01*
G01*
Y106811D01*
X2381D02*
X2384D01*
X2381Y64450D02*
Y106811D01*
X-7695Y63984D02*
X-637D01*
X-11047Y58086D02*
Y60632D01*
X-15000Y59750D02*
X-13553Y61369D01*
X-5873Y61298D02*
X-771D01*
X-15000Y58086D02*
Y59750D01*
X-175Y106811D02*
X-171D01*
X-6007Y61432D02*
X-5873Y61298D01*
D66*
X15062Y114370D02*
D03*
X-13994Y114015D02*
D03*
D67*
X-47000Y31150D02*
D03*
X34600Y14150D02*
D03*
X39300Y22750D02*
D03*
X-43300Y23150D02*
D03*
X-38300Y34050D02*
D03*
D68*
X34010Y85704D02*
X34600Y86294D01*
X34010Y84425D02*
Y85704D01*
X33751Y84167D02*
X34010Y84425D01*
X32744Y88150D02*
X34493Y86401D01*
X-15300Y81013D02*
X-13695Y79408D01*
X-12258D02*
X-6940Y74090D01*
X-5135D01*
X-3857D01*
X-13695Y79408D02*
X-12258D01*
X37750Y86700D02*
Y86897D01*
X4558Y63044D02*
X4747Y63610D01*
X6341Y66610D02*
X7562D01*
X5121D02*
X6341D01*
X4747Y66236D02*
X5121Y66610D01*
X4747Y63610D02*
Y66236D01*
X-49598Y52821D02*
X-45229D01*
X-49627Y52850D02*
X-49598Y52821D01*
X-19800Y57650D02*
Y60106D01*
X-10300Y65673D02*
Y70450D01*
X-11222Y64750D02*
X-10300Y65673D01*
X-15156Y64750D02*
X-11222D01*
X-19800Y60106D02*
X-15156Y64750D01*
X-10300Y70450D02*
X-6797Y73953D01*
X8939Y67987D02*
X9924D01*
X-45229Y52821D02*
X-45200Y52793D01*
X-24040Y53410D02*
X-19800Y57650D01*
X-27982Y53410D02*
X-24040D01*
X-44891Y53101D02*
X-38527D01*
X28098Y88150D02*
X32744D01*
X28098Y91890D02*
X28140Y91848D01*
D69*
X18100Y92601D02*
X18811Y91890D01*
X18100Y92601D02*
Y104550D01*
X7562Y66610D02*
X8939Y67987D01*
X7562Y70350D02*
X9924Y67987D01*
X28140Y91848D02*
X34558D01*
D70*
X5000Y97050D02*
Y104982D01*
X4943Y105039D02*
X5000Y104982D01*
X35561Y82357D02*
X35925D01*
X33342Y67987D02*
X33500Y68145D01*
X35925Y82357D02*
X37750Y84182D01*
X33500Y80296D02*
X35561Y82357D01*
X33500Y68145D02*
Y80296D01*
X37750Y86700D02*
Y88656D01*
X34558Y91848D02*
X37750Y88656D01*
Y84182D02*
Y86700D01*
D71*
X4937Y88290D02*
X5134D01*
X7988Y85436D01*
Y78936D02*
Y85436D01*
X6341Y77289D02*
X7988Y78936D01*
X4937Y88290D02*
Y96646D01*
X6341Y74090D02*
Y77289D01*
X15839Y106811D02*
X18100Y104550D01*
X4943Y106811D02*
X15839D01*
X4943Y105039D02*
Y106811D01*
X-20713Y96267D02*
Y103837D01*
Y94439D02*
Y96267D01*
X-43500Y46317D02*
X-43395D01*
X-49691D02*
X-43500D01*
X-32600Y57150D02*
X-31820Y57930D01*
X-32600Y57150D02*
X-27982D01*
X-44144D02*
X-32600D01*
X-35480Y63748D02*
X-31820Y60088D01*
Y57930D02*
Y60088D01*
X-45200Y58108D02*
X-45101D01*
X-44144Y57150D01*
X-37669Y65330D02*
X-36086Y63748D01*
X-41692Y65330D02*
X-37669D01*
X-45283Y68921D02*
X-41692Y65330D01*
X-29294Y88051D02*
X-21608D01*
X-20628Y89031D01*
Y94354D01*
X-20713Y94439D02*
X-20628Y94354D01*
X-53800Y70450D02*
X-36199Y88051D01*
X-30918Y88191D02*
X-29433D01*
X-36199Y88051D02*
X-31057D01*
X-30918Y88191D01*
X-29433D02*
X-29294Y88051D01*
X-53800Y50427D02*
Y70450D01*
X-20713Y103837D02*
X-20500Y104050D01*
X-19239Y94793D02*
X-16205D01*
X-20713Y96267D02*
X-19239Y94793D01*
X-36086Y63748D02*
X-35480D01*
X-16042Y67408D02*
X-15789D01*
X-25241Y58036D02*
X-24143Y59134D01*
X-26005Y57445D02*
X-25414Y58036D01*
X-24143Y59134D02*
Y59307D01*
X-15789Y67408D02*
X-15100Y68097D01*
X-25414Y58036D02*
X-25241D01*
X-27687Y57445D02*
X-26005D01*
X-24143Y59307D02*
X-16042Y67408D01*
X-11200Y50690D02*
Y50850D01*
X-10555Y48341D02*
X-10063Y47849D01*
X-10555Y48341D02*
Y50045D01*
X-11200Y50690D02*
X-10555Y50045D01*
X-53800Y50427D02*
X-49691Y46317D01*
X-28200Y41193D02*
X-22657D01*
X-22579Y41271D01*
X-28300Y41093D02*
X-28200Y41193D01*
X-28300Y36718D02*
Y41093D01*
X-28400Y36617D02*
X-28300Y36718D01*
X-45500Y68921D02*
X-45283D01*
X-27982Y57150D02*
X-27687Y57445D01*
X19702Y91890D02*
X20594D01*
X18811D02*
X19702D01*
X-36100Y47297D02*
X-29087D01*
X-28298Y46508D01*
X-28200D01*
X-42416Y47297D02*
X-36100D01*
X-43395Y46317D02*
X-42416Y47297D01*
X-16205Y94793D02*
X-15300Y93887D01*
D72*
X2384Y80810D02*
X4937D01*
X-2937D02*
X-175D01*
D73*
X-3200Y67450D02*
Y70009D01*
X-3541Y70350D02*
X-3200Y70009D01*
D74*
X9924Y67987D02*
X30900D01*
X33342D01*
D75*
X-37461Y30373D02*
X-36999Y29912D01*
X-37461Y30373D02*
Y33211D01*
X-38300Y34050D02*
X-37461Y33211D01*
X48158Y29678D02*
X48650D01*
X45961Y27482D02*
X48158Y29678D01*
X45961Y25911D02*
Y27482D01*
X45700Y25650D02*
X45961Y25911D01*
X-25500Y25050D02*
X-25300Y25250D01*
X-21700D01*
X-25500Y24853D02*
Y25050D01*
Y18050D02*
Y24853D01*
X-45200Y52793D02*
X-44891Y53101D01*
X-38527D02*
X-38218Y53410D01*
X-22709Y22062D02*
X-15476D01*
X-25500Y24853D02*
X-22709Y22062D01*
X-25425Y18125D02*
X-15476D01*
X-25500Y18050D02*
X-25425Y18125D01*
D76*
X-52900Y39150D02*
D03*
X44100Y85650D02*
D03*
D77*
X13900Y116850D02*
D03*
X-14250D02*
D03*
D78*
X25785Y51809D02*
D03*
X52100Y75050D02*
D03*
X33600Y99550D02*
D03*
X17100Y110550D02*
D03*
X-17400D02*
D03*
X-33400Y100550D02*
D03*
X-50900Y78550D02*
D03*
X-56900Y53050D02*
D03*
X41600Y17050D02*
D03*
X54600Y46050D02*
D03*
X55100Y56050D02*
D03*
X53600Y66550D02*
D03*
X46900Y71650D02*
D03*
X-13553Y61369D02*
D03*
X7700Y21950D02*
D03*
X-3400Y77650D02*
D03*
X4558Y63044D02*
D03*
X-8800Y102950D02*
D03*
X-39918Y88368D02*
D03*
X-30176Y85336D02*
D03*
X-6007Y61432D02*
D03*
X-3200Y67450D02*
D03*
X18551Y61850D02*
D03*
X-11200Y50850D02*
D03*
X-10500Y18150D02*
D03*
X20034Y57450D02*
D03*
X19700Y87850D02*
D03*
X-42100Y28950D02*
D03*
X-36999Y29912D02*
D03*
X-39500Y18450D02*
D03*
X-22600Y49350D02*
D03*
Y45150D02*
D03*
X45700Y25650D02*
D03*
X-21700Y25250D02*
D03*
X23900Y72850D02*
D03*
X24400Y36150D02*
D03*
X-22579Y41271D02*
D03*
X31600Y18850D02*
D03*
X-21800Y33650D02*
D03*
D79*
X18100Y104550D02*
D03*
X-49627Y52850D02*
D03*
X-20500Y104050D02*
D03*
X-36100Y13650D02*
D03*
M02*
