G04*
G04 #@! TF.GenerationSoftware,Altium Limited,Altium Designer,20.2.6 (244)*
G04*
G04 Layer_Color=128*
%FSLAX25Y25*%
%MOIN*%
G70*
G04*
G04 #@! TF.SameCoordinates,8D702C91-D224-4EEC-953A-651AC819B964*
G04*
G04*
G04 #@! TF.FilePolarity,Positive*
G04*
G01*
G75*
%ADD28R,0.03591X0.03772*%
%ADD33R,0.02362X0.03150*%
%ADD40R,0.04134X0.03543*%
%ADD67C,0.06000*%
%ADD80R,0.03150X0.03150*%
%ADD81R,0.03543X0.04134*%
%ADD82R,0.03150X0.03543*%
G04:AMPARAMS|DCode=83|XSize=64.96mil|YSize=22.84mil|CornerRadius=2.85mil|HoleSize=0mil|Usage=FLASHONLY|Rotation=0.000|XOffset=0mil|YOffset=0mil|HoleType=Round|Shape=RoundedRectangle|*
%AMROUNDEDRECTD83*
21,1,0.06496,0.01713,0,0,0.0*
21,1,0.05925,0.02284,0,0,0.0*
1,1,0.00571,0.02963,-0.00856*
1,1,0.00571,-0.02963,-0.00856*
1,1,0.00571,-0.02963,0.00856*
1,1,0.00571,0.02963,0.00856*
%
%ADD83ROUNDEDRECTD83*%
%ADD84R,0.04758X0.03985*%
G04:AMPARAMS|DCode=85|XSize=14.17mil|YSize=43.31mil|CornerRadius=0.64mil|HoleSize=0mil|Usage=FLASHONLY|Rotation=90.000|XOffset=0mil|YOffset=0mil|HoleType=Round|Shape=RoundedRectangle|*
%AMROUNDEDRECTD85*
21,1,0.01417,0.04203,0,0,90.0*
21,1,0.01290,0.04331,0,0,90.0*
1,1,0.00128,0.02102,0.00645*
1,1,0.00128,0.02102,-0.00645*
1,1,0.00128,-0.02102,-0.00645*
1,1,0.00128,-0.02102,0.00645*
%
%ADD85ROUNDEDRECTD85*%
G04:AMPARAMS|DCode=86|XSize=14.17mil|YSize=43.31mil|CornerRadius=0.64mil|HoleSize=0mil|Usage=FLASHONLY|Rotation=0.000|XOffset=0mil|YOffset=0mil|HoleType=Round|Shape=RoundedRectangle|*
%AMROUNDEDRECTD86*
21,1,0.01417,0.04203,0,0,0.0*
21,1,0.01290,0.04331,0,0,0.0*
1,1,0.00128,0.00645,-0.02102*
1,1,0.00128,-0.00645,-0.02102*
1,1,0.00128,-0.00645,0.02102*
1,1,0.00128,0.00645,0.02102*
%
%ADD86ROUNDEDRECTD86*%
%ADD87R,0.04134X0.03740*%
G36*
X-14141Y120489D02*
X-14033Y120481D01*
X-13926Y120466D01*
X-13820Y120447D01*
X-13715Y120421D01*
X-13611Y120391D01*
X-13509Y120354D01*
X-13409Y120313D01*
X-13311Y120267D01*
X-13216Y120215D01*
X-13124Y120158D01*
X-13035Y120097D01*
X-12949Y120031D01*
X-12867Y119961D01*
X-12788Y119886D01*
X-12713Y119808D01*
X-12643Y119726D01*
X-12577Y119640D01*
X-12516Y119551D01*
X-12460Y119458D01*
X-12408Y119363D01*
X-12361Y119266D01*
X-12320Y119166D01*
X-12284Y119064D01*
X-12253Y118960D01*
X-12228Y118855D01*
X-12208Y118748D01*
X-12194Y118641D01*
X-12185Y118533D01*
X-12183Y118425D01*
Y116850D01*
Y115275D01*
X-12185Y115167D01*
X-12194Y115059D01*
X-12208Y114952D01*
X-12228Y114846D01*
X-12253Y114740D01*
X-12284Y114637D01*
X-12320Y114535D01*
X-12361Y114435D01*
X-12408Y114337D01*
X-12460Y114242D01*
X-12516Y114150D01*
X-12577Y114060D01*
X-12643Y113974D01*
X-12713Y113892D01*
X-12788Y113814D01*
X-12867Y113739D01*
X-12949Y113669D01*
X-13035Y113603D01*
X-13124Y113542D01*
X-13216Y113485D01*
X-13311Y113434D01*
X-13409Y113387D01*
X-13509Y113346D01*
X-13611Y113310D01*
X-13715Y113279D01*
X-13820Y113253D01*
X-13926Y113234D01*
X-14033Y113220D01*
X-14141Y113211D01*
X-14250Y113208D01*
X-14358Y113211D01*
X-14466Y113220D01*
X-14573Y113234D01*
X-14679Y113253D01*
X-14785Y113279D01*
X-14888Y113310D01*
X-14990Y113346D01*
X-15090Y113387D01*
X-15188Y113434D01*
X-15283Y113485D01*
X-15375Y113542D01*
X-15464Y113603D01*
X-15550Y113669D01*
X-15633Y113739D01*
X-15711Y113814D01*
X-15786Y113892D01*
X-15856Y113974D01*
X-15922Y114060D01*
X-15983Y114150D01*
X-16039Y114242D01*
X-16091Y114337D01*
X-16138Y114435D01*
X-16179Y114535D01*
X-16215Y114637D01*
X-16246Y114740D01*
X-16271Y114846D01*
X-16291Y114952D01*
X-16305Y115059D01*
X-16314Y115167D01*
X-16317Y115275D01*
Y116850D01*
Y118425D01*
X-16314Y118533D01*
X-16305Y118641D01*
X-16291Y118748D01*
X-16271Y118855D01*
X-16246Y118960D01*
X-16215Y119064D01*
X-16179Y119166D01*
X-16138Y119266D01*
X-16091Y119363D01*
X-16039Y119458D01*
X-15983Y119551D01*
X-15922Y119640D01*
X-15856Y119726D01*
X-15786Y119808D01*
X-15711Y119886D01*
X-15633Y119961D01*
X-15550Y120031D01*
X-15464Y120097D01*
X-15375Y120158D01*
X-15283Y120215D01*
X-15188Y120267D01*
X-15090Y120313D01*
X-14990Y120354D01*
X-14888Y120391D01*
X-14785Y120421D01*
X-14679Y120447D01*
X-14573Y120466D01*
X-14466Y120481D01*
X-14358Y120489D01*
X-14250Y120492D01*
X-14141Y120489D01*
D02*
G37*
G36*
X14008D02*
X14116Y120481D01*
X14223Y120466D01*
X14330Y120447D01*
X14435Y120421D01*
X14539Y120391D01*
X14641Y120354D01*
X14741Y120313D01*
X14838Y120267D01*
X14933Y120215D01*
X15026Y120158D01*
X15115Y120097D01*
X15201Y120031D01*
X15283Y119961D01*
X15362Y119886D01*
X15436Y119808D01*
X15506Y119726D01*
X15572Y119640D01*
X15633Y119551D01*
X15690Y119458D01*
X15742Y119363D01*
X15788Y119266D01*
X15830Y119166D01*
X15866Y119064D01*
X15897Y118960D01*
X15922Y118855D01*
X15942Y118748D01*
X15956Y118641D01*
X15964Y118533D01*
X15967Y118425D01*
Y116850D01*
Y115275D01*
X15964Y115167D01*
X15956Y115059D01*
X15942Y114952D01*
X15922Y114846D01*
X15897Y114740D01*
X15866Y114637D01*
X15830Y114535D01*
X15788Y114435D01*
X15742Y114337D01*
X15690Y114242D01*
X15633Y114150D01*
X15572Y114060D01*
X15506Y113974D01*
X15436Y113892D01*
X15362Y113814D01*
X15283Y113739D01*
X15201Y113669D01*
X15115Y113603D01*
X15026Y113542D01*
X14933Y113485D01*
X14838Y113434D01*
X14741Y113387D01*
X14641Y113346D01*
X14539Y113310D01*
X14435Y113279D01*
X14330Y113253D01*
X14223Y113234D01*
X14116Y113220D01*
X14008Y113211D01*
X13900Y113208D01*
X13792Y113211D01*
X13684Y113220D01*
X13577Y113234D01*
X13470Y113253D01*
X13365Y113279D01*
X13261Y113310D01*
X13159Y113346D01*
X13059Y113387D01*
X12962Y113434D01*
X12867Y113485D01*
X12774Y113542D01*
X12685Y113603D01*
X12599Y113669D01*
X12517Y113739D01*
X12438Y113814D01*
X12364Y113892D01*
X12294Y113974D01*
X12228Y114060D01*
X12167Y114150D01*
X12110Y114242D01*
X12058Y114337D01*
X12012Y114435D01*
X11970Y114535D01*
X11934Y114637D01*
X11904Y114740D01*
X11878Y114846D01*
X11859Y114952D01*
X11845Y115059D01*
X11836Y115167D01*
X11833Y115275D01*
Y116850D01*
Y118425D01*
X11836Y118533D01*
X11845Y118641D01*
X11859Y118748D01*
X11878Y118855D01*
X11904Y118960D01*
X11934Y119064D01*
X11970Y119166D01*
X12012Y119266D01*
X12058Y119363D01*
X12110Y119458D01*
X12167Y119551D01*
X12228Y119640D01*
X12294Y119726D01*
X12364Y119808D01*
X12438Y119886D01*
X12517Y119961D01*
X12599Y120031D01*
X12685Y120097D01*
X12774Y120158D01*
X12867Y120215D01*
X12962Y120267D01*
X13059Y120313D01*
X13159Y120354D01*
X13261Y120391D01*
X13365Y120421D01*
X13470Y120447D01*
X13577Y120466D01*
X13684Y120481D01*
X13792Y120489D01*
X13900Y120492D01*
X14008Y120489D01*
D02*
G37*
%LPC*%
G36*
X-14250Y119311D02*
X-14296Y119309D01*
X-14342Y119306D01*
X-14388Y119300D01*
X-14434Y119291D01*
X-14479Y119281D01*
X-14523Y119267D01*
X-14567Y119252D01*
X-14610Y119234D01*
X-14652Y119214D01*
X-14692Y119192D01*
X-14732Y119168D01*
X-14770Y119142D01*
X-14807Y119113D01*
X-14842Y119083D01*
X-14876Y119051D01*
X-14908Y119018D01*
X-14938Y118982D01*
X-14966Y118946D01*
X-14992Y118907D01*
X-15017Y118868D01*
X-15039Y118827D01*
X-15059Y118785D01*
X-15077Y118742D01*
X-15092Y118699D01*
X-15105Y118654D01*
X-15116Y118609D01*
X-15124Y118563D01*
X-15131Y118517D01*
X-15134Y118471D01*
X-15135Y118425D01*
Y116850D01*
Y115275D01*
X-15134Y115229D01*
X-15131Y115183D01*
X-15124Y115137D01*
X-15116Y115091D01*
X-15105Y115046D01*
X-15092Y115002D01*
X-15077Y114958D01*
X-15059Y114915D01*
X-15039Y114873D01*
X-15017Y114832D01*
X-14992Y114793D01*
X-14966Y114755D01*
X-14938Y114718D01*
X-14908Y114683D01*
X-14876Y114649D01*
X-14842Y114617D01*
X-14807Y114587D01*
X-14770Y114559D01*
X-14732Y114532D01*
X-14692Y114508D01*
X-14652Y114486D01*
X-14610Y114466D01*
X-14567Y114448D01*
X-14523Y114433D01*
X-14479Y114420D01*
X-14434Y114409D01*
X-14388Y114400D01*
X-14342Y114394D01*
X-14296Y114391D01*
X-14250Y114390D01*
X-14203Y114391D01*
X-14157Y114394D01*
X-14111Y114400D01*
X-14065Y114409D01*
X-14020Y114420D01*
X-13976Y114433D01*
X-13932Y114448D01*
X-13889Y114466D01*
X-13847Y114486D01*
X-13807Y114508D01*
X-13767Y114532D01*
X-13729Y114559D01*
X-13692Y114587D01*
X-13657Y114617D01*
X-13623Y114649D01*
X-13591Y114683D01*
X-13561Y114718D01*
X-13533Y114755D01*
X-13507Y114793D01*
X-13482Y114832D01*
X-13460Y114873D01*
X-13440Y114915D01*
X-13422Y114958D01*
X-13407Y115002D01*
X-13394Y115046D01*
X-13383Y115091D01*
X-13375Y115137D01*
X-13369Y115183D01*
X-13365Y115229D01*
X-13364Y115275D01*
Y116850D01*
Y118425D01*
X-13365Y118471D01*
X-13369Y118517D01*
X-13375Y118563D01*
X-13383Y118609D01*
X-13394Y118654D01*
X-13407Y118699D01*
X-13422Y118742D01*
X-13440Y118785D01*
X-13460Y118827D01*
X-13482Y118868D01*
X-13507Y118907D01*
X-13533Y118946D01*
X-13561Y118982D01*
X-13591Y119018D01*
X-13623Y119051D01*
X-13657Y119083D01*
X-13692Y119113D01*
X-13729Y119142D01*
X-13767Y119168D01*
X-13807Y119192D01*
X-13847Y119214D01*
X-13889Y119234D01*
X-13932Y119252D01*
X-13976Y119267D01*
X-14020Y119281D01*
X-14065Y119291D01*
X-14111Y119300D01*
X-14157Y119306D01*
X-14203Y119309D01*
X-14250Y119311D01*
D02*
G37*
G36*
X13900D02*
X13854Y119309D01*
X13807Y119306D01*
X13761Y119300D01*
X13716Y119291D01*
X13671Y119281D01*
X13626Y119267D01*
X13583Y119252D01*
X13540Y119234D01*
X13498Y119214D01*
X13457Y119192D01*
X13418Y119168D01*
X13379Y119142D01*
X13343Y119113D01*
X13307Y119083D01*
X13274Y119051D01*
X13242Y119018D01*
X13212Y118982D01*
X13183Y118946D01*
X13157Y118907D01*
X13133Y118868D01*
X13111Y118827D01*
X13091Y118785D01*
X13073Y118742D01*
X13058Y118699D01*
X13044Y118654D01*
X13034Y118609D01*
X13025Y118563D01*
X13019Y118517D01*
X13015Y118471D01*
X13014Y118425D01*
Y116850D01*
Y115275D01*
X13015Y115229D01*
X13019Y115183D01*
X13025Y115137D01*
X13034Y115091D01*
X13044Y115046D01*
X13058Y115002D01*
X13073Y114958D01*
X13091Y114915D01*
X13111Y114873D01*
X13133Y114832D01*
X13157Y114793D01*
X13183Y114755D01*
X13212Y114718D01*
X13242Y114683D01*
X13274Y114649D01*
X13307Y114617D01*
X13343Y114587D01*
X13379Y114559D01*
X13418Y114532D01*
X13457Y114508D01*
X13498Y114486D01*
X13540Y114466D01*
X13583Y114448D01*
X13626Y114433D01*
X13671Y114420D01*
X13716Y114409D01*
X13761Y114400D01*
X13807Y114394D01*
X13854Y114391D01*
X13900Y114390D01*
X13946Y114391D01*
X13993Y114394D01*
X14039Y114400D01*
X14084Y114409D01*
X14129Y114420D01*
X14174Y114433D01*
X14218Y114448D01*
X14260Y114466D01*
X14302Y114486D01*
X14343Y114508D01*
X14382Y114532D01*
X14421Y114559D01*
X14457Y114587D01*
X14493Y114617D01*
X14526Y114649D01*
X14558Y114683D01*
X14589Y114718D01*
X14617Y114755D01*
X14643Y114793D01*
X14667Y114832D01*
X14689Y114873D01*
X14709Y114915D01*
X14727Y114958D01*
X14742Y115002D01*
X14756Y115046D01*
X14766Y115091D01*
X14775Y115137D01*
X14781Y115183D01*
X14785Y115229D01*
X14786Y115275D01*
Y116850D01*
Y118425D01*
X14785Y118471D01*
X14781Y118517D01*
X14775Y118563D01*
X14766Y118609D01*
X14756Y118654D01*
X14742Y118699D01*
X14727Y118742D01*
X14709Y118785D01*
X14689Y118827D01*
X14667Y118868D01*
X14643Y118907D01*
X14617Y118946D01*
X14589Y118982D01*
X14558Y119018D01*
X14526Y119051D01*
X14493Y119083D01*
X14457Y119113D01*
X14421Y119142D01*
X14382Y119168D01*
X14343Y119192D01*
X14302Y119214D01*
X14260Y119234D01*
X14218Y119252D01*
X14174Y119267D01*
X14129Y119281D01*
X14084Y119291D01*
X14039Y119300D01*
X13993Y119306D01*
X13946Y119309D01*
X13900Y119311D01*
D02*
G37*
%LPD*%
D28*
X32300Y87512D02*
D03*
Y81788D02*
D03*
X23800Y87512D02*
D03*
Y81788D02*
D03*
D33*
X5800Y71650D02*
D03*
X91D02*
D03*
D40*
X-7300Y69193D02*
D03*
Y74508D02*
D03*
D67*
X-44400Y36500D02*
D03*
X-32800Y36400D02*
D03*
X-44300Y46650D02*
D03*
X-44400Y57750D02*
D03*
X-32800Y49790D02*
D03*
D80*
X12906Y37950D02*
D03*
X7000D02*
D03*
D81*
X846Y102950D02*
D03*
X6554D02*
D03*
D82*
X-17947Y57450D02*
D03*
X-23853D02*
D03*
D83*
X-43014Y65250D02*
D03*
Y70250D02*
D03*
Y75250D02*
D03*
Y80250D02*
D03*
X-14786D02*
D03*
Y65250D02*
D03*
Y75250D02*
D03*
Y70250D02*
D03*
D84*
X1157Y53050D02*
D03*
X-5157D02*
D03*
D85*
X15439Y85691D02*
D03*
Y88250D02*
D03*
Y90809D02*
D03*
Y93368D02*
D03*
X-2238Y83132D02*
D03*
Y85691D02*
D03*
Y88250D02*
D03*
Y90809D02*
D03*
Y93368D02*
D03*
X15439Y83132D02*
D03*
D86*
X11718Y97481D02*
D03*
X9159D02*
D03*
X6600D02*
D03*
X4041D02*
D03*
X1482D02*
D03*
Y79018D02*
D03*
X11718D02*
D03*
X9159D02*
D03*
X6600D02*
D03*
X4041D02*
D03*
D87*
X18900Y73104D02*
D03*
Y67396D02*
D03*
M02*
