G04*
G04 #@! TF.GenerationSoftware,Altium Limited,Altium Designer,20.2.6 (244)*
G04*
G04 Layer_Color=16711935*
%FSLAX25Y25*%
%MOIN*%
G70*
G04*
G04 #@! TF.SameCoordinates,8D702C91-D224-4EEC-953A-651AC819B964*
G04*
G04*
G04 #@! TF.FilePolarity,Negative*
G04*
G01*
G75*
%ADD28R,0.03591X0.03772*%
%ADD33R,0.02362X0.03150*%
%ADD54C,0.06400*%
%ADD56R,0.04534X0.03943*%
%ADD61C,0.07565*%
%ADD62C,0.03543*%
%ADD63C,0.02172*%
%ADD82R,0.03150X0.03543*%
%ADD84R,0.04758X0.03985*%
%ADD88R,0.03550X0.03550*%
%ADD89R,0.03943X0.04534*%
G04:AMPARAMS|DCode=90|XSize=68.96mil|YSize=26.84mil|CornerRadius=4.85mil|HoleSize=0mil|Usage=FLASHONLY|Rotation=0.000|XOffset=0mil|YOffset=0mil|HoleType=Round|Shape=RoundedRectangle|*
%AMROUNDEDRECTD90*
21,1,0.06896,0.01713,0,0,0.0*
21,1,0.05925,0.02684,0,0,0.0*
1,1,0.00971,0.02963,-0.00856*
1,1,0.00971,-0.02963,-0.00856*
1,1,0.00971,-0.02963,0.00856*
1,1,0.00971,0.02963,0.00856*
%
%ADD90ROUNDEDRECTD90*%
G04:AMPARAMS|DCode=91|XSize=17.17mil|YSize=46.31mil|CornerRadius=2.14mil|HoleSize=0mil|Usage=FLASHONLY|Rotation=90.000|XOffset=0mil|YOffset=0mil|HoleType=Round|Shape=RoundedRectangle|*
%AMROUNDEDRECTD91*
21,1,0.01717,0.04203,0,0,90.0*
21,1,0.01290,0.04631,0,0,90.0*
1,1,0.00428,0.02102,0.00645*
1,1,0.00428,0.02102,-0.00645*
1,1,0.00428,-0.02102,-0.00645*
1,1,0.00428,-0.02102,0.00645*
%
%ADD91ROUNDEDRECTD91*%
G04:AMPARAMS|DCode=92|XSize=17.17mil|YSize=46.31mil|CornerRadius=2.14mil|HoleSize=0mil|Usage=FLASHONLY|Rotation=0.000|XOffset=0mil|YOffset=0mil|HoleType=Round|Shape=RoundedRectangle|*
%AMROUNDEDRECTD92*
21,1,0.01717,0.04203,0,0,0.0*
21,1,0.01290,0.04631,0,0,0.0*
1,1,0.00428,0.00645,-0.02102*
1,1,0.00428,-0.00645,-0.02102*
1,1,0.00428,-0.00645,0.02102*
1,1,0.00428,0.00645,0.02102*
%
%ADD92ROUNDEDRECTD92*%
%ADD93R,0.04534X0.04140*%
%ADD94C,0.03162*%
G36*
X-17104Y121386D02*
X-11416D01*
Y112322D01*
X-17104D01*
Y121386D01*
D02*
G37*
G36*
X11046Y121385D02*
X16781D01*
Y112322D01*
X11046D01*
Y121385D01*
D02*
G37*
D28*
X32300Y87512D02*
D03*
Y81788D02*
D03*
X23800Y87512D02*
D03*
Y81788D02*
D03*
D33*
X5800Y71650D02*
D03*
X91D02*
D03*
D54*
X-44400Y36500D02*
D03*
X-32800Y36400D02*
D03*
X-44300Y46650D02*
D03*
X-44400Y57750D02*
D03*
X-32800Y49790D02*
D03*
D56*
X-7300Y69193D02*
D03*
Y74508D02*
D03*
D61*
X-52900Y39150D02*
D03*
X44100Y85650D02*
D03*
D62*
X-30176Y68464D02*
D03*
Y95236D02*
D03*
D63*
X13900Y116850D02*
D03*
X-14250D02*
D03*
D82*
X-17947Y57450D02*
D03*
X-23853D02*
D03*
D84*
X1157Y53050D02*
D03*
X-5157D02*
D03*
D88*
X12906Y37950D02*
D03*
X7000D02*
D03*
D89*
X846Y102950D02*
D03*
X6554D02*
D03*
D90*
X-43014Y65250D02*
D03*
Y70250D02*
D03*
Y75250D02*
D03*
Y80250D02*
D03*
X-14786D02*
D03*
Y65250D02*
D03*
Y75250D02*
D03*
Y70250D02*
D03*
D91*
X15439Y85691D02*
D03*
Y88250D02*
D03*
Y90809D02*
D03*
Y93368D02*
D03*
X-2238Y83132D02*
D03*
Y85691D02*
D03*
Y88250D02*
D03*
Y90809D02*
D03*
Y93368D02*
D03*
X15439Y83132D02*
D03*
D92*
X11718Y97481D02*
D03*
X9159D02*
D03*
X6600D02*
D03*
X4041D02*
D03*
X1482D02*
D03*
Y79018D02*
D03*
X11718D02*
D03*
X9159D02*
D03*
X6600D02*
D03*
X4041D02*
D03*
D93*
X18900Y73104D02*
D03*
Y67396D02*
D03*
D94*
X7700Y21950D02*
D03*
X-11200Y50850D02*
D03*
X-10500Y18150D02*
D03*
M02*
