M48
;Layer_Color=9474304
;FILE_FORMAT=2:5
INCH,LZ
;TYPE=PLATED
T1F00S00C0.01181
T2F00S00C0.02800
T3F00S00C0.05906
;TYPE=NON_PLATED
T4F00S00C0.01772
T5F00S00C0.03543
%
T01
X00457Y002565
X00416Y001705
X00316Y001885
X00244Y003615
X00077Y002195
X-00105Y001815
X-00217Y002525
X-00218Y003365
X-0022579Y0041271
X-0036999Y0029912
X-00421Y002895
X-00395Y001845
X-00226Y004515
Y004935
X-00112Y005085
X-0013553Y0061369
X-0006007Y0061432
X-00032Y006745
X-00034Y007765
X0004558Y0063044
X0018551Y006185
X0020034Y005745
X0025785Y0051809
X00239Y007285
X00197Y008785
X00171Y011055
X00336Y009955
X-00088Y010295
X-00174Y011055
X-00334Y010055
X-0030176Y0085336
X-0039918Y0088368
X-00509Y007855
X-00569Y005305
X00551Y005605
X00546Y004605
X00536Y006655
X00521Y007505
X00469Y007165
T02
X-00361Y001365
X-0049627Y005285
X-00205Y010405
X00181Y010455
T03
X-00529Y003915
X00441Y008565
T04
X-001425Y011685
X00139
T05
X-0030176Y0068464
Y0095236
M30
